<?xml version="1.0" encoding="UTF-8" standalone="no"?>
<!DOCTYPE svg PUBLIC "-//W3C//DTD SVG 1.1//EN"
"http://www.w3.org/Graphics/SVG/1.1/DTD/svg11.dtd">
<svg viewBox="0 0 935 1210" version="1.1" xmlns="http://www.w3.org/2000/svg" xmlns:xlink="http://www.w3.org/1999/xlink">
<defs>
<clipPath id="c0_2"><path d="M154.7,79.8l0,-35.8l77.7,0l0,35.8Z" /></clipPath>
<style type="text/css"><![CDATA[
.g1_2{
fill: #DEDFDF;
}
.g2_2{
fill: #FFFFFF;
}
.g3_2{
fill: none;
stroke: #000000;
stroke-width: 2.1006944;
stroke-linecap: butt;
stroke-linejoin: miter;
}
.g4_2{
fill: #E7E8E8;
}
.g5_2{
fill: none;
stroke: #000000;
stroke-width: 1.1458334;
stroke-linecap: butt;
stroke-linejoin: miter;
}
.g6_2{
}
.g7_2{
fill: none;
stroke: #000000;
stroke-width: 1.9097222;
stroke-linecap: butt;
stroke-linejoin: miter;
}
.g8_2{
fill: #C3C4C6;
}
.g9_2{
fill: none;
stroke: #B5B6B6;
stroke-width: 0.38194445;
stroke-linecap: butt;
stroke-linejoin: miter;
stroke-miterlimit: 4;
}
.g10_2{
fill: none;
stroke: #000000;
stroke-width: 0.9166667;
stroke-linecap: butt;
stroke-linejoin: miter;
}
]]></style>
</defs>
<path d="M639.2,464.6c2.2,0.4,5.7,0.7,9.4,-0.5l7.6,2.1l-14.7,0c-0.6,-0.4,-1.4,-1,-2.3,-1.6m208.3,1.6l14.7,0c0.7,-0.4,1.5,-1,2.3,-1.6c-2.2,0.4,-5.7,0.7,-9.4,-0.5ZM862.2,202.8l-14.7,0l7.6,2.1c3.7,-1.2,7.2,-0.9,9.4,-0.5c-0.8,-0.6,-1.6,-1.1,-2.3,-1.6m-233,245.9l0,-98.1c-0.3,-0.2,-0.6,-0.6,-0.6,-1.1c0,-0.6,0.5,-1.2,1.2,-1.2c0.7,0,1.2,0.6,1.2,1.2c0,0.5,-0.3,0.9,-0.6,1.1l0,98.1c0,6.8,3.9,11.7,7.5,14.8c1.5,0.4,6,1.3,10.6,-0.1l0.1,-0.1l0.1,0.1l10.5,2.8l185.4,0l10.5,-2.9l0.1,0.1c4.6,1.4,9.1,0.5,10.6,0.1c3.6,-3.1,7.6,-8,7.6,-14.8l0,-98.1c-0.4,-0.2,-0.7,-0.6,-0.7,-1.1c0,-0.6,0.6,-1.2,1.2,-1.2c0.7,0,1.2,0.6,1.2,1.2c0,0.5,-0.2,0.9,-0.6,1.1l0,98.1c0,8.8,-6,14.5,-10.2,17.5l2.8,0c3.1,-2.8,9.1,-9.4,11.4,-18.7l0,-226c-2.3,-9.3,-8.3,-15.9,-11.3,-18.7l-2.9,0c4.2,3,10.2,8.7,10.2,17.5l0,96.6c0.4,0.2,0.6,0.6,0.6,1.1c0,0.6,-0.5,1.2,-1.2,1.2c-0.6,0,-1.2,-0.6,-1.2,-1.2c0,-0.5,0.3,-0.9,0.7,-1.1l0,-96.6c0,-6.8,-4,-11.7,-7.6,-14.8c-1.5,-0.4,-6,-1.3,-10.6,0.1l-0.1,0.1L855,205.6l-10.4,-2.8l-185.4,0l-10.6,2.9l-0.1,-0.1c-4.6,-1.4,-9.1,-0.5,-10.6,-0.1c-3.6,3.1,-7.5,8,-7.5,14.8l0,96.6c0.3,0.2,0.6,0.6,0.6,1.1c0,0.6,-0.5,1.2,-1.2,1.2c-0.7,0,-1.2,-0.6,-1.2,-1.2c0,-0.5,0.3,-0.9,0.6,-1.1l0,-96.6c0,-8.8,6.1,-14.5,10.3,-17.5l-2.9,0c-3,2.8,-9.1,9.4,-11.4,18.7l0,226c2.3,9.3,8.4,15.9,11.4,18.7l2.9,0c-4.2,-3,-10.3,-8.7,-10.3,-17.5m27,-245.9l-14.7,0c-0.6,0.5,-1.4,1,-2.3,1.6c2.2,-0.4,5.7,-0.7,9.4,0.5Zm-20.7,0l-4,0c0,0,-3.3,5.6,-6.3,7l0,9c2.5,-7.6,7.3,-13.2,10.3,-16M868.3,466.2l3.9,0c0,0,3.3,-5.6,6.3,-7l0,-9c-2.5,7.6,-7.3,13.2,-10.2,16m-243.1,-16l0,9c3,1.4,6.3,7,6.3,7l4,0c-3,-2.8,-7.8,-8.4,-10.3,-16M878.5,218.8l0,-9c-3,-1.4,-6.3,-7,-6.3,-7l-3.9,0c2.9,2.8,7.7,8.4,10.2,16Z" class="g1_2" />
<path d="M143.2,93.6l35.5,2.7l-35.5,2.6L107.7,96.3Zm212.7,10l35.5,2.6l35.5,-2.6l-35.5,-2.7Zm174.6,-26l34,-2.6l-42,-3.1l64.3,-4.8L529.6,62.8l79.2,-5.9L473.9,46.8l36.2,-2.7l-66.2,-5l-58.8,4.4L358.6,40.1l64.9,-4.8l-52,-3.9l-36.2,2.7L293.2,30.9l-39.4,3l40,3l-44,3.3L205.7,36.9l25.6,-2L200.8,32.7L103.3,40l34.5,2.5L28.3,50.7l64.5,4.9L58.7,58.1l42,3.1L36.5,66l57.2,4.3L14.4,76.2l108.9,8.2L73.5,88.1l52.6,4L139.7,91l39.6,3l58.9,-4.4L264.6,93L196,98.2l94.1,7l20.6,-1.5l-37,-2.8l52.9,-4l37,2.8l24.3,-1.8l34.6,2.6L520,93.2L485.4,90.6L595,82.4Z" class="g1_2" />
<path d="M294,170.4l28.9,2.1L294,174.7l-28.8,-2.2Zm172.8,8.1l28.8,2.1l28.9,-2.1l-28.9,-2.2ZM608.6,157.4l27.7,-2.1l-34.1,-2.5l52.1,-3.9l-46.4,-3.5l64.3,-4.8L562.6,132.4l29.5,-2.2l-53.8,-4l-47.8,3.5L469,126.9L521.7,123l-42.2,-3.2L450,122l-34.1,-2.5l-32,2.4l32.5,2.4L380.6,127l-35.8,-2.7l20.8,-1.6l-24.8,-1.8l-79.2,5.9l28,2.1l-88.9,6.7l52.4,3.9l-27.7,2l34.1,2.6L207.3,148l46.5,3.5l-64.4,4.8l88.5,6.6l-40.5,3l42.7,3.2l11.1,-0.8l32.2,2.4l47.8,-3.6l21.4,2.8l-55.7,4.2l76.5,5.7l16.7,-1.2L400,176.3l43,-3.2l30.1,2.2l19.7,-1.4l28.1,2.1l79.2,-5.9L572,168l89,-6.7Z" class="g1_2" />
<path d="M600,97.8l23.8,1.8L600,101.4L576.2,99.6Zm142.4,6.7l23.8,1.8L790,104.5l-23.8,-1.8Zm117,-17.4l22.8,-1.7L854.1,83.3l43,-3.2L858.8,77.2l53.1,-4L821.5,66.5l24.3,-1.8L801.4,61.3l-39.4,3L744.3,62l43.5,-3.3L752.9,56.1l-24.3,1.8L700.4,55.8l-26.3,2l26.8,2L671.4,62L641.9,59.8L659,58.5L638.5,57l-65.3,4.9l23.1,1.7L523,69.1l43.2,3.2L543.4,74l28.1,2.1l-43,3.3l38.3,2.8l-53.1,4l73,5.5l-33.5,2.5l35.3,2.6l9.1,-0.7l26.6,2l39.4,-3l17.7,2.4l-45.9,3.4l63,4.7l13.8,-1l-24.8,-1.9l35.4,-2.6l24.8,1.8l16.3,-1.2l23.2,1.7l65.3,-4.8L829.2,95.8l73.4,-5.5Z" class="g1_2" />
<path d="M274,71.7L315.7,68L274,65.1l-44.1,3.3Z" class="g2_2" />
<path d="M282.2,63.1L310,60.7l-27.8,-2l-29.4,2.2Z" class="g2_2" />
<path d="M259.5,59.3l20.6,-1.8L259.5,56.1l-21.7,1.6Z" class="g2_2" />
<path d="M302.3,56l19.2,-1.7L302.3,53l-20.4,1.5Z" class="g2_2" />
<path d="M271.3,75.6l27.8,-2.4l-27.8,-2L242,73.4Z" class="g2_2" />
<path d="M111.5,52.7l28.6,-2.5l-28.6,-2L81.2,50.5Z" class="g2_2" />
<path d="M116.3,55.3l22,-1.9l-22,-1.5L93.1,53.6Z" class="g2_2" />
<path d="M103.4,68.3l21.9,-1.9L103.4,64.8L80.1,66.5Z" class="g2_2" />
<path d="M110.1,72.8l19.4,-1.7L110.1,69.7L89.5,71.2Z" class="g2_2" />
<path d="M866.1,442.9l-228.4,0l0,-225.3l228.4,0l0,225.3Z" class="g2_2" />
<path d="M866.1,442.9l-228.4,0l0,-225.3l228.4,0l0,225.3Z" class="g3_2" />
<path d="M859.6,255.1l0,-20.6l-212.1,0l-3.6,3.6l0,20.6l212.1,0Z" class="g4_2" />
<path d="M878.7,89.1l0,58.2c22.2,-0.1,25.1,0,28.9,-4.9l0,-57.3c-7.1,3.8,-14.5,3.9,-28.9,4Z" class="g3_2" />
<path d="M877.7,93.4c24.8,-0.1,27.1,-1.8,29.3,-3.5m-28.3,52.7c29.9,3.4,27.4,-5.5,28.7,-5.8" class="g5_2" />
<path d="M399.7,81.2c-0.2,-0.1,0,-0.3,0.2,-0.2c0.2,0.1,-0.1,0.4,-0.2,0.2m2.9,4.4c0.1,0.2,0.1,0.5,0.1,0.7c1.1,0.7,1.9,2,1.8,3.1c0,0.4,-0.2,0.6,-0.5,0.7c0.2,0.3,0.4,0.6,0.5,1c0.4,1.8,-2,2.3,-2.8,1c-0.2,-0.3,-0.3,-0.5,-0.5,-0.7c-0.7,-0.3,-2.5,-0.3,-4.3,-0.2c-1.3,2.2,-2.8,4.2,-4.7,5.9c-1,1,-3,0.5,-3.4,-0.8c-0.2,0.2,-0.4,0.3,-0.6,0.5c-0.8,0.6,-1.8,-0.4,-1.4,-1.2c0.2,-0.3,0.3,-0.6,0.5,-0.9c-0.3,0,-0.7,-0.2,-0.9,-0.4c-0.5,0.6,-1.2,0.7,-1.8,0.4c-0.1,0.1,-0.2,0.2,-0.2,0.3c-0.1,0.1,-0.1,0.1,-0.1,0.2c0.3,1.2,-0.2,2.8,-1.7,3.2c-3.4,0.7,-6.1,-0.3,-9,-1.5c0,0.4,-0.2,0.8,-0.6,1.1c-0.2,0.2,-0.4,0.4,-0.6,0.5c-7.8,3.6,-16.1,5.7,-24.2,8.6c-0.8,0.3,-1.5,-0.1,-1.8,-0.7c-1.3,0.7,-2.7,-0.6,-2,-1.9c-0.6,0.5,-1.3,1,-2,1.5c-0.5,0.3,-1,0.3,-1.4,0c-0.6,0.5,-1.1,1,-1.7,1.5c-1,0.8,-2.7,-0.2,-2.2,-1.5c0.1,-0.3,0.3,-0.6,0.4,-0.9c-0.6,0.6,-1.1,1.2,-1.7,1.8c-0.7,0.8,-1.8,0.4,-2.2,-0.3c-0.1,0.2,-0.2,0.3,-0.4,0.4c-0.8,0.8,-2,0.1,-2.1,-0.9c-0.1,0.2,-0.3,0.4,-0.4,0.6c-0.9,1.2,-2.3,-0.1,-2.2,-1.2c0.1,-0.2,0.1,-0.3,0.1,-0.4c-0.3,0.3,-0.5,0.6,-0.9,0.9c-0.7,0.7,-2.3,-0.1,-2,-1.1c0.1,-0.2,0.1,-0.3,0.1,-0.4c-0.2,0.2,-0.4,0.4,-0.6,0.6c-0.8,0.6,-1.7,0.2,-2,-0.5c-0.1,0.1,-0.2,0.2,-0.4,0.4c-0.6,0.6,-2.1,0.4,-2,-0.7c0,-0.9,0.1,-1.7,0.2,-2.6c-1.1,0.8,-2.3,1.4,-3.6,1.8c-0.7,0.3,-1.5,-0.6,-0.9,-1.2c0.2,-0.2,0.4,-0.4,0.6,-0.6c-0.2,0.1,-0.4,0.2,-0.6,0.2c-0.5,0.2,-0.8,-0.1,-1,-0.4c-0.7,0.3,-1.5,0.6,-2.2,1c0.2,1.1,0.5,2.2,0.7,3.2c0,0.2,0,0.4,-0.2,0.5c0.3,0.1,0.5,0.3,0.7,0.5c0.1,0.1,0.1,0.3,0.1,0.4c0,0.1,-0.1,0.1,-0.1,0.2c0,0.1,-0.1,0.2,-0.2,0.2c0,0.3,0,0.6,-0.1,0.9c0,0.2,-0.4,0.3,-0.5,0.1c-0.1,-0.4,-0.1,-0.7,-0.1,-1c0,0,-0.1,0,-0.1,-0.1c0,0.1,-0.1,0.2,-0.2,0.2c-0.5,0.1,-1.1,0.1,-1.6,0c-0.4,-0.1,-0.2,-0.8,0.2,-0.8c0.3,0,0.6,0.1,0.9,0.1c0.1,-0.1,0.2,-0.2,0.2,-0.3c0,-0.2,0.2,-0.2,0.2,0c0.1,0.1,0.1,0.2,0,0.3c0.1,0,0.1,0,0.1,0c0,-0.1,0.1,-0.1,0.2,-0.2c0,-0.1,0,-0.2,-0.1,-0.3c-0.1,0,-0.3,-0.1,-0.4,-0.2c-0.2,0.3,-0.7,0.3,-0.8,0c-0.4,-0.9,-0.7,-1.8,-1,-2.7c0,-0.1,-0.1,-0.2,-0.1,-0.2c-1.1,0.4,-2.3,0.8,-3.4,1.1c-0.3,0,-0.6,0,-0.8,-0.2c-0.5,0.1,-1,-0.1,-1.2,-0.5c-0.2,0,-0.4,0.1,-0.5,0.1c-1.3,0.6,-2.3,-1.6,-1,-2.3c1.5,-0.8,3.1,-1.6,4.7,-2.2c0.2,-0.1,0.4,-0.1,0.6,-0.1l0,-0.1c-0.4,-0.8,-0.7,-1.6,-0.7,-2.3c-0.1,-0.4,-0.1,-1,0.3,-1.3c0.2,-0.4,0.5,-0.8,1,-1.2l0.1,0c1.1,-2.2,2.7,-4.5,3.6,-6.9c0,0,0,-0.1,0,-0.1c-0.7,-0.6,-1.4,-1.3,-1.9,-2c-1.2,-0.1,-2.5,-0.4,-3.6,-0.9c-0.3,0.1,-0.7,0.2,-1.1,0.5c-0.4,0.7,-0.7,1.4,-1,2.1c-0.1,0.8,-0.3,1.7,-0.8,2.4c-0.1,0.2,-0.3,0.2,-0.5,0.1c0,0.3,-0.1,0.5,-0.2,0.8c0.2,0,0.3,0.1,0.3,0.3c0,0.3,-0.1,0.6,-0.2,0.9c-0.1,0.2,-0.4,0.5,-0.7,0.4c-0.4,-0.2,-0.8,-0.3,-1.2,-0.5c0,0,-0.1,0,-0.1,0c-0.1,0,-0.2,0,-0.3,-0.1c0.1,0.3,-0.1,0.6,-0.4,0.4C300.5,90.9,299,89.4,297.9,88c-0.1,-0.1,-0.2,-0.1,-0.3,-0.2c-2.5,-1.5,-4.6,-3.6,-6.7,-5.5c-2.6,-2.1,-5.4,-4,-7.6,-6.5c-0.1,-0.1,0,-0.2,0.1,-0.2c4.9,2.5,8.8,6.6,13.5,9.5C297,85,297.2,85,297.3,84.9c0.4,-0.1,0.6,0.4,0.5,0.7c0.1,0,0.2,0.1,0.2,0.2c0.2,0.1,0.4,0.2,0.6,0.3c0.3,0.1,0.4,0.3,0.5,0.6c0.7,0.6,1.4,1.3,1.8,1.9c0.7,0.1,1.4,0.1,2.1,0.2c0.1,-0.1,0.3,0,0.5,0.1l0,0.1c0.1,0,0.1,0.1,0.1,0.2c0,0.1,0,0.2,-0.1,0.3c0,0.1,0,0.2,-0.1,0.2c0.2,0,0.3,0,0.5,-0.1c0,0,-0.1,0,0,-0.1l0,-0.1c-0.1,-0.1,-0.2,-0.2,-0.2,-0.4c-0.2,-0.2,-0.4,-0.4,-0.4,-0.7c0.1,-0.6,0.1,-1.2,0.2,-1.7c-0.2,-0.1,-0.4,-0.2,-0.6,-0.3c-0.5,-0.3,-1.1,-0.5,-1.6,-0.9c-0.3,0.2,-0.8,0.3,-1,-0.1c-1,-1.3,-1.2,-3.4,-1.4,-5c-0.1,-0.7,-0.3,-2,-0.1,-3c-0.2,-0.2,-0.4,-0.4,-0.3,-0.8c0.4,-1.4,2.4,-2.1,3.7,-2.3c0.4,0,1,0,1.5,0.1c0.4,-0.6,0.7,-1.1,0.9,-1.7c0,-0.1,0,-0.1,0,-0.1c-0.1,0,-0.2,-0.1,-0.3,-0.2c0,-0.1,-0.1,-0.2,-0.2,-0.2C304,72,303.9,71.9,303.9,71.8c0,-0.1,0,-0.1,0,-0.2c-0.2,-0.3,-0.4,-0.5,-0.6,-0.8c-0.2,-0.1,-0.3,-0.3,-0.5,-0.4c-0.2,0.1,-0.4,0.1,-0.6,0c0,0.2,0,0.4,0,0.6c0,0.2,-0.3,0.2,-0.5,0.1c-0.1,-0.2,-0.2,-0.5,-0.2,-0.7c0,0,0,0.1,0,0.1c0,0.1,-0.1,0.2,-0.1,0.2c0,0.1,0.1,0.2,0.1,0.4c0.1,0.2,-0.2,0.4,-0.3,0.2C301.1,71.2,301,71.1,300.9,71c-0.1,0.2,-0.5,0.3,-0.7,0c-0.3,-0.4,-0.5,-1,-0.5,-1.5c-0.3,-0.8,-0.4,-1.6,-0.3,-2.4c0,-0.5,0,-1,0.2,-1.4c-0.3,-0.1,-0.3,-0.5,0,-0.6c0,0,0.1,0,0.1,0c0.1,0,0.1,0,0.2,0c0.2,-1.4,1.9,-2,3.3,-1.4c0.1,0,0.2,0,0.3,0.1l0,0.1c0.6,0.3,1,0.7,1.3,1.2c0.6,0.7,0.9,1.7,0.8,2.7c0.1,0.3,0.1,0.5,0.2,0.7c0,0.1,0,0.1,0,0.2c0.2,0.1,0.4,0.2,0.5,0.4c0.1,0.1,0.2,0.2,0.3,0.4c0.6,0.7,1.1,1.5,1.4,2.3c1.7,1.2,3.3,2.7,4.2,4.6c0.7,1.4,1.7,2.9,2.2,4.5c0.3,0.3,0.5,0.7,0.7,1c0.2,0.4,0.5,0.8,0.7,1.3c0,0.1,0,0.2,0,0.3c0,0,0,0.1,0,0.2c0.1,0,0.2,0,0.2,0c0.9,0.4,1.9,0.7,2.7,1.4c0.6,0.6,0.7,1.5,0.3,2.2c0.1,0.1,0.2,0.4,0.1,0.7C319,88,319,88.1,319,88.2c0,0.8,-0.3,1.6,-1,2.1c-0.3,0.9,-0.9,1.8,-1.5,2.5c0.1,0.1,0.2,0.1,0.3,0.1c0.2,0,0.3,0.1,0.3,0.2c0,-0.1,0,-0.1,0,-0.1c0.1,-0.1,0.1,-0.1,0.2,-0.2c0.2,-0.6,0.5,-1.2,0.8,-1.8c0.1,-0.1,0.2,0,0.2,0.1c0,0.4,-0.2,0.8,-0.3,1.2c0,-0.1,0.1,-0.2,0.2,-0.2c0.3,-0.4,0.9,-0.1,0.8,0.4c0,0,0,0.1,-0.1,0.1c0.1,0.1,0.1,0.3,0.1,0.4c-0.1,0.4,-0.3,0.7,-0.5,1.1c0.1,0.1,0.1,0.2,0.1,0.3c0,0,0.1,0,0.1,0.1c0.2,0.3,0.3,0.6,0.5,1c0,-0.1,0,-0.2,-0.1,-0.2c-0.1,-0.5,-0.2,-1,-0.2,-1.6c-0.1,-0.4,0.6,-0.6,0.7,-0.2c0.3,1,0.6,1.9,0.9,2.7c0.3,-0.3,0.6,-0.6,0.9,-0.9c-0.4,-0.7,-0.7,-1.5,-1.2,-2.2c-0.2,-0.4,-0.1,-0.8,0,-1.1c0.2,-0.7,0.4,-1.4,0.7,-2.1l0,-0.1c-0.5,-2.4,-0.7,-4.8,1.5,-4c0.5,-0.8,1.1,-1.5,1.9,-2.1c0,-0.3,-0.1,-0.7,-0.1,-1l0,-0.1c-0.6,0.3,-1.2,0.4,-2,0c-0.8,-0.3,-1.4,-1,-1.9,-1.8c-0.2,0,-0.3,-0.2,-0.3,-0.3c-0.1,-0.1,-0.1,-0.2,-0.1,-0.3c-0.4,-1,-0.7,-2,-0.6,-2.9c0,-0.5,0.7,-0.5,0.8,0c0,0.1,0.1,0.3,0.1,0.5c0.1,-0.2,0.2,-0.4,0.2,-0.6l0,-0.1c-0.2,-0.2,-0.1,-0.5,-0.2,-0.7c-0.1,-0.1,0,-0.2,0.1,-0.2c0,-0.1,-0.1,-0.3,-0.1,-0.4c0,-0.1,0,-0.2,0.1,-0.3c-0.2,-0.5,-0.4,-0.9,-0.5,-1.4c-0.9,-0.9,-1.6,-1.9,-2.4,-3c-0.6,-0.9,-1.4,-1.9,-2,-2.9c-0.4,0,-0.8,-0.1,-1.3,0c-0.4,0.2,-1,0.5,-1,0.5c0,0.1,-0.1,0.1,-0.2,0.2c-0.1,0.1,-0.2,0.3,-0.3,0.4c0.1,0.3,0.1,0.5,0.2,0.8c0,0.2,0,0.3,-0.1,0.4c0.2,1,0.5,1.8,1.2,2.6c0.1,0.2,-0.1,0.4,-0.2,0.3c-0.2,-0.1,-0.3,-0.2,-0.4,-0.3c-1,-0.5,-1.6,-1.7,-2.1,-2.6c-0.6,-1,-1,-2,-1,-3.1c0,-0.1,0,-0.1,0.1,-0.1c0,0.2,0.1,0.3,0.2,0.5c0,-0.1,0,-0.1,0,-0.1c-0.1,-0.1,-0.2,-0.2,-0.2,-0.3c0.1,-0.7,0.1,-1.5,0.4,-2.1c-0.1,-0.1,-0.2,-0.2,-0.1,-0.4c0.2,-0.4,0.7,-0.5,1.2,-0.7c0.3,-0.2,0.6,-0.4,0.9,-0.5c0.3,-0.1,0.6,-0.3,0.9,-0.5c0,-0.1,0,-0.1,0,-0.1c0,-0.3,-0.1,-0.5,-0.2,-0.8c0.3,0,0.4,0.3,0.5,0.5c0.1,0,0.2,0,0.2,0.1c1.7,2.4,3.3,4.9,4.8,7.5c0.3,0.5,0.6,1,0.8,1.6c0.4,0.7,0.7,1.4,1.1,2.1c0,-0.1,0,-0.2,0.1,-0.3c-0.1,-0.2,-0.1,-0.4,-0.2,-0.6c0,-0.1,0,-0.2,0,-0.4c-0.4,-0.3,-0.6,-0.8,-0.3,-1.2c0.3,-0.4,0.6,-0.9,0.9,-1.3c0.2,-0.5,0.4,-1,0.6,-1.4c-0.1,-0.7,-0.1,-1.4,0.1,-2c0,-0.2,0.2,-0.2,0.3,0c0,0,0,0.1,0,0.1c0,-0.1,0,-0.3,0.1,-0.5c-0.1,0,-0.1,0,-0.1,0c-0.4,0,-0.8,-0.3,-1.2,-0.4c-0.2,-0.1,-0.3,-0.2,-0.5,-0.3c0,0.3,-0.1,0.5,-0.3,0.7c-0.1,0.1,-0.3,0.1,-0.5,0c-0.7,-0.5,-0.4,-2.1,-0.4,-2.9c0,-0.3,0,-0.7,0.1,-1c0,0,-0.1,-0.1,0,-0.2c0,0,0.1,-0.1,0.1,-0.1c0.2,-0.5,0.5,-0.9,0.9,-1.2c0,0,0,-0.1,0,-0.1c0.1,-0.1,0.2,-0.2,0.3,-0.2c0,-0.1,0.1,-0.1,0.1,-0.2c0.2,-0.1,0.3,-0.3,0.5,-0.4c0.1,-0.2,0.2,-0.4,0.2,-0.7c0.1,-0.3,0.1,-0.6,0.1,-0.9c-0.3,-0.2,-0.6,-0.5,-0.8,-0.8c-0.2,-0.2,0,-0.4,0.2,-0.4c0.8,0,1.6,0.4,2.3,0.7c0.1,-0.2,0.2,-0.3,0.5,-0.3c1.2,0.3,2,1.3,2.5,2.4c0.4,0.5,-0.4,1.2,-0.9,0.8c-0.1,0,-0.2,0.1,-0.2,0c-0.6,0,-1,-0.3,-1.4,-0.6c0.1,0.1,0.2,0.2,0.3,0.3c0.2,0,0.5,0.2,0.5,0.5c0.1,0.3,0.1,0.6,0.1,0.9c0,-0.1,0,-0.1,0.1,-0.1c0.2,-0.4,1.1,-0.2,1,0.3c0,0.3,0,0.6,0,0.9c-0.1,0.2,-0.1,0.4,-0.2,0.6c-0.2,0.5,-0.3,0.8,-0.6,1.2c-0.2,0.2,-0.5,0.3,-0.7,0.2c0,0.2,-0.1,0.4,-0.2,0.5l0.1,-0.1c0.1,-0.1,0.2,-0.1,0.4,-0.1c0.1,0,0.2,0,0.3,0.1c0.1,-0.1,0.1,0,0.2,0c0.2,0.1,0.4,0.2,0.6,0.3c0.2,0.1,0.3,0.1,0.4,0.1l0.1,0c0.1,-0.3,0.6,-0.1,0.6,0.1c0,0.4,-0.1,0.6,-0.3,0.8c0.3,0,0.6,0.1,0.7,0.4c-0.1,-0.4,-0.1,-0.7,-0.2,-1c0,-0.4,0.5,-0.5,0.6,-0.2c0.7,2.1,1.6,4.1,2.5,6.1c0.2,-1.2,1,-2.3,1.3,-3.5c0.1,-0.4,0.4,-0.6,0.8,-0.7c-0.1,-0.3,-0.2,-0.5,-0.3,-0.8c0,0,0,-0.1,0,-0.2c-0.1,-0.1,-0.3,-0.3,-0.4,-0.4c-0.4,-0.1,-0.8,-0.5,-0.8,-1.1c-1.3,-1.3,-0.9,-3.6,0,-5c0.1,-0.2,0.3,-0.3,0.5,-0.3c0.2,-0.9,0.6,-1.5,1.5,-2.2c0.2,-0.2,0.5,-0.1,0.8,0c0.2,-0.2,0.5,-0.5,0.8,-0.7c0.2,-0.2,0.5,0,0.5,0.2c0.1,0.3,0.2,0.5,0.2,0.6c0.2,0,0.5,0.1,0.7,0.1c0.4,0,0.8,0.5,0.8,0.9c0,0.4,-0.1,0.8,-0.1,1.1c0.9,0.9,0.6,2.6,0.3,3.9c0.3,0.8,0.6,1.8,0.3,2.6c0.1,0,0.2,0.1,0.3,0.1c0.2,0.2,1.1,1.1,1.3,1.7c0.6,0.5,1,1.1,1.5,1.7c0.3,0.3,0.6,0.6,0.9,0.9C341.1,71,341,70.9,341,70.9c0,-0.8,0.6,-1.2,1.2,-1.3c-0.1,-0.7,0,-1.3,0.2,-1.9c-0.5,-1.2,0.3,-2.3,1.5,-2.7c0.5,-0.2,1,0.2,1.1,0.6c0.2,1,0.5,1.9,1.1,2.7c0.3,-0.2,0.7,-0.1,0.9,0.2c0.2,0.5,0.5,1,0.8,1.5c0,-0.3,-0.1,-0.7,0,-1.1c0,-0.4,0.5,-0.4,0.6,-0.1c0.2,0.3,0.3,0.5,0.4,0.8c0.1,-0.1,0.2,-0.1,0.3,-0.2C349,69.2,349,69,348.9,68.8c-0.2,-0.9,-0.4,-1.7,-0.6,-2.5c-0.2,-0.3,-0.4,-0.5,-0.6,-0.8c-0.3,-0.3,-0.1,-0.6,0.2,-0.8c0,0,0,-0.1,0,-0.1c-0.1,-0.3,0.5,-0.5,0.6,-0.2c0.1,0.2,0.1,0.3,0.1,0.4c1.2,1,2.1,2.3,2.9,3.5c0.1,-0.2,0.2,-0.3,0.4,-0.3c-0.2,-0.4,-0.5,-0.6,-0.6,-1l0,-0.1c-0.1,0,-0.1,0,-0.1,-0.1c0,0,0.1,0,0.1,0.1c0.7,-1.2,1.4,-1.5,1.9,-0.9c0.1,0.1,0.2,0.2,0.3,0.3c0.2,0.2,0.3,0.5,0.5,0.8c0.1,0.3,0.3,0.6,0.4,0.9c0,0.1,0.1,0.5,0.1,0.5c0.1,0.5,0.4,0.8,0.4,1.3c0,0.1,-0.1,0.2,-0.1,0.3c0.3,-0.2,0.5,-0.4,0.7,-0.5c1,-0.5,2.8,-1.8,2.8,-1.8c0,0,0.5,0.4,1,-0.5c0.5,-0.9,2.3,-3.4,2,-4.3c-0.2,0.1,-0.4,0.1,-0.6,0.2c-0.1,0,-0.1,-0.1,-0.1,-0.2c0.6,-0.5,1.3,-0.8,2.1,-1c0.2,-1,0.3,-2.1,0.6,-3.1c-0.4,-1.3,-0.3,-2.8,-0.2,-4.1c0,-0.1,0.1,-0.1,0.1,0c0.1,0.9,0.1,1.8,0.2,2.6c0,-0.5,0.1,-1.1,0.2,-1.6c0.1,-0.5,0.2,-1.1,0.3,-1.6c0,-0.1,0.1,-0.1,0.1,0c0,0.2,0,0.5,0,0.7c0.1,-0.2,0.2,-0.4,0.3,-0.7l0,0.1c-0.1,0.4,-0.2,1,-0.2,1.5c0.1,-0.6,0.3,-1.1,0.5,-1.7c0,0,0.1,0,0.1,0.1c-0.2,0.7,-0.3,1.4,-0.4,2.2c0,0.5,-0.1,1,-0.1,1.5c1.1,1.1,2.1,2.3,3.1,3.5c0.2,0,0.4,0,0.5,0c0.6,0,0.5,0.8,0,0.8c-0.1,0,-0.1,0,-0.2,0c-0.4,0.9,-1.6,3.2,-2.9,5.2c0.2,2.4,0.1,4.9,0.6,7.3c0.1,0,0.1,0.1,0.2,0.1c0.5,0.5,0.7,1,1.4,1.2c0.3,0.1,0.6,0.1,0.9,0.1c1.3,-1.1,3.1,0.7,2.8,2.1c0,0,0.1,0.1,0.1,0.1c0.2,0.4,0.4,0.8,0.6,1.2c0.3,-0.1,0.5,0.1,0.7,0.2c0.5,0,0.7,1,0.9,1.3c0.2,0.3,0.5,0.5,0.8,0.7c0,0.1,0.4,0.3,0.5,0.3c0,0,0.1,-0.2,0.1,-0.2c0.1,-0.2,0.2,-0.3,0.2,-0.5c0,-0.2,0.3,-0.4,0.5,-0.4c-0.3,-0.1,-0.5,-0.4,-0.6,-0.7c-0.3,-1.5,1.5,-3.1,2.8,-3.6c1.8,-0.8,3.6,0.3,3.5,2.3c0,0.1,0,0.3,-0.1,0.5c0,0,0.1,0,0.1,0c0,0.1,0.1,0.1,0.1,0.2c0.5,-0.6,1.2,-1.1,2,-0.8c0.2,0,0.4,0,0.6,0.1c0.8,0.3,1.4,1,1.7,1.7c0.1,0,0.3,0,0.3,0.2c0,0.1,0,0.2,0,0.2c0.1,0.1,0.2,0.1,0.3,0.2C385.9,81.1,386,81,386.1,81c0,-0.3,0.1,-0.5,0.3,-0.7c0.3,-0.4,0.5,-0.6,0.9,-0.9c0,0,0.1,0,0.1,-0.1c0.2,-0.2,0.4,-0.4,0.7,-0.5c0.3,-0.2,0.5,-0.2,0.7,-0.3c0.1,0,0.1,0,0.1,0c0.3,-0.8,0.9,-0.8,1.4,-0.4c0.2,0.1,0.3,0.3,0.5,0.3c0,0,0,0.1,0,0.1c0.9,0,1.2,1.7,0.1,1.9c0.2,0.4,0.5,0.8,0.7,1.3c0,-0.4,0.1,-0.7,0.1,-1c0,-0.2,0.2,-0.2,0.3,-0.2c0.5,-2.8,1.6,-5.7,2.8,-8.1c0.1,-0.3,0.5,-0.1,0.5,0.1c-0.4,2.6,-0.8,5.3,-1.4,7.8c0,0.1,0,0.2,-0.1,0.3c0,0.2,-0.1,0.3,-0.1,0.5c0,-0.1,0,-0.1,0,-0.1c0.4,-0.2,0.8,-0.3,1.2,-0.3c0.7,-0.1,1.3,0.5,1.7,1.1c0.3,-0.1,0.6,0,0.9,0.1c0.2,0,0.5,0,0.7,0.1c0.2,0.1,0.3,0.2,0.4,0.2c0.2,0,0.3,0,0.5,0c0,-0.2,0,-0.3,0,-0.5c0.1,0.1,0.2,0.3,0.2,0.4c0.3,0,0.5,0.1,0.6,0.3c0,-0.1,0,-0.2,0,-0.2c0,-0.5,0.6,-0.6,0.7,-0.2c0.5,0.9,1.2,1.9,2.1,2.4c0,-0.5,0,-1.1,-0.1,-1.6C402.4,82.4,402.2,82,402,81.6c-0.1,-0.1,-0.1,-0.1,-0.1,-0.2c-0.2,-0.1,-0.5,-0.2,-0.6,-0.1c-0.5,0.1,-0.4,-0.9,0.1,-0.7c0.2,0.2,0.6,0.1,0.8,0.3c0,0,0,0.1,0,0.1c0.2,-0.1,0.4,-0.1,0.6,0.1c0.9,0.9,1.7,2.1,2.2,3.3c0.5,0.6,-0.6,1.5,-1.1,0.8c0,-0.1,-0.1,-0.2,-0.1,-0.3c-0.1,0.1,-0.1,0.1,-0.1,0.2c-0.3,0.5,-0.7,0.6,-1.1,0.5m0.5,-1.8c0,0.3,0,0.6,0.1,0.9c0.1,-0.1,0.1,-0.3,0.2,-0.4c-0.1,-0.2,-0.2,-0.3,-0.3,-0.5M320.4,62.7l-0.1,0c0,0.1,0,0.1,0,0.1l0.1,0l0,-0.1m0.5,-1.1c-0.1,0.1,-0.3,0.2,-0.4,0.3c0,0.2,-0.1,0.3,-0.1,0.5c0.1,-0.3,0.2,-0.5,0.3,-0.7c0.1,0,0.2,-0.1,0.2,-0.1m-9.5,3.7c0,0,-0.1,0,-0.1,0c0,0,0.1,0,0.1,0m3.4,2.1c-0.1,-0.1,-0.1,-0.1,-0.2,-0.2c0,0.1,0.1,0.2,0.1,0.2l0.1,0M315.3,66.4c0,0,0,-0.1,-0.1,-0.1c0.1,0,0.1,0.1,0.1,0.1m1.6,2.5c-0.2,-0.3,-0.4,-0.6,-0.6,-1c0.1,0.3,0.2,0.5,0.4,0.7c0,0.1,0.1,0.2,0.2,0.3m5,11.8c0,-0.1,-0.1,-0.2,-0.1,-0.4c-0.1,-0.1,-0.3,-0.2,-0.4,-0.4c-0.1,-0.3,-0.3,-0.6,-0.4,-0.8c0,0.1,0,0.2,0,0.3c0.2,0.5,0.5,0.9,0.9,1.3m0.9,0.6c0,0,0,-0.1,0,-0.1c-0.1,0,-0.1,0,-0.1,0c0,0.1,0.1,0.1,0.1,0.1m1.3,-15.1c0,-0.1,0,-0.2,0,-0.3c0,0,0,0.1,0,0.1c-0.1,0.1,-0.2,0.2,-0.3,0.3l0,0.1c0.1,-0.1,0.2,-0.2,0.3,-0.2M301.8,84.9c0,-0.1,-0.1,-0.2,-0.1,-0.2c0,0,0,0.1,0,0.1c0,0,0.1,0,0.1,0.1m0.8,4.2c-0.4,0,-0.9,0,-1.4,0c0.2,0,0.5,0.1,0.7,0.2c0,-0.1,0,-0.1,0.1,-0.1c0.2,-0.1,0.3,-0.1,0.6,-0.1m1.2,1.1l-0.1,0c0,0,-0.1,0,-0.1,0c0.1,0,0.1,0,0.2,0m1.1,-1.4c0,0,0,0.1,0,0.1l0,-0.1m1.6,-7.9c-0.1,0,-0.1,-0.1,-0.1,-0.2c-0.1,0.1,-0.1,0.3,-0.1,0.4c0,0,0.1,-0.1,0.2,-0.2m50.1,-5.3c0.1,0,0.1,0.1,0.1,0.1c0,-0.1,-0.1,-0.2,-0.1,-0.2c0,0,0,0.1,0,0.1m7.7,-7.2c0,-0.1,0,-0.3,0,-0.4c0,0,-0.1,0,-0.1,0c0,0.2,0.1,0.3,0.1,0.4M324.5,99.9c0,-0.1,0,-0.1,0.1,-0.1c-0.1,0,-0.1,0,-0.1,0c0,0,0,0.1,0,0.1m23.2,-5c0.1,-0.1,0.3,-0.1,0.4,-0.1c0,-0.1,0,-0.1,0,-0.1C348,94.6,348,94.6,348,94.6c-0.1,0.1,-0.2,0.2,-0.3,0.3M369,77.9c0,0,0.1,-0.1,0.2,-0.2l-0.1,0c0,0.1,0,0.1,-0.1,0.2M363.9,59.5c0.1,0.7,0.1,1.4,0.2,2.1c0.9,-0.2,1.9,-0.2,2.8,-0.2c-1,-1.1,-1.8,-2.3,-2.7,-3.4c0,0.4,-0.1,0.9,-0.2,1.3c0,0.1,0,0.1,-0.1,0.2m-0.4,-1.9c0,0.2,0,0.4,0,0.5c0,0,0,-0.1,0.1,-0.2c0,0,-0.1,-0.1,-0.1,-0.2l0,-0.1m-0.6,4.3c0.3,-0.1,0.5,-0.1,0.8,-0.2c-0.1,-0.7,-0.1,-1.4,-0.1,-2.1c0,0,-0.1,0,-0.1,-0.1c0,0,0,-0.1,0,-0.1c-0.2,0.8,-0.3,1.7,-0.6,2.5m-6.6,12c0.1,0.3,0.2,0.7,0.3,1c0,-0.2,0,-0.5,0,-0.7c0.1,-0.4,0.7,-0.6,0.9,-0.2c0.2,0.6,0.5,1.5,0.1,2.2c0.3,0.1,0.5,0.3,0.8,0.4c0.7,0.4,1.1,-0.2,1.4,-0.7c-1,-0.4,-1.6,-1.7,-0.6,-2.3c0.5,-0.3,1,-0.4,1.4,-0.2c0.4,-0.2,0.8,-0.4,1.2,-0.2c0.1,0.1,0.2,0.2,0.2,0.3c0.4,0.1,0.6,0.3,0.9,0.5c0.3,0.2,0.6,0.5,0.8,1c0.1,-0.2,0.3,-0.3,0.5,-0.4c-0.1,-1.6,-0.1,-3.2,-0.3,-4.8c0,-0.4,-0.1,-0.8,-0.1,-1.2c-0.5,0.6,-0.9,1.1,-1.4,1.4c0,0,-1.2,-0.5,-1.7,0.1c-0.4,0.5,-1.3,2.6,-1.7,2.8c-0.3,0.1,-1.5,0.4,-2.7,1M350,68.7c0.1,0.1,0.1,0.3,0.2,0.4l0.1,0C350.2,69,350.1,68.8,350,68.7m-5.8,-0.1c0,0.2,0.1,0.4,0.2,0.6c0,-0.1,0.1,-0.1,0.1,-0.1c-0.1,-0.2,-0.2,-0.3,-0.3,-0.5M330.7,73.6c0.1,0.2,0.1,0.3,0.2,0.5c0.2,0.5,0.6,1.4,0.9,2.3c0.2,-1,0.5,-2,0.9,-3c0.1,-0.3,0.2,-0.6,0.3,-0.8c0.4,-1,0.8,-1.9,1.4,-2.7c0,-0.2,0,-0.4,0,-0.6c0,0,0,-0.1,-0.1,-0.1l-0.1,0c-0.4,0.5,-0.8,1,-1.1,1.5c-0.3,1,-0.8,2.1,-1.5,2.8c-0.2,0.2,-0.6,0.2,-0.9,0.1m-3.6,-3.5l0.1,0c0,0,-0.1,0,-0.1,-0.1c0,0.1,0,0.1,0,0.1M326.7,69c0.1,0.1,0.2,0.3,0.3,0.4c-0.1,-0.1,-0.1,-0.3,-0.2,-0.4c-0.1,0,-0.1,0,-0.1,0m-0.4,14.4c0.2,0.1,0.3,0.3,0.4,0.5c0.1,-0.2,0.2,-0.4,0.3,-0.6c-0.2,0.1,-0.5,0.1,-0.7,0.1M325.2,69c0.1,0.1,0.1,0.2,0.1,0.3c0.1,0,0.1,0,0.2,0c-0.1,-0.1,-0.2,-0.2,-0.3,-0.3m-0.6,11.2c0,-0.1,0.1,-0.3,0.1,-0.4c0,0,-0.1,-0.1,-0.1,-0.1c0,0.2,0,0.3,0,0.5M316.6,94.3c0,0.1,0.1,0.1,0.1,0.1c0,-0.1,0,-0.2,0.1,-0.3c0.1,-0.1,0.2,-0.3,0.4,-0.5l0,-0.1c0,0.1,-0.1,0.1,-0.1,0.2c-0.1,0.1,-0.3,0.4,-0.5,0.6m-0.5,-0.7c0.1,0.1,0.1,0.1,0.1,0.1l0.1,-0.1c-0.1,0,-0.1,0,-0.2,0m-1.9,-8.3c0,0,0,0.1,0.1,0.1l0,0.1c0,-0.1,0,-0.1,0,-0.1c0,0,-0.1,-0.1,-0.1,-0.1m-2.1,12.9c0.1,0.3,0.2,0.7,0.3,1.1c0.3,-0.1,0.5,-0.2,0.7,-0.2c0.5,-0.3,0.9,-0.4,1.4,-0.5c0.9,-0.3,1.9,-0.6,2.8,-0.9c-0.4,-0.7,-0.7,-1.4,-1.1,-2c-0.2,-0.3,-0.3,-0.6,-0.5,-0.9c-0.1,0,-0.1,0,-0.2,0c-0.1,-0.1,-0.1,-0.2,0,-0.3c-0.1,-0.1,-0.1,-0.2,-0.2,-0.4c-0.2,0.3,-0.4,0.5,-0.7,0.7c-0.2,0.2,-0.5,0.4,-0.7,0.6c-0.1,0.1,-0.2,0.1,-0.2,0.1c-0.4,0.3,-0.7,0.5,-1.1,0.8c0,0.1,0,0.2,-0.1,0.3c0,0,0.1,0.1,0.1,0.1c0,0.1,0,0.2,0,0.4l0,0.1c0.1,0.1,0,0.2,-0.1,0.3c-0.1,0.2,-0.2,0.4,-0.2,0.5c-0.1,0.1,-0.2,0.2,-0.2,0.2m78,-14.9C390,83.2,390,83.1,390,83c0,0,0,0.1,0,0.2c0,0,0,0.1,0,0.1l0.1,0m1.1,-0.4c-0.2,-0.1,-0.3,-0.3,-0.4,-0.4c0,0.2,0.1,0.3,0.1,0.5c0.1,0,0.2,-0.1,0.3,-0.1M395.8,82c-0.1,0,-0.1,-0.1,-0.2,-0.1c0,0,0,0.1,0,0.1c0.1,0,0.1,0,0.2,0m5.9,2.4c-0.5,-0.4,-0.9,-0.9,-1.3,-1.5c-0.1,0.1,-0.3,0.2,-0.3,0C400,82.8,400,82.8,400,82.8c0,0,0,0.1,-0.1,0.1c0,0.1,-0.1,0.3,-0.1,0.4l0.1,0c-0.1,0,-0.1,0,-0.1,0c0,0.1,0.1,0.2,0.1,0.3c0,0.1,-0.1,0.2,-0.1,0.3c-0.1,0.3,-0.3,0.6,-0.7,0.7c0.7,0.2,1.3,0.4,1.9,0.7c0.2,-0.1,0.3,-0.2,0.5,-0.3c-0.5,-0.1,-1,-0.4,-1.5,-0.7c-0.2,-0.1,-0.2,-0.5,0.1,-0.5c0.4,0,0.7,0.1,1,0.3c0.2,0.1,0.4,0.2,0.6,0.3Z" class="g6_2" />
<path d="M233.1,59.1c0,0,0,0.1,0,0.1c0,0,0,0.1,0,0.1c-0.4,0.3,-0.2,1,0.1,1.3c0,0.1,0.1,0.1,0.2,0.1c-0.1,0,-0.1,0,-0.1,0.1c-0.2,0.1,-0.3,0.3,-0.5,0.5c-0.2,0,-0.3,0.1,-0.4,0.2c-0.1,0.1,0,0.2,0.1,0.2l0.1,0c-0.1,0.2,0.1,0.7,0.2,0.9c0.1,0.3,0.1,0.8,0.4,1c0,0.1,0,0.1,0.1,0.1c0,0.2,0.1,0.4,0.2,0.6c0,0,0.1,0,0,0c0,-0.2,-0.1,-0.3,-0.1,-0.5c0,0.1,0,0.1,0.1,0c0,0.1,0,0.1,0,0.1c0,0.1,0,0.2,0,0.3c0,0,0.1,0,0.1,0c0,-0.1,0.1,-0.2,0.1,-0.3c0,-0.1,0.1,-0.2,0.1,-0.3c0.1,0.2,0.2,0.4,0.3,0.6c0,0.1,0.1,0.1,0.1,0c0.1,-0.2,0.1,-0.4,0.1,-0.6c0,0.1,0.1,0.3,0.1,0.4c-0.1,0.1,0,0.2,0.1,0.1c0.2,-0.1,0.4,-0.3,0.3,-0.5c0,-0.1,0,-0.2,0,-0.3c0.1,0,0.2,0.1,0.3,0.1c0,0,-0.1,0,-0.1,0c0,0.1,0,0.1,0,0.2c0,0.1,0,0.1,0,0.2c0,0.1,0,0.1,0.1,0.2c0,0.1,0,0.1,0,0.1c0,0.1,0.1,0.1,0.2,0.1c0,-0.1,0.1,-0.1,0.1,-0.2c0.1,0,0.1,-0.1,0.1,-0.1c0,-0.1,0,-0.2,0,-0.2c0.1,0,0.1,0,0.1,0c0.1,0.1,0.2,0.1,0.3,0.2c-0.1,0.2,-0.1,0.5,0,0.7c0,0,0,0.1,0.1,0.1c0,0.2,0,0.4,0.1,0.6c-0.1,0.1,-0.2,0.2,-0.3,0.4c-0.2,0.2,-0.3,0.3,-0.5,0.4c0,-0.2,-0.3,-0.2,-0.3,0c0,0,0,0.1,0,0.1c0,0,-0.1,0.1,-0.1,0.1c0,-0.1,0,-0.2,0,-0.3c0,-0.1,-0.2,-0.2,-0.2,0c-0.1,0.1,-0.1,0.3,-0.1,0.4l0,-0.1c0,-0.1,-0.1,-0.1,-0.2,-0.1c0,0,0,-0.1,0,-0.1c-0.1,-0.1,-0.2,-0.1,-0.3,0c0,0.5,0.1,0.9,0.2,1.3c0.1,0.3,0.2,0.6,0.5,0.8c0.1,0,0.1,0,0.1,0c0,0,0.1,0,0.1,0c0.3,-0.3,0.6,-0.5,0.9,-0.7c1.1,-0.3,2.2,-0.5,3.4,-0.3c0.6,0,1.3,0.2,1.9,0.4c0.1,0,0.2,0,0.2,0.1c0.2,0.2,0.3,0.5,0.5,0.7c0,1,0,2.1,-0.2,3.1c-0.1,0.1,-0.2,0.3,-0.4,0.6c0,0,0,-0.1,0,-0.1c0.1,-0.4,0.1,-0.8,0,-1.2c-0.1,-0.1,-0.2,-0.1,-0.2,0c0,0.1,-0.1,0.1,-0.1,0.1c0,0.1,0,0.1,0,0.1c0,0,0,0.1,0,0.1c-0.2,1,-0.7,1.8,-1.3,2.6c-0.3,0.5,-0.7,1,-0.8,1.6c0,0.1,-0.1,0.2,-0.2,0.3c0,0.1,0.1,0.1,0.1,0.1c0.1,-0.1,0.2,-0.1,0.2,-0.2c0.1,0.1,0.3,0.1,0.3,0c0.2,-0.1,0.4,-0.3,0.5,-0.6c0.2,-0.1,0.3,-0.2,0.5,-0.3c0.1,0.1,0.3,0.2,0.4,0c0.2,-0.1,0.4,-0.4,0.6,-0.6c-0.6,1.2,-1.3,2.3,-2.1,3.3c-0.1,0.1,0,0.1,0,0.1c1,-0.8,1.8,-1.8,2.3,-2.9c0,0.1,0,0.1,0,0.2c0,0.1,0,0.1,0,0.1c-0.1,0.1,-0.2,0.2,-0.2,0.4c-0.4,0.7,-0.9,1.3,-1.5,1.9c-0.1,0.1,0,0.1,0.1,0.1c0.4,-0.3,0.8,-0.6,1.1,-1c-0.1,0.2,-0.2,0.4,-0.4,0.6c0,0.1,0.1,0.1,0.2,0.1c0.6,-0.6,1.1,-1.2,1.5,-1.9c0.1,0,0.3,-0.1,0.3,-0.2c0,-0.1,0.1,-0.3,0.1,-0.4c0.1,0.4,0.3,0.9,0.6,1.3c-0.1,0.1,-0.1,0.1,-0.1,0.2c0.2,0.7,0.6,1.3,1.1,1.8c0.1,0.8,0,1.6,0,2.4c-0.8,1.9,-0.7,4,-1.1,6C243.1,86,243,85.9,242.8,85.9c0,-0.1,-0.1,-0.1,-0.1,-0.1c-0.1,-0.1,-0.3,-0.1,-0.4,0c-0.1,0,-0.3,0,-0.4,0c-0.1,0,-0.1,0.2,0,0.3c0,0,0.1,0.1,0.2,0.1c0,0.1,0,0.2,0,0.3C242,86.4,242,86.3,242,86.2c0,0,-0.1,-0.1,-0.2,0c0,-0.3,-0.1,-0.5,-0.2,-0.7c-0.1,0.4,-0.1,0.7,-0.1,1.1c-0.2,1.5,-0.2,3.1,-0.4,4.6c-0.1,0.4,-0.3,0.8,-0.4,1.2c-0.5,-0.1,-1.2,0,-1.7,0.2c0,0,-0.1,0,-0.1,0.1c-0.4,-0.1,-0.8,-0.1,-1.1,-0.1c-0.1,0,-0.2,0,-0.2,0c-0.3,0,-0.7,0.1,-0.9,0.3c-0.1,0.2,-0.2,0.3,-0.2,0.5c0,0.1,0,0.1,0,0.2c0,0,-0.1,0.1,-0.1,0.2c0,0.1,0.2,0.2,0.2,0.1c0.1,-0.2,0.2,-0.3,0.4,-0.5c0,0,0.1,0,0.1,-0.1c0.2,0,0.3,0,0.5,0c0.2,0,0.4,0.1,0.7,0.2c-0.2,0.1,-0.3,0.3,-0.4,0.5c0,0.3,0,0.4,0.2,0.6c0.1,0.1,0.2,0.1,0.2,0c0.1,-0.1,0.3,-0.4,0.4,-0.5c0.6,0.1,1.1,0.3,1.7,0.3c0,0,-0.1,0.1,-0.2,0.2c-0.4,0.4,-0.8,0.8,-1.1,1.3c-0.2,0.1,0,0.3,0.1,0.2c0.6,-0.3,1.2,-0.6,1.7,-1c0.2,-0.1,0.3,-0.2,0.5,-0.3c0.2,0,0.3,0,0.4,-0.1c0.1,0,0.2,0,0.4,0c0.1,-0.1,0.2,-0.1,0.2,-0.1c0.1,0,0.2,0,0.2,0.1c0,0,0.1,0,0.2,0c0.1,0.1,0.2,0.1,0.4,0.1c0.2,0.1,0.3,-0.3,0.1,-0.4c0.1,0,0.1,0,0.1,0c0.1,0,0.1,-0.1,0.1,-0.1c0.1,0,0.1,-0.1,0.1,-0.1c0.1,-0.1,0.1,-0.3,0,-0.4l0,-0.1c0.2,-0.4,0.2,-0.8,0.3,-1.2c0.3,-0.2,0.5,-0.5,0.6,-0.9c0.8,-0.3,1.6,-1.6,1.2,-2.5c0.1,0,0.1,-0.1,0.2,-0.1c0.1,-0.1,0.2,-0.1,0.3,-0.1c0.2,-0.1,0.3,-0.3,0.3,-0.5c0.1,0,0.1,-0.1,0.2,-0.1c0.1,-0.1,0,-0.4,-0.2,-0.3c0,0,0,-0.1,0,-0.1c-0.5,-0.5,-1.2,-0.8,-1.9,-1.2c0.1,0,0.1,-0.1,0.2,-0.1l0,0.1c0,-0.2,0.1,-0.5,0.3,-0.6c0.4,-0.2,0.8,-0.3,0.9,-0.7c0.1,-0.2,0,-0.3,-0.1,-0.4c-0.2,0,-0.3,0,-0.4,0c0,-0.3,0,-0.5,0,-0.8c0.1,0,0.1,-0.1,0.1,-0.1c0,-0.2,0,-0.4,0.1,-0.6c0.1,-0.6,0.3,-1.2,0.4,-1.7c0.2,-0.5,0.4,-1,0.6,-1.5c0.8,0.7,1.8,1.4,2.8,1.9c0.7,0.7,1.3,1.3,2.2,1.5c0.4,0.4,0.8,0.7,1.2,0.7c0.1,0,0.1,-0.1,0.1,-0.1c-0.2,-0.1,-0.3,-0.2,-0.4,-0.3c0.1,0,0.2,0.1,0.3,0.2c0.2,0.1,0.4,0.2,0.5,0.4c0.5,0.8,1,1.7,1.3,2.6c0.2,0.4,0.7,0.1,0.6,-0.2c-0.2,-0.6,-0.4,-1.2,-0.7,-1.7c0.8,0.4,1.6,0.7,2.3,0.7c0.1,0.3,0.2,0.5,0.3,0.8c0.1,0,0.1,0.1,0.1,0.1C257.1,88,256.8,89,256.6,90c-0.2,0.8,-0.4,1.6,-0.2,2.3c0,0.1,0.1,0.1,0.1,0c0.1,-0.2,0.2,-0.4,0.3,-0.6c0,0.2,-0.1,0.4,-0.2,0.6c-0.1,0.4,-0.3,0.8,-0.5,1.1c-0.1,0.1,-0.1,0.2,0,0.3c-1.5,1.6,-3.4,2.9,-5.1,4.4c-0.1,0.1,0.1,0.3,0.2,0.2c2.2,-1.1,4.3,-2.4,6,-4.1c0,0,-0.1,0.1,-0.1,0.1c0,0.1,0,0.1,0,0.1c-1.3,1.2,-2.8,2.2,-4.2,3.3c-0.1,0,-0.1,0.1,0,0.1c-0.6,0.4,-1.3,0.7,-1.9,1.1c-0.1,0.1,0,0.3,0.1,0.2c2.1,-1.1,4.6,-1.8,6.6,-2.9c-0.1,0.2,-0.1,0.4,-0.1,0.5c-0.1,0.2,-0.2,0.4,-0.2,0.7c-0.1,0.1,0,0.1,0.1,0.1c0,0,0,0.1,0,0.1c-0.1,0.4,-0.2,0.9,-0.3,1.3c-0.2,0.5,-0.4,1,-0.6,1.6c-0.1,0,-0.1,0.1,-0.2,0.2c-0.3,0.7,-0.4,1.4,-0.5,2.2c-0.4,0.1,-0.6,0.4,-0.7,0.8c0,-0.2,-0.2,-0.2,-0.3,-0.1c-0.4,0.7,-0.1,1.6,0.2,2.3c0.1,0.3,0.5,0.3,0.6,0.1c0.1,0.1,0.2,0.2,0.2,0.3l-0.1,0c-0.4,0.1,-0.4,0.7,0,0.8c1.9,0.7,4.3,0.6,6.4,0.8c0,0.4,0,0.8,0,1.1c-0.2,0,-0.3,-0.1,-0.4,-0.1c-0.3,-0.1,-0.5,0.2,-0.3,0.4c0.2,0.3,0.5,0.5,0.8,0.7c-0.2,0,-0.4,0,-0.6,0c0,0,0,0.1,-0.1,0.1c-0.1,-0.1,-0.3,-0.2,-0.4,-0.2c-0.4,-0.2,-0.7,0.2,-0.4,0.4c0.4,0.3,0.9,0.5,1.3,0.6c0,0.1,0,0.1,0,0.1c0,0,0.1,0.1,0.1,0.2c0.1,0.1,0.2,0.1,0.2,0.1c0,0.1,0.1,0.1,0.1,0.1c0,0,0.1,0,0.1,0.1c0,0,0,0.1,0,0.2c1.8,1.4,4.1,2.2,6.2,3c1.8,0.7,3.6,1.5,5.5,2c0,0.1,0.1,0.1,0.2,0.2c0.3,0.3,0.8,0.7,1.3,0.8c0,0,0,0.1,0.1,0.1c0,0,0.1,0.1,0.1,0.1c0.1,0,0.2,0,0.2,0c0,0,0.1,0,0.1,0c0,-0.1,0.1,-0.2,0,-0.3c-0.1,-0.3,-0.4,-0.7,-0.7,-0.8c-0.1,-0.1,-0.1,-0.1,-0.1,-0.1c0,-0.1,0,-0.1,0,-0.1c-0.1,-0.6,-0.8,-0.9,-1.3,-1.1c-0.5,-0.3,-1,-0.5,-1.4,-0.8c-1.3,-0.9,-2.7,-1.7,-4,-2.4c-0.7,-0.3,-1.4,-0.8,-2.1,-1.3c0.1,-0.1,0,-0.1,0,-0.2c-0.3,-0.5,-0.8,-0.8,-1.2,-1.2c-0.4,-0.2,-0.6,-0.6,-1,-0.9c0,0,0.1,-0.1,0.1,-0.1c0,-0.1,0,-0.1,0,-0.1c0,-0.1,0.1,-0.2,0.1,-0.2c0.5,0,1,0.1,1.5,0.2c0,0.1,0.1,0.1,0.2,0.2c0.6,0.1,1.3,0.1,1.9,0c0.2,0.1,0.4,0.1,0.6,0.1c0.4,0.4,1,0.7,1.4,1c0.7,0.4,1.3,0.9,1.9,1.6c0,0.1,0.1,0.1,0.2,0.1c0,0.1,0.1,0.2,0.2,0.3c0.3,0.3,0.7,0.5,1,0.8c0.1,0.1,0.3,-0.1,0.2,-0.3c-0.1,-0.2,-0.3,-0.4,-0.5,-0.6c-0.6,-0.5,-0.7,-1.2,-1,-1.8c-0.1,-0.2,-0.2,-0.3,-0.2,-0.4c0.1,0.1,0.3,0.3,0.4,0.4c0.2,0.5,0.5,0.9,0.8,1.3c0.4,0.4,0.9,0.6,1.4,0.8c-0.1,0.1,0,0.3,0.1,0.3c0.3,0,0.3,0,0.6,-0.1c0.3,0,0.3,-0.4,0,-0.5c-0.7,0,-1.1,-0.5,-1.6,-0.9c-0.5,-0.5,-0.9,-1,-1.2,-1.6c-0.1,-0.1,-0.1,-0.1,-0.2,-0.1c-0.1,-0.2,-0.2,-0.4,-0.3,-0.6c-0.2,-0.3,-0.4,-0.7,-0.6,-0.9c0.5,-0.3,0,-1.1,-0.5,-0.8c-0.3,0.2,-0.5,0.4,-0.7,0.7c0,0,0,0.1,0,0.1c-0.7,0.1,-1.3,0.2,-2,0.2c-0.1,0,-0.3,0,-0.4,0c-0.2,-0.1,-0.4,-0.2,-0.6,-0.2c0,-0.1,-0.1,-0.2,-0.2,-0.2c-0.5,-0.2,-1.1,-0.3,-1.7,-0.5c0.6,-1.2,1.1,-2.5,1.7,-3.7c0.1,-0.3,0.2,-0.5,0.4,-0.8c0.6,-0.9,1.1,-1.9,1.2,-2.8c0.3,0.1,0.6,0.1,0.9,0.2c0.2,0.1,0.3,0.2,0.5,0.4c0.1,0.1,0.1,0.1,0.2,0.1c0.2,0.2,0.5,0.5,0.7,0.7c0,0.1,-0.1,0.1,-0.1,0.1c-0.1,0.2,0,0.5,0.3,0.5c-0.1,0,-0.1,0,-0.1,0c-0.3,0.4,0.3,1,0.7,0.6c0,-0.2,0.2,-0.3,0.3,-0.3l0,0.1c0,0.1,0.1,0.1,0.1,0c0,-0.1,0,-0.2,0,-0.3c0.1,0,0.2,-0.1,0.3,-0.1c0.1,0,0.1,0,0.1,0c0,0.1,0.1,0.1,0.2,0c0,0,0,-0.1,0,-0.1c0.2,-0.1,0.2,-0.4,0.1,-0.6c0,-0.2,0,-0.4,0,-0.6c0.1,-0.1,0.1,-0.1,0.2,-0.1c0.1,0.4,0.2,0.8,0.3,1.2c0,0.1,0.1,0.1,0.1,0c0,-0.5,-0.1,-0.9,-0.2,-1.4c0.2,-0.1,0.3,-0.3,0.3,-0.5c0,-0.1,0,-0.1,0,-0.2c0,-0.4,-0.1,-0.9,-0.2,-1.3c0.4,-0.1,0.6,-0.4,0.7,-0.7C274.3,96.6,274,96,273.4,95.8c-0.1,0,-0.1,0,-0.2,0c0.1,-0.3,0,-0.6,0,-0.9c-0.1,-1.6,-0.1,-3.1,-0.8,-4.8c-0.1,-0.4,-0.3,-0.8,-0.5,-1.1c-0.3,-0.9,-0.6,-1.6,-1.1,-2.4c0.7,0.2,1.4,0.3,2.1,0.4c0.7,0.4,1.5,0.9,2.1,1.4c0.1,0.1,0.2,0.3,0.3,0.4c0.2,0.3,0.5,0.1,0.4,-0.2c0.1,0,0.2,-0.1,0.2,-0.2l0.1,0c0.4,0,0.5,-0.4,0.4,-0.7c0,0,0.1,0,0.1,-0.1c0.2,0,0.5,-0.1,0.8,-0.1c0,0,0.1,0.1,0.2,0.1c0,0,0,0.1,0,0.1c0.1,0,0.2,0,0.3,0c1.1,0.5,2.3,0.9,3.3,1.6c0.1,0.1,0.3,-0.1,0.3,-0.2c0.2,-0.1,0.3,-0.2,0.4,-0.3c0.1,-0.2,0.2,-0.4,0.3,-0.6c0.1,-0.1,0.3,-0.1,0.3,-0.1c1.1,-0.2,2.1,-0.3,3,-0.6c0.1,0.1,0.3,0.3,0.5,0.3c0,0,0.1,0,0.1,0.1c0.2,0.1,0.4,-0.1,0.2,-0.2l0,-0.1c0.3,0,0.5,-0.1,0.7,-0.2c0.8,0.2,1.6,0.4,2.4,0.6c0.1,0,0.2,-0.1,0.2,-0.2c0.2,-0.1,0.3,-0.3,0.3,-0.5c1,0.3,1.9,0.8,2.8,1.2c0.1,0.1,0.2,-0.1,0.1,-0.1c-1.5,-0.9,-3,-1.7,-4.6,-2.4C288,85.9,288,85.9,287.9,85.9l-0.1,0c-1.3,-0.6,-2.6,-1.1,-4,-1.5c0.3,0,0.6,0.1,0.8,0.1c1.4,0.1,2.8,0.4,4.2,0.4c0.1,0,0.2,-0.2,0.1,-0.2C288,84.3,287,84,286,83.8l0.1,0c0.1,-0.1,0,-0.3,-0.1,-0.3c-1.3,0,-2.5,-0.1,-3.7,-0.2c-0.1,-0.1,-0.2,-0.1,-0.3,-0.1c-0.1,-0.1,-0.1,-0.2,-0.3,-0.3c-1.2,-0.7,-2.3,-1.5,-3.6,-2.1c0.5,0,1,0,1.4,-0.1c0,0,0.1,0,0.1,0c1.8,-0.2,3.5,-0.6,5.1,-1.1c0.1,-0.1,0.1,-0.2,0,-0.2c-0.1,0,-0.2,0,-0.3,0c-0.9,0.2,-1.7,0.3,-2.5,0.4c0.2,-0.1,0.3,-0.2,0.5,-0.3c0.3,0,0.6,0,0.9,0c0.1,0,0.2,-0.1,0.2,-0.2c0.1,0,0.2,0,0.2,-0.1c0,0.1,0.1,0.1,0.1,0.1c0.2,0,0.5,0,0.7,-0.1c0.1,0,0.1,-0.2,0,-0.2c-0.4,0,-0.7,0,-1.1,0.1C283.4,79,283.3,79,283.3,79c-0.2,-0.1,-0.3,-0.1,-0.5,-0.2c0,-0.1,-0.1,-0.2,-0.3,-0.2c-0.1,0,-0.1,0,-0.1,0c0,0,-0.1,0,-0.1,0c0,0,-0.1,0.1,-0.3,0.1c-1.1,-0.5,-2.3,-0.7,-3.5,-0.9c-0.9,-0.4,-1.8,-0.7,-2.6,-1c-0.1,-0.1,-0.1,0,-0.2,0c-0.1,-0.1,-0.2,-0.2,-0.3,-0.2c-0.4,-0.3,-0.9,-0.5,-1.3,-0.7c2.4,0.4,4.9,0.5,7.3,-0.5c0.1,-0.1,0,-0.2,-0.1,-0.2c-2,0.2,-3.9,0.2,-5.8,-0.1c1.8,0.2,3.7,0.1,5.1,-0.7c0,-0.1,0,-0.1,0,-0.1c-1.5,0.7,-3.3,0.1,-4.8,-0.1c-2.1,-0.3,-4.1,-0.8,-6.1,-1.5c-3.1,-1.2,-5.9,-3.5,-9.3,-3.3c-0.3,0.1,-0.4,0.2,-0.4,0.4c-0.2,0,-0.3,-0.1,-0.4,-0.1c0,-0.1,0,-0.1,0,-0.1c-0.1,0,-0.1,0,-0.1,0c-0.1,-0.1,-0.2,-0.1,-0.2,-0.2c-0.6,-0.5,-1.1,-1,-1.5,-1.6c0.6,0,1.2,0,1.8,-0.2c0.2,0.1,0.4,0.2,0.6,0.2c0.3,0.1,0.5,0.1,0.8,0.1c0,0.2,0.2,0.4,0.4,0.5c0.2,0.2,0.8,0.3,0.9,-0.2c0,0,0.1,0,0.1,0c0.3,0,0.6,0,0.9,-0.1c0.3,0,0.6,0,0.9,-0.1c0.2,-0.1,0.5,-0.1,0.8,-0.2c0.1,0.1,0.2,0,0.3,-0.1l0.1,0c0.2,0,0.1,-0.4,-0.1,-0.4l-0.1,0c0,-0.1,0,-0.1,0,-0.2c0.1,0,0.2,-0.1,0.2,-0.2c0.1,-0.1,0.1,-0.2,0.2,-0.3c0,0,0,0.1,0,0.1c0.4,0.7,1,0.9,1.7,0.6c0.2,-0.2,0.3,-0.4,0.3,-0.6c0.3,0,0.5,-0.1,0.6,-0.2c0.2,-0.2,0.4,-0.4,0.4,-0.7c0.1,-0.4,0.2,-0.6,0.5,-0.8c0,0,0.1,0.1,0.1,0.1l0.1,0.1c-0.1,0.1,-0.1,0.2,-0.2,0.3c-0.1,0.2,0.1,0.5,0.4,0.5c0.6,0,1.1,-0.3,1.6,-0.6c0.3,-0.1,0,-0.6,-0.3,-0.5c-0.2,0.2,-0.4,0.3,-0.6,0.3c0.1,-0.1,0.2,-0.2,0.3,-0.3c0,-0.1,0,-0.1,0,-0.1c0.1,0.1,0.4,0.2,0.5,0c0,0,0.1,-0.1,0.1,-0.1c0.1,0.1,0.2,0.2,0.4,0.2c0.3,0.1,0.7,0,0.8,-0.3c0.1,-0.4,0,-0.9,-0.1,-1.3c0.3,0,0.5,-0.1,0.7,-0.2l0.1,0c0,0,0.1,0,0.1,0C273.2,63,273.3,63,273.4,63c0.1,-0.1,0.2,-0.2,0.2,-0.4c0.3,0.1,0.6,0.2,0.9,0.2l0.1,0c0.2,0.1,0.4,0.1,0.5,-0.1c0,0,0,0.1,0.1,0.1c0.2,0.2,0.5,-0.1,0.4,-0.3c0.1,0,0.1,0,0.1,0c0.2,0.1,0.3,-0.1,0.3,-0.2c0.1,-0.3,-0.1,-0.5,-0.3,-0.6c-0.2,-0.1,-0.4,0.1,-0.3,0.3l-0.1,0c-0.1,0,-0.1,0.1,-0.1,0.1C275.1,62,275.1,62,274.9,61.9c0,0,-0.1,0,-0.1,0c0,0,-0.1,0,-0.1,-0.1c0,0,-0.1,0,-0.2,0l-0.1,0c-0.5,-0.1,-1,-0.3,-1.5,-0.5c1.8,-2.6,14.5,-20.8,17.8,-26.1c0,0,0.6,-1.7,0.5,-2c0,-0.2,-0.7,0.5,-0.7,0.5L270.9,60.5l0.1,0c-0.2,-0.1,-0.4,-0.1,-0.6,-0.2c0,-0.2,-0.1,-0.5,-0.2,-0.6c-0.2,-0.1,-0.3,0,-0.4,0c-0.2,-0.2,-0.4,-0.3,-0.6,-0.2c-0.1,0.1,-0.2,0.2,-0.3,0.2c-0.2,0,-0.3,0.1,-0.4,0.2c-0.8,0,-0.9,1.1,-0.1,1.3c0.1,0,0.1,0,0.2,0c-0.1,0.5,-0.3,0.9,-0.5,1.3C268,62.6,268,62.6,268,62.6c0,0,-0.1,0,-0.1,0c0.1,-0.3,0.3,-0.6,0.4,-0.9c0.1,-0.2,-0.2,-0.2,-0.3,-0.1c-0.1,0.2,-0.3,0.5,-0.6,0.7c0,-0.1,0.1,-0.1,0,-0.2c0,-0.5,-0.7,-0.6,-0.9,-0.2c-0.2,0.4,-0.4,0.7,-0.6,1.1c-0.1,-0.2,-0.2,-0.2,-0.3,-0.1c-0.1,0.2,-0.2,0.4,-0.3,0.6c-0.1,0,-0.1,0,-0.1,0c-0.1,-0.2,-0.3,-0.4,-0.5,-0.3c-1,0.1,-2,0.3,-3,0.4c-0.4,0.1,-0.5,0.6,-0.2,0.7c0,0.1,0,0.1,0,0.2c0,0,0,0.1,0,0.2c-0.1,-0.2,-0.3,-0.3,-0.5,-0.2c-0.1,0,-0.1,0,-0.2,0c0,0,-0.1,0,-0.1,0c0,0,-0.1,0,-0.1,0.1c0,-0.1,0,-0.2,-0.1,-0.2c-1.1,-0.2,-2.1,-0.2,-3.2,-0.2c0.2,-0.1,0.2,-0.4,0,-0.6C257,63.3,256.5,63,256,62.8c0.2,0,0.3,0,0.4,0c0.4,0.1,0.5,-0.4,0.3,-0.6c0,-0.1,0,-0.2,-0.1,-0.2c-1.7,-0.9,-3.8,-0.1,-5.5,0.1c-0.1,0,-0.2,0.1,-0.3,0.1c-0.3,0.1,-0.6,0.2,-0.8,0.4c-0.1,0,-0.2,0.1,-0.3,0.1c0.2,-0.2,0.5,-0.4,0.8,-0.6c0.8,-0.3,1.6,-0.6,2.5,-0.7c1,-0.1,2.4,0.1,3.1,-0.5c0.1,0,0.1,-0.1,0,-0.1c0.1,0,0.2,0,0.2,-0.1c0.1,0,0.1,-0.1,0,-0.1C255,60.5,253.6,60,252.3,60c0,0,0,-0.1,-0.1,-0.1c0,0,0,-0.1,0,-0.1c-0.5,-1.1,-2.5,-0.4,-3.3,0c-0.8,0.5,-1.4,1.2,-1.8,2c0,0,-0.1,-0.1,-0.1,-0.1c-0.1,-0.1,-0.3,-0.1,-0.4,-0.1c-0.1,0.1,-0.2,0.1,-0.3,0.2l0,-0.1c0.1,-0.1,0,-0.4,-0.1,-0.4c-0.1,-0.2,-0.3,-0.2,-0.4,-0.1c0,0.1,0,0.1,0,0.2c-0.7,0.4,-1.2,1.4,-1.6,2.1c-0.1,0,-0.2,0,-0.2,0.1c-0.1,0.1,-0.1,0.2,-0.1,0.3c-0.2,0,-0.3,0.1,-0.4,0.3c0,0.1,0,0.2,0,0.3c-0.1,0,-0.2,0,-0.2,0.1c-0.2,-0.1,-0.4,-0.2,-0.5,-0.2c0.1,-0.3,0.2,-0.5,0.4,-0.8c0.1,-0.2,-0.2,-0.4,-0.4,-0.3c-0.1,0.2,-0.3,0.4,-0.4,0.6c0,-0.2,0,-0.4,-0.1,-0.6c0.8,-0.6,1.3,-1.5,1.1,-2.7c0,-0.4,-0.2,-0.8,-0.3,-1.2c-0.2,-0.6,-0.4,-1.2,-0.7,-1.7c-0.1,0,-0.2,0,-0.1,0.1c0.1,0.1,0.1,0.3,0.2,0.5c-0.3,-0.4,-0.6,-0.7,-1,-1c0.1,0,0.2,0,0.3,0c0.1,0,0.1,-0.1,0,-0.2c-1.8,-0.6,-4.7,-1.4,-6.6,-0.7c-0.2,0.1,-0.3,0.1,-0.4,0.2c-0.1,0.1,-0.1,0.1,-0.1,0.1l0,0.1c-0.1,0,-0.1,0,-0.1,0l0,-0.1c0,-0.1,-0.1,-0.2,-0.2,-0.1c-0.3,0.5,-0.6,0.9,-0.9,1.3c-0.2,0.3,-0.5,0.6,-0.6,1c0,0.2,0.1,0.2,0.2,0.2m0.4,1.4l0.1,0c0,0.1,0,0.1,-0.1,0.1c0,0,0,-0.1,0,-0.1m22.6,45.3c0,0,-0.1,0,-0.1,-0.1c0.1,0,0.1,0,0.2,0c0,0.1,-0.1,0.1,-0.1,0.1m1.3,0.3c0,-0.1,0,-0.1,-0.1,-0.1c0.2,0,0.3,0.1,0.4,0.1c-0.1,0,-0.2,0,-0.2,0c0,0,-0.1,0,-0.1,0m26,-20.7c0.1,0.1,0.1,0.3,0.3,0.4c0.4,0.1,0.8,0.3,1.3,0.4c-0.1,0,-0.1,0.1,-0.1,0.1c-0.8,-0.3,-1.6,-0.6,-2.5,-0.8c0,-0.2,0,-0.3,-0.1,-0.4c0.4,0.1,0.8,0.2,1.1,0.3M241,72.9c0,0,0.1,0,0.1,-0.1c0,0.1,0,0.1,0,0.1l-0.1,0M234.3,57.8c-0.1,0.1,-0.1,0.2,-0.1,0.3c-0.1,0,-0.1,0,-0.1,0c0,0,0,-0.1,0,-0.1c0.1,-0.1,0.1,-0.1,0.2,-0.2M276.5,87c0,-0.1,0,-0.1,0,-0.1c0,0,0.1,0,0.1,0l0,0.1l-0.1,0M242.1,62.5c0,0,0,-0.1,0,-0.1c0,0,0,0.1,0,0.1m19.4,36c0.1,0,0.1,0,0.2,0c0.1,0.1,0.1,0.2,0.2,0.3c0.1,0.1,0.3,-0.1,0.2,-0.2c0,-0.1,-0.1,-0.1,-0.1,-0.2l0.1,0c0.1,0,0.1,0,0.2,0.1c0.2,0.1,0.4,0,0.6,-0.1c0.1,0,0.1,0,0.2,0c-0.5,0.2,-1.1,0.4,-1.6,0.6c0,-0.1,0,-0.3,0,-0.5m1.6,-0.6c0,-0.1,0,-0.1,0,-0.1c0.2,0,0.3,0.1,0.5,0.1c-0.2,0,-0.3,0,-0.5,0m7.8,-13.7l0,-0.1c0,0.1,0,0.1,0,0.1M239.2,61c0,-0.2,0,-0.3,-0.1,-0.4c0.1,0.1,0.1,0.1,0.1,0.1c0.1,0.1,0.1,0.1,0.1,0.2c0,0,-0.1,0,-0.1,0.1m-1.6,0.7c0,0,0,-0.1,0,-0.1c0,-0.1,0,-0.1,0,-0.1c0,0,0.1,0,0.1,-0.1c0,0.1,-0.1,0.2,-0.1,0.3m0.7,-2.5c0,0,0,-0.1,0,-0.2c0.1,0.3,0.1,0.5,0.2,0.7c0,0,0,-0.1,-0.1,-0.1c0,-0.1,-0.1,-0.2,-0.1,-0.4m-0.9,0.9l0.1,0c-0.1,0,-0.1,0,-0.1,0.1c0,-0.1,0,-0.1,-0.1,-0.1c0.1,0,0.1,0,0.1,0M263.9,79c0.1,0.2,0.2,0.3,0.3,0.5l-0.1,0c0,-0.2,-0.1,-0.3,-0.2,-0.5m3.6,14.6c0,0.1,0,0.2,0,0.3c0,-0.1,0,-0.2,0,-0.3M267.5,97.7l-0.1,0.1c0,-0.1,0,-0.1,0,-0.1c0,0,0.1,0,0.1,0m1,-10.9l0.1,0.1c0,0,-0.1,0,-0.1,0c0,-0.1,0,-0.1,0,-0.1M244,66.5c0.1,-0.1,0.1,-0.1,0.1,-0.2c0,0.1,0,0.1,0,0.2c0,0,-0.1,0,-0.1,0M241,65.9l0.1,0c-0.1,0,-0.1,0,-0.1,0M236.6,64c0,-0.1,0,-0.2,0,-0.3c0,0,0.1,0,0.1,-0.1c0,0.2,0.2,0.3,0.4,0.3c0,0,0,0.1,0,0.1L237,64c-0.1,-0.1,-0.3,-0.1,-0.4,0M238,63.8c-0.1,0,-0.1,0.1,-0.1,0.2c0,-0.1,0,-0.1,0,-0.2c0,0,0.1,0,0.1,0m10.4,-1.3c0,0,0.1,0,0.1,-0.1c0,0.1,-0.1,0.1,-0.1,0.2l0,-0.1M277,87c0,0,-0.1,0,-0.1,0c0.1,0,0.1,0,0.1,0m-20.1,17.4c0.1,-0.4,0.2,-0.7,0.3,-1.1c1.1,-1.5,2.4,-2.9,3.2,-4.5c0.2,0,0.4,-0.1,0.6,-0.1c0,0.2,0.1,0.4,0.1,0.6c0,0.2,0.3,0.3,0.4,0c0,0,0,0.1,0.1,0.1c0.5,0.1,1.1,-0.1,1.6,-0.2c0.8,-0.2,1.6,-0.4,2.3,-0.7l0.1,0.1c0,0.1,0.1,0.2,0.2,0.2c-0.4,1,-0.9,2,-1.3,3c-0.5,1.1,-1.1,2.2,-1.6,3.4c-0.1,0.3,-0.2,0.7,-0.3,1c-0.4,-0.1,-0.8,-0.2,-1.2,-0.4c-1.5,-0.5,-3,-1,-4.5,-1.4M240.4,65.5c-0.1,0,-0.2,-0.1,-0.2,-0.2c0.1,0.1,0.1,0.2,0.2,0.2m-0.5,-0.7c0,0,0,0.1,0.1,0.1L239.9,65c0,-0.1,0,-0.1,0,-0.2m-0.8,-1.9c-0.3,0.1,-0.6,0.4,-0.9,0.6c0,0,0,-0.1,0.1,-0.2c0.1,0,0.2,-0.1,0.2,-0.2c0.2,0,0.3,-0.1,0.5,-0.2c0,0,0.1,0,0.1,0m-3.9,-4.2c0,-0.1,0,-0.1,-0.1,-0.1c0.1,0,0.1,0,0.1,0l0,0.1M270.3,62.8c-0.1,0.1,-0.1,0.1,-0.1,0.2c-0.1,0,-0.1,-0.1,-0.1,-0.1c0.1,-0.1,0.2,-0.1,0.2,-0.1m-0.1,1.7c-0.1,-0.1,-0.2,-0.1,-0.3,-0.1c0,-0.2,0,-0.3,0,-0.5c0.1,0,0.1,-0.1,0.1,-0.2c0,0.1,0,0.3,0,0.4c0,0.2,0.1,0.3,0.2,0.4m10.3,20.3c0.3,0,0.6,0.1,0.9,0.2c-0.1,0,-0.2,0,-0.3,0c-0.2,0,-0.4,-0.1,-0.6,-0.2M284.5,87c-0.5,0,-1,0.1,-1.4,0.1c0,0,0.1,0,0.2,-0.1c0,0,0.1,-0.1,0.1,-0.1c0.3,-0.2,0.7,-0.1,1.1,0.1m-11.3,9.8c0,0,0,-0.1,0,-0.1c0,0.1,0,0.1,0,0.1M268,99.5c-0.1,0.3,-0.3,0.6,-0.5,0.9c0.1,-0.3,0.3,-0.6,0.4,-0.9c0.1,0,0.1,0,0.1,0M240,66.1c-0.5,-0.2,-1,-0.4,-1.4,-0.6c0,-0.3,-0.1,-0.5,-0.2,-0.7c-0.5,-1,0.6,-1.8,1.5,-1.6c0,0.1,0.1,0.1,0.1,0.1c0,0.3,0,0.6,0.1,0.8C240,64,239.8,63.9,239.7,63.8c-0.1,0,-0.3,0,-0.4,0.1c-0.5,0.8,0.1,1.6,0.7,2.2m-5.4,-3.4l-0.1,0c0.1,0,0.1,0,0.1,0m-0.4,-0.1c0,0,-0.1,0,-0.1,0l0,-0.1c0,0,0,0.1,0,0.1c0,0,0.1,0,0.1,0m-0.5,-3l0,0.1c0,0,0.1,0,0.1,0c0,-0.2,0.1,-0.5,0.2,-0.6c-0.1,0.1,0.7,-0.3,0.9,-0.1c0.2,0.2,0.1,0.4,0.1,0.6c-0.1,0.4,-0.3,0.8,-0.5,1.2c-0.5,-0.2,-0.8,-0.6,-0.8,-1.2M235,57.1l0.1,0c0,0,0,-0.1,0.1,-0.1c-0.1,0.1,-0.1,0.1,-0.2,0.1c-0.1,0.1,-0.2,0.1,-0.3,0.2c0.1,-0.1,0.2,-0.2,0.3,-0.2m1.3,-0.3c0.4,0,0.8,0,1.1,0c-0.4,0,-0.7,0,-1,0l-0.1,0m19.9,7c-0.1,0,-0.2,0.1,-0.4,0.1c-0.4,-0.1,-0.9,-0.2,-1.4,-0.2c0.6,-0.1,1.2,0,1.8,0.1m12.1,-0.3c0.1,-0.1,0.1,-0.2,0.1,-0.3c0,0.1,0,0.1,0,0.2c0,0.1,0,0.1,0,0.2c0,0,-0.1,0.1,-0.1,0.1l-0.1,0c0.1,-0.1,0.1,-0.1,0.1,-0.2m3,-1.5l-0.1,0c0,0,-0.1,0,-0.1,0c-0.2,-0.1,-0.5,0.1,-0.6,0.2c0,0.1,0,0.1,0,0.2c-0.1,0,-0.1,0,-0.1,0c-0.1,0,-0.2,0.1,-0.2,0.3c0,-0.1,-0.2,-0.2,-0.3,-0.2c-0.1,0,-0.2,0,-0.4,0c0.1,-0.3,0.2,-0.6,0.2,-1c0.6,0.2,1.1,0.4,1.6,0.5M261.1,70.4c0.1,0.1,0.1,0.1,0.2,0.1c-0.1,0,-0.2,0,-0.2,0c0,-0.1,0,-0.1,0,-0.1m0.2,0.1c0.1,0.1,0.2,0.1,0.3,0.1l0,0.1c-0.1,-0.1,-0.2,-0.1,-0.3,-0.2m4,41.7c-0.3,-0.1,-0.7,-0.2,-1.1,-0.3c0,-0.1,0,-0.1,0,-0.1c0.2,0,0.4,0.1,0.6,0.2c0.2,0,0.3,0.1,0.5,0.2m-2,-2.9c0,-0.1,0,-0.2,0,-0.3c0,0.1,0,0.2,0,0.3M245.2,85.2c0,0,-0.1,0,-0.1,0l0.1,0M240.5,66.7c-0.2,0,-0.3,-0.1,-0.4,-0.1c0.1,0,0.3,0,0.4,0.1c0,0,0.1,0,0.1,0.1c0,0,-0.1,0,-0.1,-0.1m-5.4,1.1c-0.1,0,-0.1,0,-0.1,-0.1c0.1,0,0.1,0,0.1,0c0,0.1,0,0.1,0,0.1m14.8,-6.1c0,-0.1,-0.1,-0.1,-0.1,-0.2c0.7,-0.4,1.5,-0.7,2.4,-0.8c0.2,0,0.5,0,0.8,0c-0.4,0.1,-0.8,0.2,-1.1,0.3c-0.7,0.1,-1.4,0.4,-2,0.7m10.2,3c-0.8,0.2,-1.5,0.2,-2.3,0.2c0.7,-0.1,1.5,-0.2,2.3,-0.2m8.8,-3.4c0.2,0,0.3,0.1,0.4,0.1c-0.1,0.4,-0.2,0.8,-0.4,1.1c-0.1,0,-0.2,0,-0.2,0c0.1,-0.4,0.2,-0.8,0.2,-1.2m-5,5.8c-0.1,0,-0.1,0,-0.1,0c0,0,0.1,0,0.1,0c0,0,0.1,0,0.1,0c-0.1,0,-0.1,0,-0.1,0M275.7,77c0.2,0.1,0.4,0.3,0.7,0.4c0,0,0,0.1,0,0.1c0,0,-0.1,0,-0.2,0c-0.3,-0.2,-0.6,-0.5,-0.9,-0.7c0.1,0.1,0.2,0.2,0.4,0.2m4.5,1.4c-0.1,0,-0.1,0,-0.1,0c-0.1,0,-0.2,0,-0.2,0c-0.1,-0.1,-0.1,-0.1,-0.1,-0.1c0.1,0.1,0.3,0.1,0.4,0.1m-7.8,22.2c0,0,0.1,0,0.1,0c-0.1,0,-0.1,0,-0.1,0m-0.9,8l0,-0.1c0.1,0.1,0.1,0.2,0.2,0.3c-0.1,-0.1,-0.1,-0.1,-0.2,-0.2m-0.2,-0.5c0.1,0.1,0.1,0.1,0.1,0.2c0,0,-0.1,-0.1,-0.2,-0.2c0,-0.1,0,-0.1,0,-0.2c0.1,0.1,0.1,0.1,0.1,0.2m-6.2,2.1c-0.2,-0.1,-0.4,-0.1,-0.6,-0.2c-0.1,-0.1,-0.2,-0.1,-0.4,-0.2c0.1,-0.2,0.2,-0.4,0.3,-0.6c0.2,0.3,0.4,0.6,0.6,0.8c0,0.1,0.1,0.1,0.1,0.2M257,106.1c0,-0.2,-0.1,-0.4,-0.4,-0.5c0,0,-0.1,0,-0.1,0c0,0,0.1,-0.1,0.1,-0.1c0.2,0.2,0.5,0.3,0.7,0.5c-0.1,-0.1,-0.3,0,-0.3,0.1M241.8,92.5l-0.1,0c0,0,0.1,-0.1,0.1,-0.1c0,0,0,0.1,0,0.1M239.1,66.6c-0.5,-0.1,-1,0,-1.5,0.1c0,-0.1,0,-0.1,0.1,-0.1c0.1,-0.1,0.2,-0.2,0.3,-0.3c0.4,0.1,0.7,0.2,1.1,0.3m-4.4,0.2c0,0,0,0.1,0,0.1l0.1,0c-0.1,0,-0.1,0.1,-0.1,0.1l0,-0.1c0,0,0,-0.1,-0.1,-0.1c0.1,0,0.1,0,0.1,0m1.4,-0.9l0,0.1L236,66c0.1,-0.1,0.1,-0.1,0.1,-0.1m-1.9,-2.6c0,0,0,-0.1,0,-0.1c0,0,0,0.1,0,0.1m-0.8,-2.4l0.1,0.1c-0.2,0.5,-0.3,1.1,-0.3,1.7c0,-0.1,0,-0.2,-0.1,-0.3c0,-0.1,-0.1,-0.3,-0.2,-0.4c0,-0.1,0,-0.1,0,-0.1c0,0,0,-0.1,0,-0.1c-0.1,-0.1,-0.1,-0.1,-0.2,-0.1c0.3,-0.2,0.6,-0.6,0.7,-0.8m-0.3,-1.6c0,0.1,0,0.1,0.1,0.1c-0.1,0,-0.1,0.1,-0.1,0.1c0,0.1,0,0.3,0.1,0.4c-0.1,-0.2,-0.2,-0.4,-0.1,-0.6M256,91.5c0.2,0,0.1,0.2,0,0.2c-0.1,0,-0.2,0,-0.3,0c-0.1,0,-0.1,-0.2,0.1,-0.2c0.1,0,0.1,0,0.2,0m17.3,20c-0.1,-0.1,0.1,-0.2,0.2,-0.1c0.4,0.3,0.8,0.6,1.2,0.9c0.1,0.1,0,0.1,0,0.1c-0.5,-0.2,-1,-0.5,-1.4,-0.9m1.9,-48.7c0,0,0.1,0.1,0,0Z" class="g6_2" />
<path d="M879.1,161.8l-479.6,0l0,-92.7l479.6,0l0,92.7Z" class="g2_2" />
<path d="M879.1,161.8l-479.6,0l0,-92.7l479.6,0l0,92.7Z" class="g7_2" />
<path d="M111.8,55.6c0,0,-0.1,-0.1,-0.1,-0.1c0,-0.2,-0.1,-0.3,-0.2,-0.6c-0.2,-0.2,-0.5,-0.2,-0.7,-0.1c-0.3,-0.2,-0.5,-0.4,-0.8,-0.6c0.1,-0.2,-0.1,-0.5,-0.4,-0.5C108.8,52.8,107.9,52,107,51.3c0,-0.1,0,-0.3,-0.1,-0.5c0,-0.2,0,-0.4,-0.1,-0.6c0,-0.1,0,-0.2,-0.1,-0.3c-0.1,-0.1,-0.2,-0.3,-0.3,-0.4c0,-0.1,-0.1,-0.1,-0.1,-0.2c-0.1,0,-0.2,-0.1,-0.3,-0.1c0,-0.1,0,-0.1,0,-0.1c0,0,0,0.1,0,0.1c0,0,-0.1,0,-0.1,-0.1c0.1,0,0.1,0,0.2,0c-0.1,0,-0.1,0,0,0c0,-0.1,0,-0.1,0,-0.1c0,0,-0.1,0,-0.1,0l0,-0.1c0.1,-0.2,0,-0.5,-0.3,-0.5c-0.3,-0.1,-0.5,0,-0.8,0.1c0.1,-0.4,0.3,-0.8,0.4,-1.2c0,-0.1,0.1,-0.1,0.1,-0.1l0,-0.1c0,-0.1,0,-0.1,0,-0.1c0.1,-0.1,0,-0.3,-0.1,-0.3c0.1,0,0.2,0,0.3,0c0,0,0,-0.1,0.1,-0.1c-0.1,0.2,-0.1,0.4,-0.2,0.5c-0.1,0.2,-0.2,0.4,-0.3,0.6c-0.1,0.1,0.1,0.2,0.1,0.1c0.3,-0.3,0.5,-0.8,0.6,-1.2c0,0,0,-0.1,0,-0.1c0,0,-0.1,0,-0.1,0l0,-0.1c0.1,-0.1,0.1,-0.2,0,-0.3c0,0,-0.1,-0.1,-0.2,0c-0.1,0,-0.3,0.1,-0.3,0.1c-0.1,0.1,-0.2,0.3,-0.1,0.4c0,0,0.1,0,0.1,0.1c-0.1,-0.1,-0.3,-0.1,-0.4,0c-0.3,0.5,-0.5,0.9,-0.6,1.4L85.2,33.9C84,33.1,82.7,32.3,81.7,31.7c-0.1,0,-0.1,-0.1,-0.2,-0.1c0,0,-0.1,-0.1,-0.1,-0.1C81.2,31.4,81,31.2,80.7,31c0,0,0,0.1,0,0.1c0,0.1,0.1,0.1,0.2,0.2C80.5,31.1,80.3,31,80.3,31c0.1,1.2,4.1,4.2,4.1,4.2l18.9,15.4c-0.1,0.1,-0.2,0.3,-0.2,0.5c-0.1,0.2,-0.2,0.4,-0.2,0.5c-0.3,0.4,-0.5,0.8,-0.7,1.1c0,0.1,0,0.1,0,0.2l-0.1,0c0,0.1,-0.1,0.1,-0.1,0.2c0,0,0,0.1,0,0.1c-0.1,0.1,0,0.3,0.1,0.2c0,0.1,0,0.1,0,0.1c0.1,0,0.2,0,0.2,0c0.1,-0.1,0.3,-0.2,0.4,-0.3c0,0,0,-0.1,0,-0.1c0,0,0,-0.1,0.1,-0.1c0.2,-0.3,0.4,-0.6,0.6,-0.9c0,-0.1,0.1,-0.2,0.1,-0.3c0.1,-0.1,0.2,-0.2,0.3,-0.3c0,0.2,0.1,0.5,0.2,0.6c0.1,0.1,0.2,0.2,0.2,0.3c-0.3,1.1,-0.5,2.3,-0.5,3.5c-0.2,0.5,-0.4,0.9,-0.6,1.4c-0.2,0.2,-0.3,0.5,-0.5,0.7l-0.1,0c-0.1,0.1,-0.2,0.2,-0.3,0.3c0,0,-0.1,0.1,-0.1,0.1c-0.1,0,-0.1,0.1,-0.1,0.2c-0.1,0.1,-0.1,0.2,-0.2,0.3c0,0,0,0.1,0,0.1c-0.1,0.1,-0.2,0.3,-0.3,0.5c0,-0.1,0,-0.1,0,-0.1c0,0,-0.1,0,-0.1,0.1c0,0.1,-0.1,0.3,-0.1,0.5c0,0.2,-0.1,0.4,-0.1,0.6c-0.1,0.3,-0.2,0.5,-0.3,0.8c-0.3,-0.1,-0.7,0.2,-0.9,0.4c0,0.1,0,0.1,-0.1,0.2c-0.2,0.1,-0.4,0.3,-0.5,0.5c-0.2,0.2,-0.4,0.4,-0.5,0.7c0,0,-0.1,0,-0.1,0.1c-0.1,0,-0.1,0.1,-0.1,0.1c-0.2,0,-0.4,0.1,-0.5,0.2c0,-0.3,0.1,-0.6,0.1,-0.9C98.4,62.5,98.2,62.5,98,62.6c0.1,-0.1,0.1,-0.2,0.1,-0.3c0.3,-0.7,0.5,-1.5,0.4,-2.4L98.4,59.8c0,0,0.1,-0.1,0.1,-0.1c0.4,-1.1,0.3,-2.3,-0.9,-3c0,0,-0.1,0,-0.1,0c0,-0.1,0,-0.1,0,-0.1C97.4,56.5,97.4,56.5,97.4,56.5c0,-0.1,-0.1,-0.1,-0.1,-0.1C97.2,56.2,97.1,56.1,97.1,56C97,55.9,97,55.9,96.9,56C96.7,55.7,96.4,55.5,96,55.3c-0.1,0,-0.1,0,-0.1,0.1C95.4,55.2,94.8,55.1,94.1,55.2c-0.1,0,-0.1,0.2,0,0.2c0.3,0,0.5,0,0.7,0.1c-1.2,0.1,-2.5,0.9,-3.1,1.9c0.4,-0.4,0.8,-0.7,1.2,-0.9c-0.5,0.5,-1,1.1,-1.3,1.5c-0.1,0.1,0,0.2,0.1,0.2c0.3,-0.3,0.5,-0.6,0.8,-0.8c-0.3,0.3,-0.5,0.7,-0.8,1.1c-0.1,0.1,-0.3,0.1,-0.4,0.2c-0.8,0.4,-1.6,0.8,-2.4,1.1C88,60.2,85.7,61.1,85.2,59.7c0,0,-0.1,0,-0.1,0c0,1.8,2.7,1.1,3.7,0.8c0.8,-0.3,1.6,-0.7,2.4,-1.1c-0.9,0.7,-1.5,1.6,-2.1,2.5c-1,0.9,-2,1.4,-3.1,0.7c0,0,-0.1,0,0,0c0.6,0.9,1.7,0.6,2.5,0.1c0,0,0,0.1,0,0.1c-0.3,0.3,-0.5,0.6,-0.8,0.9c-0.9,0.9,-2.1,0.8,-2.6,-0.3c0.3,0.8,0.7,1.5,1.5,1.5c-0.1,0.2,-0.2,0.4,-0.3,0.5c-0.1,0,-0.2,-0.1,-0.3,-0.3C85.6,64.8,85.4,64.3,85.2,63.8c0,-0.1,-0.1,-0.1,-0.1,0c0.2,0.7,0.4,1.5,0.9,1.9C85.5,65.5,85.2,65.2,85.1,64.5c0,0,-0.1,0,-0.1,0c0,0.7,0.4,1.3,0.9,1.5c-0.1,0.3,-0.2,0.6,-0.3,0.8c0,0.1,-0.1,0.2,-0.1,0.4c0,-0.1,-0.1,-0.2,-0.1,-0.3C85.1,66.2,84.9,65.4,84.8,64.7c-0.1,-0.1,-0.2,-0.1,-0.1,0c0.1,1,0.2,2.1,0.6,3C85.2,68.4,85,69.1,85,69.8c0,0.1,0,0.2,-0.1,0.3c0,0,0.1,0,0.1,0c0,0.3,0,0.6,0,0.9c0,0.1,0.1,0.1,0.1,0c0,-0.4,0.1,-0.9,0.2,-1.3c0.1,-0.2,0.3,-0.4,0.4,-0.5c0,0.5,0,1,0,1.4c0,0,0.1,0,0.1,0c0,-0.5,0.1,-1.1,0.2,-1.6c0.6,-0.4,1.2,-0.6,1.8,-0.8c0.3,-0.1,0.5,-0.2,0.8,-0.3c-0.3,0.4,-0.5,0.9,-0.7,1.3c0,0.1,0.1,0.2,0.1,0.1c0.6,-0.9,1.2,-1.7,1.9,-2.4c0.4,-0.4,0.9,-0.8,1.4,-1.2c0,0.3,0,0.5,0,0.8C91,67,90.4,67.2,90.1,67.7c0,0,0,0.1,-0.1,0.1c-0.9,0.8,-1.6,1.9,-1.4,3.2c-0.1,0.2,-0.2,0.5,-0.4,0.7C87.9,72,87.5,72.5,87.5,73c0,0,0,0.1,0.1,0.1c-0.2,0.2,-0.3,0.5,-0.4,0.7c-0.2,0.3,-0.4,0.7,-0.4,1.1c0,0.2,0,0.3,-0.1,0.4c0,0,-0.1,0,-0.2,0c-0.1,0,-0.2,0.1,-0.3,0.1c-0.2,0.1,-0.4,0.1,-0.5,0.3c-0.3,0,-0.6,-0.2,-0.8,-0.2c-0.4,-0.1,-0.7,-0.1,-1.1,0C83.7,75.4,83.5,75.4,83.3,75.3c-0.1,0,-0.2,-0.1,-0.3,-0.2c0.2,-0.5,0,-1.2,-0.5,-1.7c-0.1,-0.2,-0.4,-0.1,-0.3,0.1c0.1,0.3,0.1,0.5,0.1,0.7c0,-0.1,0,-0.1,0,-0.1C82.2,74,82.1,73.9,82,73.9l-0.1,0c0,0,-0.1,0,-0.1,0C81.5,73.8,81.4,73.3,81.3,73c0,-0.2,0,-0.5,0.1,-0.8c0,-0.1,0,-0.2,0.1,-0.3c0,-0.3,0.1,-0.6,-0.1,-0.8l-0.1,0c0,-0.1,-0.1,0,-0.1,0c0,0,0,0.1,0,0.1c0,0,-0.1,0.1,-0.1,0.1c0,0.1,0,0.2,-0.1,0.2c-0.1,0.4,-0.2,0.7,-0.3,1c0,0.3,-0.1,0.7,-0.1,1.1l0,0.1c-0.1,0.1,-0.1,0.2,-0.2,0.3c0,0,0,-0.1,-0.1,-0.2c0,-0.1,-0.1,-0.2,-0.1,-0.3C80.1,73.3,80.1,73.2,80,73c0,0,0,-0.1,-0.1,-0.1c0,0,0,-0.1,0,-0.1c0.1,-0.2,-0.2,-0.2,-0.2,0c0,0,0,0.1,0,0.2c-0.2,0.3,-0.1,0.7,0.1,1c0,0.1,0.1,0.2,0.2,0.3c-0.1,0,-0.1,-0.1,-0.2,-0.1c0,-0.1,-0.2,0,-0.1,0.1c0.1,0.2,0.2,0.4,0.4,0.6C79.9,74.7,79.7,74.6,79.5,74.4c-0.1,0,-0.3,0.2,-0.2,0.3c0.6,0.8,1.2,2.3,2.3,2.4c0.1,0,0.1,0,0.2,0c0.1,0.1,0.1,0.1,0.2,0.2c0.1,0,0.1,0,0.2,0.1c0.2,0.2,0.5,0.3,0.9,0.5l0.1,0c0.2,0.1,0.5,0.2,0.8,0.3c0.4,0.3,0.8,0.7,1.3,1c0.1,0,0.1,0,0.2,0c1,0.6,2.1,0.6,3.2,0.3C89,79.4,89,79.2,89,79c0.2,-0.1,0.4,-0.2,0.6,-0.3c0.2,-0.1,0.2,-0.3,0.2,-0.4c0,0,0.1,-0.1,0.1,-0.2C89.9,78.1,90,78,90,78c0,0.1,0,0.1,0,0.2c0,0,0,0.1,-0.1,0.2c0,0.1,0.1,0.3,0.2,0.3c0,0.6,0,1.2,0,1.8c0,0.1,0,0.1,0,0.2c0,0.1,0,0.2,0,0.2c-0.1,0,-0.2,0,-0.2,0.1c-0.4,1.1,-1.1,1.9,-1.7,2.9c-0.7,1,-1.3,2.2,-1.9,3.3c-0.6,1.1,-1.1,2.3,-1.5,3.5c-0.3,0.5,-0.5,1.1,-0.6,1.7C84,93,83.9,93.7,83.7,94.3c0,0,-0.1,0,-0.2,0.1c-0.1,0.7,0.1,1.4,0.7,1.8l0,0.1c0.3,1.9,0.9,3.7,1.6,5.5c0.7,1.9,0.5,4.1,1.2,6.1c0,0,0,0.1,0.1,0.1c-0.3,0.4,-0.5,0.8,-0.7,1.1c-0.2,0.2,-0.1,0.5,0,0.6c-0.3,0.6,-0.6,1,-1,1.5c-0.1,0,-0.1,0.1,-0.1,0.1c-0.4,0.3,-0.2,1,0.4,0.9c0,0.1,0.1,0.1,0.1,0.2c0.1,0.1,0.2,0.1,0.4,0.1l0,0.1c-0.1,0.2,0.2,0.3,0.4,0.1c0,-0.1,0.1,-0.2,0.1,-0.3c0.2,-0.1,0.4,-0.1,0.6,-0.2c0.4,-0.2,0.8,-0.4,1.2,-0.6c0.2,0.1,0.4,0.1,0.5,-0.1c0.2,-0.3,0.5,-0.6,0.7,-1c0.3,-0.3,0.5,-0.6,0.7,-0.9c0.2,-0.3,0.1,-0.5,-0.1,-0.6c0.1,-0.1,0.2,-0.2,0.3,-0.3c0.3,-0.8,0.7,-1.7,1,-2.5c1.2,-1.9,1.7,-4.1,2.3,-6.2c0.2,-0.4,0.3,-0.8,0.5,-1.2c0.2,-0.6,1,-2.3,0.4,-2.9c-0.1,0,-0.1,0,-0.1,0c0,-0.2,0,-0.3,0,-0.4c0,-0.1,0,-0.1,0,-0.2c0.1,-0.2,0.1,-0.3,0.1,-0.6c0,-0.1,-0.1,-0.3,-0.1,-0.5l0,-0.1C94.7,94,94.6,93.9,94.5,94c0,-0.1,0,-0.1,0,-0.1C94.4,93.7,94.2,93.5,94,93.4c0,-0.1,0,-0.2,0,-0.2C93.9,93.1,93.9,92.9,93.9,92.8c0.1,-0.5,0.3,-1.1,0.5,-1.7c0.1,-0.2,0.2,-0.3,0.3,-0.5c0.1,0.1,0.2,0.1,0.3,0c1,-0.7,1.8,-1.9,2.5,-2.9c0.1,-0.2,0.2,-0.4,0.3,-0.5c0.1,-0.1,0.2,-0.3,0.4,-0.4c0.4,-0.5,1,-1.3,0.9,-2c0.2,-0.3,0.4,-0.7,0.5,-1c0.3,-0.2,0.5,-0.5,0.6,-0.7c0.3,0,0.6,0,0.9,0c0.4,-0.1,1,-0.4,1.3,-0.6c0.9,-0.7,1.4,-1.9,2.5,-2.2c0.4,-0.1,0.4,-0.6,0.1,-0.8c-0.5,-0.3,-1.5,-0.8,-1.6,-1.4c0,-0.1,0,-0.1,0,-0.1c-0.1,-0.4,-0.4,-0.9,-0.5,-1.3c0,-0.3,0,-0.8,-0.2,-1.2c0,-0.4,-0.1,-0.9,-0.1,-1.2C102.5,74,102.3,73.9,102.1,74c-0.7,0.2,-1.3,0.4,-2,0.7c-0.2,0.1,-0.8,0.3,-0.7,0.6c0,0.1,0,0.1,0.1,0.1c-0.1,0.1,-0.1,0.1,-0.2,0.1c0,-0.4,-0.1,-0.8,-0.2,-1.1c0,0,0,-0.1,0,-0.1c0,-0.1,0,-0.2,0,-0.3c0.1,0,0.2,-0.1,0.2,-0.2C99.6,73,99.6,72,99.6,71.1c0,-0.1,0,-0.2,0,-0.3c0,-0.1,0,-0.3,0,-0.4c0.5,-1,1.1,-1.9,1.4,-2.9c0,0,0,-0.1,0,-0.1c0,0,0.1,0,0.1,-0.1c0,-0.1,0,-0.2,0.1,-0.3c0.2,-0.2,0.4,-0.4,0.6,-0.6c0.2,-0.2,0.6,-0.5,0.8,-0.7c0.2,-0.1,0.4,-0.1,0.4,-0.3c0.1,0,0.1,0,0.1,0c0.1,0,0.2,0,0.2,-0.1c0,-0.1,-0.1,-0.2,-0.1,-0.3c0.1,0,0.3,0,0.3,-0.2c-0.1,-0.7,-0.3,-1.3,-0.4,-1.9c0,0,0,-0.1,0,-0.1c0.2,-0.5,0.5,-0.9,0.7,-1.5c0.2,-0.3,0.3,-0.7,0.5,-1.1c0.1,0,0.1,0,0.2,-0.1c0.2,-0.5,0.3,-1.1,0.4,-1.6c0.6,-0.2,0.8,-0.9,0.8,-1.5c0,-0.2,-0.1,-0.6,-0.2,-0.8c0,0,0,-0.1,-0.1,-0.1c0.1,-0.5,0.2,-1.1,0.3,-1.6c0.1,-0.4,0.2,-0.9,0.2,-1.4l1.4,0.4c1.2,0.8,2.3,1.6,3.4,2.4c0.1,0,0.1,0,0.1,0.1c0.1,0.1,0.1,0.2,0.2,0.3c0.2,0.3,0.8,0.3,0.8,-0.2c0,0,0,-0.1,0.1,-0.1c0,-0.1,0,-0.3,-0.1,-0.4m-9.5,-2.4l0,0M87.4,105.3c0,0.3,0.1,0.6,0.2,1c0,0.2,0,0.5,0,0.8c-0.1,0,-0.1,0.1,-0.1,0.1c0,-0.6,-0.1,-1.3,-0.1,-1.9m-0.2,5.2c0.1,-0.3,0.3,-0.5,0.4,-0.8c0,0.2,0,0.4,0,0.6c0,0.1,0,0.2,0.1,0.2c-0.2,0,-0.3,0,-0.5,0M105.4,50c0.1,0,0.1,0,0.2,0c0.1,0.1,0.1,0.2,0.2,0.3c0,0.1,0,0.1,0,0.1c-0.2,-0.1,-0.3,-0.2,-0.4,-0.3C105.3,50,105.3,50,105.2,49.9c0.1,0,0.2,0.1,0.2,0.1Z" class="g6_2" />
<path d="M103.5,70.5c0.2,0.2,0.5,0.4,0.8,0.5c0,0,0.1,0,0.2,0c0,0,0.1,0.1,0.2,0.1c0.5,-0.3,0,-0.9,-0.2,-1.2c0.2,0.3,0.5,0.5,0.8,0.8c0.1,0,0.2,0,0.2,-0.1c0,-0.1,0,-0.1,-0.1,-0.1c0.1,0,0.1,0,0.2,0c-0.4,0.5,-0.7,0.9,-0.8,1.2l-0.1,0c-0.1,0.1,-0.2,0.2,-0.2,0.3c0,0,0,0.1,0,0.1c-0.1,0.1,-0.2,0.2,-0.2,0.3c0.1,0.2,0.2,0.3,0.3,0.4c0.1,0,0.2,0,0.2,0c0.1,0,0.1,0,0.2,0l0.1,0.1c0.1,0,0.2,-0.1,0.2,-0.2c0,-0.1,0.1,-0.1,0.1,-0.2c0.1,-0.1,0.1,-0.3,0,-0.4L105.3,72c0.1,-0.1,0.3,-0.3,0.4,-0.4c0.4,-0.4,0.8,-0.7,1.1,-1.1c0.3,-0.3,0.5,-0.5,0.7,-0.7c0.2,0.1,0.4,0,0.6,-0.2C108,69.5,108,69.5,107.9,69.4c0,-0.1,0.1,-0.1,0.2,-0.2l35.1,-6.5c0,0,4.3,-1,5.4,-1.5c0,0,-4.1,-0.2,-6.1,0.2c-1.8,0.3,-27.5,5,-32.5,5.9c0.4,-0.4,0.8,-0.9,1.2,-1.3c0.1,-0.1,0.3,-0.3,0.4,-0.5c0.2,-0.3,-0.1,-0.7,-0.5,-0.6c0,-0.1,0.1,-0.1,0.1,-0.1c0.2,-0.2,0.4,-0.3,0.7,-0.2c0.1,0.1,0.2,0.1,0.3,0.2c-0.1,0,-0.1,0.1,-0.2,0.1c-0.2,0.1,0,0.4,0.2,0.5c0.3,0,0.5,-0.1,0.7,-0.1c0.3,-0.1,0.6,0,0.8,-0.2c0.1,0,0.1,-0.1,0.1,-0.2c0.1,-0.1,0.2,-0.3,0.2,-0.4c0.1,-0.3,0.3,-0.5,0.4,-0.8c0.1,0,0.1,-0.1,0.1,-0.1c0.1,0,0.2,0.1,0.3,0.1c0.3,0,0.4,-0.2,0.3,-0.4c0.1,-0.1,0.1,-0.2,0.2,-0.3c0.1,-0.1,0.2,-0.2,0.4,-0.3c0.1,0.1,0.1,0.1,0.2,0.2c0.1,0.1,0.3,0.1,0.4,0c0.3,-0.3,0.7,-0.6,1.1,-0.8c0.1,-0.1,0.3,-0.1,0.4,-0.2c0.1,0,0.1,0,0.2,0c0.3,-0.1,0.7,-0.3,1.1,-0.4c0.3,1.2,0.3,3.6,0.3,3.6l23.8,-4.3L143,60.7c0.1,-0.4,-0.1,-0.9,-0.2,-1.2c-0.2,-0.6,-0.3,-1.3,-0.1,-1.9c0,0,0.1,-0.1,0.1,-0.2c0.1,-0.9,-0.5,-1.7,-1,-2.4c-0.5,-0.8,-1.2,-1.5,-2,-1.9c-0.2,-0.1,-0.3,0.1,-0.3,0.2c-0.2,-0.1,-0.6,0.1,-0.8,0.2c-0.3,0.1,-0.6,0.1,-0.9,0.1c-0.4,-0.1,-0.8,-0.3,-1.1,-0.4c-0.2,0,-0.3,0,-0.4,0c0,-0.1,-0.1,-0.2,-0.1,-0.4c-0.1,-0.7,0,-1.5,-0.1,-2.3c0,-1,0.3,-1.8,0.7,-2.7c0,0,0.1,0,0.1,-0.1c-0.1,-1,-0.7,-2,-0.3,-3c0.2,-0.8,1.2,-1.2,2,-1.1c0.5,0,0.9,0.3,1.3,0.7c0.1,0.4,0.4,0.9,0.6,1.3c0,0,0,0.1,0,0.1c-0.1,0,-0.1,0.1,-0.1,0.2c0.1,0,0.1,0,0.1,0c0.1,0.3,0.3,0.6,0.5,0.8c0,0,0.1,0.1,0.1,0.1c0,0.1,0,0.2,0,0.3c-0.4,-0.4,-0.8,-0.8,-1.2,-1.1c0.3,-0.5,0,-1.3,-0.4,-1.7c-0.4,-0.5,-1,-0.7,-1.6,-0.4c-1.5,0.7,-1,2.8,0.1,3.7c0,0,0,0.1,0,0.1c-0.7,0.1,-1.2,1.1,-1.4,1.7c-0.2,0.7,-0.2,1.3,0,1.9c0.1,0.2,0.1,0.3,0.2,0.5c0,0,-0.1,0.1,-0.1,0.1c0,0,0,0.1,0,0.1c0,0.1,0.1,0.3,0.2,0.3c1,0.7,2.6,0.8,3.5,-0.1c0.2,0.3,0.4,0.6,0.7,0.9c0,0,0.1,0,0.1,0c0,0,0.1,0,0.1,0c0,-0.1,0.1,-0.1,0,-0.2c0.5,-1.4,0.6,-3,0.8,-4.5c0.2,-1.4,0.4,-2.9,0.2,-4.4c0,0,-0.1,0,-0.1,-0.1c-0.1,-1.3,-1.2,-2.5,-2.1,-3.3c-0.9,-1,-2,-1.4,-3.2,-1c-0.2,0,-0.4,0,-0.6,0c-0.4,0,-0.8,0.1,-1.1,0.3c-0.1,0.1,-0.1,0.1,0,0.2c-1.2,0,-2.1,1.8,-2.4,2.8c-0.3,1.4,-0.5,3,-0.2,4.5c-0.2,0.1,-0.3,0.3,-0.4,0.4c-0.2,0.2,-0.3,0.4,-0.5,0.5c0,0.1,0,0.1,-0.1,0.1c-0.1,0,-0.2,0.1,-0.1,0.1c0,0.1,0,0.1,0,0.1c-0.1,0.1,-0.1,0.3,0.1,0.3c0.1,0.1,0.1,0.2,0.1,0.3c0.1,0.3,0.5,0.2,0.6,0c0.1,0,0.1,0,0.2,0c0.9,0.2,1.5,1.1,1.9,1.8c0.4,0.5,0.8,1.1,1.2,1.6c0,0.1,-0.1,0.1,-0.1,0.2c-0.7,-1.3,-2.5,-4,-3.5,-3c-0.3,-0.3,-0.6,-0.7,-0.8,-1c-0.1,-0.2,-0.4,-0.1,-0.4,0c0,0.3,0,0.6,0,0.9c-0.1,-0.1,-0.2,-0.2,-0.3,-0.2c-0.3,-0.6,-0.8,-1.1,-1.4,-1.5c-0.3,-0.2,-0.7,-0.2,-1,0.2c-0.3,0.4,-0.3,1,-0.3,1.5c-0.7,-0.2,-1.5,-0.2,-2.2,-0.1c-1.2,0,-2.4,0.3,-3.5,0.9c0,0,-0.1,0,-0.2,0c-0.4,0.1,-0.6,0.6,-0.8,1c0,0,0,-0.1,0,-0.1c-0.1,-0.1,-0.2,-0.1,-0.2,-0.1c-0.3,0.3,-0.4,0.8,-0.6,1.1c-0.1,-0.1,-0.1,-0.1,-0.1,-0.2C120.2,52.1,120,52,120,52.1c-0.2,0.2,-0.4,0.5,-0.5,0.8c-0.1,0.1,-0.2,0.3,-0.3,0.4c0,0,0,-0.1,0,-0.1c0,-0.3,-0.4,-0.3,-0.5,-0.1c-0.4,0.5,-0.8,1,-1.2,1.6c0,-0.3,0,-0.6,-0.2,-0.9c0,0,0,-0.1,0,-0.1c-0.1,0,-0.1,0,-0.2,0.1c-0.4,0.1,-0.7,0.7,-1,1c-0.6,0.6,-1.3,1,-1.9,1.4c-0.8,0.6,-1.7,1.2,-2.5,1.8c-0.3,0.2,-0.6,0.4,-0.8,0.7c-0.1,0.2,0,0.7,0,1c0,0,-0.1,0,-0.1,0.1c-0.2,0.2,-0.4,0.3,-0.7,0.5c-0.2,0.2,-0.4,0.4,-0.5,0.6c0,0,-0.1,0,-0.2,0c-0.2,-0.1,-0.4,-0.3,-0.6,-0.4c-0.3,-0.2,-0.7,-0.3,-1.1,-0.4c-0.2,0,-0.3,0.2,-0.2,0.3c-0.6,0.9,-1,1.9,-1.5,2.9c-0.6,1,-1.1,2.1,-1.4,3.3c-0.5,0.3,-0.9,0.7,-1.5,0.9c-0.1,0.1,-0.2,0.2,-0.2,0.3c0,0.4,0,0.8,-0.1,1.1c-0.2,0.2,-0.2,0.4,0,0.7c0,0,0,0.1,-0.1,0.1c0,0.1,0,0.2,0.1,0.3c0.2,0.2,0.4,0.3,0.7,0.5M120,52.7l0.1,0c-0.1,0,-0.1,0.1,-0.1,0.1c0,0,0,-0.1,0,-0.1m2.1,-1.9c0.1,0,0.1,0,0.2,0c0,0.1,0,0.1,0,0.1c0,0,-0.1,0,-0.1,0c0,0,-0.1,0.1,-0.2,0.1c-0.1,0.1,-0.2,0.2,-0.3,0.3c0.2,-0.2,0.3,-0.3,0.4,-0.5M106.8,67.7c0,0,-0.1,0,-0.2,0c0,-0.1,0,-0.1,0,-0.1c0.1,0,0.2,0,0.2,0.1M110,65.5l0,0c0,0,0.1,0,0.1,0c-0.1,0.1,-0.1,0.1,-0.2,0.2c0,-0.1,0,-0.1,0.1,-0.2M137.2,54.3c0,0,0.1,0,0.2,0c-0.1,0,-0.1,0,-0.2,0m-8.3,-4.9c0,-0.1,0,-0.1,0,-0.1c0,-0.1,0,-0.1,0,-0.1c0,0,0.1,0.1,0.1,0.1c0,0.1,0,0.1,-0.1,0.1M115.2,62.5l0.1,0.1c-0.1,0,-0.1,0,-0.2,0c0,0,0.1,0,0.1,-0.1m0.9,-0.2c-0.1,0,-0.1,0,-0.1,0c0,0,0.1,0,0.1,0m24.8,-7c0,0,0,-0.1,0,-0.2c0,0.1,0.1,0.2,0.1,0.3c0,0,0,-0.1,-0.1,-0.1M139.9,48.1l0,-0.1c0,0,0,0.1,0,0.1m-1.2,2.8c0,0,0,0.1,0.1,0.1c-0.1,0,-0.1,0,-0.1,0c0,0,0,-0.1,0,-0.1m2.4,1.5c0.1,0,0.1,-0.1,0.1,-0.2c0,0.1,0,0.2,0,0.4c0,-0.1,0,-0.1,-0.1,-0.2m0.6,-4.8c0,0,0,0.1,0,0.1c0,0,0,-0.1,0,-0.1M131.4,50c0,0,0,-0.1,0,-0.1c0,0,0,0.1,0.1,0.1c-0.1,0,-0.1,0,-0.1,0M106.9,62.4c-0.1,0.2,-0.2,0.4,-0.3,0.6c0.1,-0.2,0.2,-0.4,0.3,-0.6M103.4,68c0,-0.1,0,-0.1,0,-0.1c0,0,0.1,0,0.1,0c0,0,-0.1,0,-0.1,0.1m0.8,1.7l0.1,0c-0.1,0,-0.1,0,-0.1,0M142.1,59.4c0,0,0,-0.1,0,-0.1c0,0.1,0.1,0.1,0.1,0.2ZM138.2,40c-0.3,-0.2,-0.6,-0.2,-1,-0.2c0,0,0,-0.1,-0.1,-0.1c0.4,0,0.8,0.1,1.1,0.3M120.9,52c-0.1,0.1,-0.1,0.1,-0.2,0.1c0.1,-0.1,0.2,-0.2,0.2,-0.3c0,0.1,0,0.1,0,0.1c0,0,0,0.1,0,0.1m-13.1,8.6c-0.1,0,-0.2,0.1,-0.2,0.2c0,-0.1,0,-0.2,0,-0.3c0.1,0,0.2,0.1,0.2,0.1m49.4,2.7c-0.4,-0.6,-1.2,-0.6,-1.9,-0.4c-0.4,0.1,-0.9,0.4,-0.9,0.8c0,0.1,0,0.1,0,0.1c-0.1,0,-0.2,0.1,-0.3,0.2c-0.1,0,-0.1,0,-0.2,0c0,0,0,-0.1,-0.1,-0.1c0,0,0.1,-0.1,0.1,-0.1c0,-0.1,0,-0.1,0.1,-0.2c0.5,0.2,0.7,-0.6,0.2,-0.9c-0.1,0,-0.1,0,-0.2,-0.1c-0.2,-0.1,-0.4,-0.2,-0.6,-0.4c-0.2,-0.1,-0.5,0,-0.6,0.2c0,0.1,-0.2,0.3,-0.2,0.5c-0.4,0.4,-0.5,0.9,-0.8,1.3c-0.1,0,-0.1,0.1,-0.1,0.1c-0.2,0.2,-0.5,0.3,-0.8,0.5c-0.2,-0.1,-0.4,-0.1,-0.6,-0.1c-0.3,-0.1,-0.6,-0.2,-0.9,-0.2c0,0,0,-0.1,0,-0.1c-0.2,-0.4,-1.1,-0.5,-1.6,-0.6c-0.4,-0.1,-0.8,-0.2,-1.3,-0.2c-0.3,-0.3,-0.7,-0.3,-1.1,-0.1c0,0,-0.1,0,-0.1,0c-0.1,0.1,-0.1,0.1,-0.1,0.2l-0.1,0c0,-0.1,0,-0.1,0,-0.2c-0.1,-0.3,-0.7,-0.7,-0.7,-0.7l-25.1,4.8c0.1,0.6,-0.8,0.8,-0.8,0.8c0,0,-0.2,0.4,-0.3,0.6c-0.2,0.2,-0.3,0.5,-0.2,0.6c0.1,0.2,0.6,0.5,0.8,0.9c0.2,0.4,-0.8,0.6,-0.8,0.6L117.9,72c-0.3,0.3,-0.6,0.5,-0.7,0.9c-0.2,0.3,-0.3,0.6,-0.4,1c-0.1,0.3,-0.2,0.6,-0.1,0.9c0,0.1,0.1,0.2,0.2,0.2c0,0.3,0,0.5,0,0.8c0,0.1,-0.1,0.2,-0.1,0.3c0,0.1,0,0.2,0,0.3c-0.1,0,-0.2,0,-0.3,0c-0.3,0,-0.4,0.3,-0.3,0.5c0.3,0.5,0.3,0.9,0.3,1.4c-0.4,0.2,-0.7,0.5,-0.7,1c0,0.3,0.1,0.5,0.1,0.8c0.1,0.2,0.1,0.5,0.3,0.7c0.1,0,0.1,0,0.1,0c0.1,0.1,0.3,0,0.4,-0.1c0.1,0,0.2,-0.1,0.4,-0.2c0,0,0,0.1,0.1,0.1c0.1,0.1,0.2,0.2,0.3,0.3c0.5,0.6,0.5,1.7,0.5,2.4c0,0.9,0,1.9,0,2.8c0,0.9,0.1,1.7,0.1,2.6c0,0.1,-0.1,0.1,-0.1,0.2c-0.1,0.6,0,1.3,0,1.9c-0.1,0.6,-0.1,1.2,-0.1,1.8c-0.1,1.1,0.1,2.3,0.3,3.4c0,0.1,0.2,0.2,0.3,0.1c0,0.2,0.2,0.2,0.3,0.2c0.3,0.1,0.6,0.1,0.9,0.2c0.3,0.1,0.5,0.2,0.8,0.2c0.1,0.9,0.4,1.7,0.7,2.5c-1.1,0.7,-2.4,1.3,-3.6,1.8c-1,0.5,-2.7,1.1,-3.4,2.2c-0.4,-0.1,-0.8,-0.1,-1.1,0.1c-0.5,0.3,-0.8,1,-1.1,1.5c-0.2,0.1,-0.3,0.2,-0.5,0.4c-0.2,0.2,-0.5,0.4,-0.6,0.8c-0.2,-0.1,-0.4,0.1,-0.3,0.3c0,-0.1,0,-0.2,0,0c-0.2,0.2,0,0.4,0.2,0.4c0.3,0.3,0.8,0.6,1.2,0.8c0.4,0.3,0.8,0.5,1.1,0.6c0.2,0.1,0.3,0.2,0.4,0.2c0,0.1,0.2,0.2,0.3,0.1l0.1,0c0.1,0,0.1,-0.1,0.1,-0.2c0.2,-0.1,0.3,-0.2,0.4,-0.3c0.4,0.2,0.7,0.5,1,0.9c0.2,0.2,0.3,0.4,0.5,0.6c0.2,0.3,0.5,0.6,0.8,0.8c0.1,0.1,0.1,0.3,0.2,0.4c0.2,0.3,0.4,0.6,0.7,0.8c0.1,0.1,0.2,0,0.3,0c0.7,0,1.4,-0.1,2.2,-0.1c0.4,-0.1,0.8,-0.3,1.2,-0.4c0.3,-0.1,0.6,-0.1,0.9,-0.2c0.1,0.1,0.3,0.1,0.3,0c0,-0.1,0,-0.1,0,-0.2c0.1,0,0,-0.1,0,-0.2c-0.1,-0.2,-0.2,-0.4,-0.4,-0.5c-0.2,-0.1,-0.4,-0.2,-0.6,-0.3c-0.1,0,-0.2,-0.1,-0.3,-0.1c-0.2,-0.1,-0.3,-0.2,-0.5,-0.3c0,0,-0.1,0,-0.2,0c0.1,-0.5,0.1,-1,-0.2,-1.2c0,-0.1,0,-0.1,0,-0.1c-0.2,-0.3,-0.4,-0.6,-0.5,-0.9c-0.2,-0.3,-0.3,-0.7,-0.5,-1c0.1,0,0.1,0,0.1,0c0.3,0,0.5,0,0.8,0.1c0.3,0.1,0.8,0.2,1.1,0c0,0.1,0,0.1,0.1,0.1c0.1,0.1,0.2,-0.1,0.2,-0.2c0.1,-0.3,0.2,-0.5,0.3,-0.7c0,0,0,-0.1,0,-0.1c0.2,-0.3,0.5,-0.5,0.7,-0.8c0.3,-0.1,0.7,-0.3,1,-0.4c0.7,-0.3,1.4,-0.6,2.1,-0.9c0.9,-0.3,1.7,-0.8,2.5,-1.3c0.7,-0.3,1.7,-0.6,2.3,-1.2c0.4,0,0.7,-0.1,0.9,-0.2c0.1,0,0.1,0,0.1,0c0.1,0.1,0.2,0.3,0.4,0.4c0.2,0.5,0.5,0.9,1,1.3c0.2,0.2,0.3,0.5,0.5,0.8c0.1,0.3,0.2,0.7,0.4,1c0.4,0.9,0.7,1.9,0.9,2.9c0.1,0.8,0.2,1.7,0.6,2.5c0.1,0.1,0.1,0.1,0.2,0.2c0,0.8,0,1.6,0.5,2.4c0.2,0.5,0.9,0.2,0.9,-0.3c0.3,0.3,0.9,0.3,1.1,-0.1c0.1,0.4,0.9,0.5,1.1,0.2c0.1,-0.3,0.3,-0.5,0.4,-0.7c0,-0.1,0.1,-0.1,0.1,-0.1c1,-0.5,1.8,-1.2,2.6,-1.8c0.4,-0.4,0,-0.9,-0.5,-0.8c-0.6,0.1,-1.1,0.4,-1.6,0.7c0,0,0,-0.1,0,-0.1c0,-0.1,0,-0.2,0.1,-0.3c0.1,-0.2,0.1,-0.4,0.2,-0.6c0.4,0,0.6,-0.3,0.8,-0.6c0.1,-0.2,0.1,-0.3,0.1,-0.4c0.2,-0.1,0.2,-0.2,0.3,-0.4c0.1,-0.2,0.2,-0.5,0,-0.7c0,-0.1,-0.1,-0.1,-0.1,-0.2l-0.1,-0.1c0,-0.2,-0.1,-0.3,-0.1,-0.5c0.2,-0.8,0.1,-1.8,0,-2.6c-0.1,-1.2,-0.3,-2.3,-0.5,-3.5c-0.1,-0.9,-0.3,-1.8,-0.4,-2.7c-0.1,-0.5,-0.2,-1,-0.3,-1.6c0,-0.1,0,-0.2,0,-0.3C140,93.6,139.9,92.8,139.7,92c0,-0.6,0,-1.3,-0.1,-2c0.1,-0.1,0.1,-0.1,0.2,-0.2c0,-0.1,0.1,-0.2,0.2,-0.3c0,-0.2,0.1,-0.3,0.1,-0.4c0.1,0,0.1,-0.1,0.1,-0.1c0.3,-1.3,-0.4,-3.5,-1.4,-4.2c-0.1,-0.1,-0.1,-0.1,-0.2,0c-0.2,-0.2,-0.5,-0.3,-0.8,-0.5c0.3,-0.1,0.4,-0.5,0.1,-0.8c-0.4,-0.4,-1,-0.6,-1.6,-0.9c0,-0.4,-0.3,-0.8,-0.6,-1.2c-0.2,-0.2,-0.6,-0.4,-0.9,-0.5c-0.1,-0.1,-0.2,-0.3,-0.4,-0.4c-0.2,-0.6,-0.4,-1.1,-0.7,-1.6c0,-0.3,0,-0.5,0,-0.8c0,0,0,-0.1,0,-0.1c0.1,-0.2,0.1,-0.3,0.1,-0.4c0,-0.1,0.1,-0.1,0.1,-0.2c0,-0.1,0,-0.1,0,-0.2c0.1,0,0.2,0,0.2,0c0.1,0,0.3,0,0.3,-0.1c0.1,-0.4,0.1,-0.7,0.1,-1c0,-0.1,0.1,-0.1,0.1,-0.2c0,-0.8,0,-1.6,0,-2.4c0,0,0.1,0,0.1,0c0,-0.2,0,0,0.1,-0.5c0.2,-0.4,0,-0.2,0,-0.6c0,-0.4,0.4,-0.6,0.2,-1.6c-0.2,-0.9,0.2,-0.5,0.1,-0.9c0,-0.4,0.2,-0.5,0.2,-0.5c0,0,0.1,-0.2,0.2,-0.8c0,-0.6,0.3,-0.6,0.3,-0.6c0,0,0,0.4,0.5,0.2c0.6,-0.3,1,-1.6,1,-1.6l0.2,-0.5l0.9,-0.6l0.2,0.4c0.1,0.4,0.6,1.1,0.8,1.3c0,0.2,0.1,0.4,0.2,0.5c0.1,0.1,0.1,0.2,0.2,0.2c0.1,0.2,0.2,0.4,0.3,0.6c0.4,0.5,1.3,1.1,2,0.8c0,0.1,0,0.2,0,0.2c0,0.1,0.1,0.1,0.2,0.1c0.2,0,0.4,-0.1,0.6,-0.1c0.4,0,0.7,0.1,1,0.2c0.4,0.1,1,0.4,1.4,0.3c0.1,0,0.3,0,0.3,-0.1c0.1,-0.3,0.3,-0.6,0.6,-0.7c0.3,-0.1,0.5,-0.1,0.8,-0.2c0.1,-0.1,0.1,-0.1,0.1,-0.2c0.6,-0.1,1.1,-0.2,1.7,-0.3c0.9,-0.1,2,-0.1,2.9,-0.5l0.1,-0.1c0,0,0.1,0,0.1,0c0.2,0,0.4,0.1,0.5,0.1c0.3,0.1,0.6,0,0.8,-0.1c0.2,0,0.4,0.1,0.6,0.1l0.1,0c0.3,0.2,0.6,0.2,1,0.1c0.3,0,0.6,-0.1,0.9,-0.2c0.3,-0.1,0.7,-0.1,1.1,-0.2c0.2,-0.1,0.2,-0.3,0.1,-0.5c-0.1,-0.1,0.1,-0.4,0.1,-0.7c0,-0.1,0.1,-0.2,0.2,-0.3c0.1,-0.2,0,-0.4,-0.1,-0.6c0,-0.1,-0.1,-0.3,-0.2,-0.4c0,0,0,-0.1,0,-0.1c0.1,-0.1,0.2,-0.2,0.2,-0.3c0,-0.1,-0.1,-0.1,-0.1,-0.2C157,64.5,157,64.3,156.9,64.1c0.3,-0.1,0.5,-0.4,0.3,-0.8m-26,30.3c0,0,0,-0.1,0,-0.1c0.1,0.3,0.1,0.5,0.2,0.7c0,0,0,0.1,0,0.1c0,0,0,0.1,0,0.1c-0.1,-0.2,-0.1,-0.5,-0.2,-0.8m-14.3,11.7c0,0,0,-0.1,0,-0.1c0,0,0,0.1,0,0.1m22.2,-13c0,0,0,0.1,0,0.1c0,0.1,0,0.2,0,0.2c0,-0.1,0,-0.2,0,-0.3M119.4,80.1c0,0,0.1,0,0.1,0c0,0.1,0,0.2,0,0.3c0,-0.1,0,-0.2,-0.1,-0.3m0.2,29.1l0,0.1c0,-0.1,0,-0.1,0,-0.1M139.3,93.3c0,0,0,0.1,0,0.1c0,0.1,0,0.2,0.1,0.3c-0.1,-0.1,-0.1,-0.2,-0.1,-0.4m-1.7,-8l0,0c0,0,0,-0.1,0,-0.1c0,0,0.1,0,0.1,0c-0.1,0,-0.1,0.1,-0.1,0.1m-24.8,21.8c0,0.1,0,0.1,0,0.1c0,0,-0.1,0,-0.1,0c-0.1,-0.1,-0.2,-0.1,-0.2,-0.1c0.1,0,0.2,0,0.3,0M120,95.9c0,0,0.1,0,0.1,0c-0.1,0,-0.1,0,-0.1,0M137.7,111.3c0,0,-0.1,0,-0.1,0c-0.1,0,-0.1,0,0.1,0M146,64c0,0,-0.1,-0.1,-0.1,-0.1c0.1,0,0.1,0.1,0.1,0.1m-0.1,-0.1c-0.1,0,-0.2,0,-0.2,0c0,0,0.1,0,0.2,0m10.5,3.2c0,-0.1,0,-0.1,0,-0.1c0,-0.1,0,-0.1,0.1,-0.1l0,0.1c-0.1,0,-0.1,0,-0.1,0.1m-0.3,0.4c0.1,0,0.1,-0.1,0.2,-0.2c0,0,0.1,0.1,0.1,0.1c-0.1,0,-0.2,0.1,-0.3,0.1Z" class="g6_2" />
<path d="M47.8,99.3l0,57.3L102,149.5l0,-57.3Z" class="g2_2" />
<path d="M47.8,99.3l0,57.3L102,149.5l0,-57.3L47.8,99.3Z" class="g3_2" />
<path d="M49,152.3l53,-7.5M49,103.1l53,-6.7" class="g5_2" />
<path d="M102,92.2L65,86.7L65,144l37,5.5Z" class="g8_2" />
<path d="M102,92.2L65,86.7L65,144l37,5.5l0,-57.3Z" class="g3_2" />
<path d="M399.7,144C305.3,161.2,159.4,126.9,65,144L65,86.7c94.4,-17.1,240.3,17.2,334.7,0Z" class="g2_2" />
<path d="M401,138.5c0,0,-31.3,13.2,-175.2,0.5C124.2,130,73.5,137.9,65.6,139.3M399.7,91.2c0,0,-30.4,12.3,-174.2,-0.4C123.8,81.8,73.1,89.7,65.3,91" class="g5_2" />
<path d="M399.7,144C305.3,161.2,159.4,126.9,65,144L65,86.7c94.4,-17.1,240.3,17.2,334.7,0l0,57.3Z" class="g3_2" />
<path d="M396.3,59.5l0,111.9c1.6,-3.8,3.2,-5.4,3.2,-5.4l0,-101.1c0,0,-1.6,-1.6,-3.2,-5.4Z" class="g2_2" />
<path d="M396.3,59.5l0,111.9c1.6,-3.8,3.2,-5.4,3.2,-5.4l0,-101.1c0,0,-1.6,-1.6,-3.2,-5.4Z" class="g7_2" />
<path d="M399.5,81.2c0,0,1.7,-15.8,12.9,-15.8l33.6,0c0,0,10.9,3.7,31.3,3.7m-77.8,80.6c0,0,1.7,15.8,12.9,15.8l33.6,0c0,0,10.9,-3.7,31.3,-3.7" class="g7_2" />
<path d="M879.1,81.2c0,0,-1.6,-15.8,-12.8,-15.8l-33.7,0c0,0,-10.9,3.7,-31.3,3.7m77.8,80.6c0,0,-1.6,15.8,-12.8,15.8l-33.6,0c0,0,-11,-3.7,-31.4,-3.7" class="g7_2" />
<path d="M845.6,69.1c-7.9,1.4,-17.5,3,-26.2,3l-360.1,0c-8.8,0,-18.4,-1.6,-26.3,-3m0,92.7c7.9,-1.4,17.5,-3,26.3,-3l360.1,0c8.7,0,18.3,1.6,26.2,3" class="g5_2" />
<path d="M882.3,59.5l0,111.9c-1.6,-3.8,-3.2,-5.4,-3.2,-5.4l0,-101.1c0,0,1.6,-1.6,3.2,-5.4Z" class="g2_2" />
<path d="M882.3,59.5l0,111.9c-1.6,-3.8,-3.2,-5.4,-3.2,-5.4l0,-101.1c0,0,1.6,-1.6,3.2,-5.4Z" class="g7_2" />
<path d="M404.9,102.1l470.2,0" class="g9_2" />
<path d="M404.9,141.9l470.2,0" class="g9_2" />
<path d="M308.6,581L48.9,581l-7.6,7.7l0,576.1l7.6,7.6l259.7,0l7.7,-7.6l0,-576.1Zm5.5,8.6l0,5.9c-0.6,-1.9,-1.5,-3.9,-2.7,-5.7l0,-0.2l-0.1,0c-1.7,-2.6,-4.2,-5,-7.7,-6.5l4.1,0Zm-13.5,580.7l-243.8,0c-4,-0.9,-7.2,-3.1,-9.6,-6.5l0,-574.1c2.1,-2.9,5.2,-5.5,9.7,-6.6l243.8,0c4,1,7.2,3.2,9.6,6.6l0,574.1c-2.1,2.9,-5.2,5.4,-9.7,6.5M43.4,599c0.4,-2.2,1.2,-4.9,2.7,-7.5l0,570.5c-0.3,-0.5,-0.5,-0.9,-0.8,-1.4c-1,-2.1,-1.6,-4.2,-1.9,-6Zm268,-7.5c0.3,0.4,0.5,0.9,0.8,1.4c1,2.1,1.6,4.2,1.9,6l0,555.6c-0.4,2.2,-1.2,4.9,-2.7,7.5ZM49.8,583.1l4.1,0c-3.5,1.5,-6,3.9,-7.7,6.5l-0.1,0l0,0.2c-1.2,1.8,-2.1,3.8,-2.7,5.7l0,-5.9Zm-6.4,580.8l0,-5.9c0.6,1.9,1.5,3.9,2.7,5.7l0,0.1l0.1,0c1.7,2.7,4.2,5.1,7.7,6.5l-4.1,0Zm264.3,6.4l-4.1,0c3.5,-1.4,6,-3.8,7.7,-6.5l0.1,0l0,-0.1c1.2,-1.8,2.1,-3.8,2.7,-5.7l0,5.9Z" class="g6_2" />
<path d="M886.1,565.3l-548.4,0l-7.7,7.6l0,324.7l7.7,7.7l548.4,0l7.7,-7.7l0,-324.7Zm5.5,8.5l0,5.9c-0.6,-1.8,-1.5,-3.8,-2.7,-5.7l0,-0.1l-0.1,0c-1.7,-2.7,-4.2,-5.1,-7.7,-6.5l4.1,0ZM878.1,903.2l-532.5,0c-4,-1,-7.2,-3.2,-9.6,-6.6l0,-322.7c2.1,-2.9,5.1,-5.4,9.6,-6.5l532.6,0c4,0.9,7.2,3.1,9.6,6.5l0,322.7c-2.1,2.9,-5.2,5.5,-9.7,6.6m-546,-320c0.5,-2.2,1.3,-4.9,2.7,-7.5l0,319.1c-0.2,-0.4,-0.5,-0.9,-0.7,-1.4c-1,-2.1,-1.6,-4.2,-2,-6Zm556.8,-7.5c0.3,0.5,0.5,0.9,0.8,1.4c1,2.1,1.6,4.2,1.9,6l0,304.3c-0.4,2.1,-1.2,4.8,-2.7,7.4ZM338.5,567.4l4.2,0c-3.5,1.4,-6,3.8,-7.8,6.5l-0.1,0l0,0.1c-1.2,1.9,-2.1,3.9,-2.7,5.7l0,-5.9Zm-6.4,329.3l0,-5.9c0.6,1.9,1.5,3.9,2.7,5.8l0,0.1l0.1,0c1.8,2.6,4.3,5,7.8,6.5l-4.2,0Zm553.1,6.5l-4.1,0c3.5,-1.5,6,-3.9,7.7,-6.5l0.1,0l0,-0.1c1.2,-1.9,2.1,-3.9,2.7,-5.8l0,5.9Z" class="g6_2" />
<path d="M886.5,190.4l-548.8,0L330,198l0,350.5l7.7,7.7l548.8,0l7.7,-7.7l0,-350.5Zm5.6,8.5l0,5.9c-0.6,-1.8,-1.5,-3.8,-2.7,-5.7l0,-0.1l-0.1,0c-1.8,-2.6,-4.3,-5,-7.8,-6.5l4.2,0ZM878.6,554.1l-533,0c-4,-1,-7.2,-3.2,-9.6,-6.6l0,-348.4c2.1,-3,5.1,-5.5,9.6,-6.6l533,0c4,1,7.2,3.2,9.6,6.5l0,348.5c-2.1,2.9,-5.1,5.5,-9.6,6.6M332.1,208.3c0.5,-2.2,1.3,-4.9,2.7,-7.4l0,344.8c-0.2,-0.4,-0.5,-0.9,-0.7,-1.4c-1,-2.1,-1.6,-4.2,-2,-6Zm557.3,-7.5c0.2,0.5,0.5,0.9,0.7,1.4c1,2.1,1.6,4.3,2,6l0,330c-0.5,2.2,-1.3,4.9,-2.7,7.5ZM338.5,192.5l4.2,0c-3.5,1.5,-6,3.9,-7.8,6.5l-0.1,0l0,0.1c-1.2,1.9,-2.1,3.9,-2.7,5.7l0,-5.9Zm-6.4,355.1l0,-5.9c0.6,1.9,1.5,3.9,2.7,5.7l0,0.2l0.1,0c1.8,2.6,4.3,5,7.8,6.5l-4.2,0Zm553.6,6.5l-4.2,0c3.5,-1.5,6,-3.9,7.8,-6.5l0.1,0l0,-0.2c1.2,-1.8,2.1,-3.8,2.7,-5.7l0,5.9Z" class="g6_2" />
<path d="M886.1,914.4l-548.4,0L330,922l0,242.7l7.7,7.7l548.4,0l7.7,-7.7l0,-242.7Zm5.5,8.5l0,5.9C891,927,890.1,925,888.9,923.1l0,-0.1l-0.1,0c-1.7,-2.7,-4.2,-5,-7.7,-6.5l4.1,0Zm-13.5,247.4l-532.5,0c-4,-1,-7.2,-3.2,-9.6,-6.6l0,-240.6c2.1,-3,5.1,-5.5,9.6,-6.6l532.6,0c4,0.9,7.2,3.1,9.6,6.5l0,240.7c-2.1,2.9,-5.2,5.5,-9.7,6.6m-546,-238c0.5,-2.2,1.3,-4.9,2.7,-7.4l0,237c-0.2,-0.4,-0.5,-0.9,-0.7,-1.3c-1,-2.2,-1.6,-4.3,-2,-6.1Zm556.8,-7.5c0.3,0.5,0.5,0.9,0.8,1.4c1,2.1,1.6,4.2,1.9,6l0,222.3c-0.4,2.1,-1.2,4.8,-2.7,7.4ZM338.5,916.5l4.2,0c-3.5,1.5,-6,3.8,-7.8,6.5l-0.1,0l0,0.1c-1.2,1.9,-2.1,3.9,-2.7,5.7l0,-5.9Zm-6.4,247.3l0,-5.9c0.6,1.9,1.5,3.9,2.7,5.8l0,0.1l0.1,0c1.8,2.6,4.3,5,7.8,6.5l-4.2,0Zm553.1,6.5l-4.1,0c3.5,-1.5,6,-3.9,7.7,-6.5l0.1,0l0,-0.1c1.2,-1.9,2.1,-3.9,2.7,-5.8l0,5.9Z" class="g6_2" />
<path d="M308.6,190.4l-14.7,0c-1.7,-2.9,-2.9,-6.3,-2.9,-9.8l0,-1l-84.5,0c-8.8,-2.6,-18.1,-3.9,-27.8,-3.9c-9.6,0,-18.9,1.3,-27.8,3.9l-84.5,0l0,1c0,3.5,-1.1,6.9,-2.8,9.8l-14.7,0l-7.6,7.7l0,350.3l7.6,7.7l14.8,0c1.6,2.9,2.7,6.2,2.7,9.6l0,1.1l84.6,0c8.8,2.5,18.1,3.8,27.7,3.8c9.7,0,19,-1.3,27.8,-3.8l84.5,0l0,-1.1c0,-3.4,1.2,-6.7,2.8,-9.6l14.8,0l7.7,-7.7l0,-350.3ZM139.1,186c0.9,0,1.6,-0.7,1.6,-1.6c0,-0.1,0,-0.2,0,-0.2c2.1,-1,4.3,-1.8,6.6,-2.5l62.9,0c2.3,0.7,4.5,1.5,6.6,2.5c0,0,0,0.1,0,0.2c0,0.9,0.7,1.6,1.6,1.6c0.5,0,0.9,-0.3,1.2,-0.6c1.7,0.8,3.3,1.6,5,2.4l-91.7,0c1.7,-0.8,3.3,-1.6,4.9,-2.4c0.3,0.3,0.8,0.6,1.3,0.6m-12.3,4.4l-58.4,0c1.3,-2,4.8,-5.6,12.9,-5.6l55.6,0c-3.5,1.7,-6.9,3.5,-10.1,5.6m4.5,-1.6l94.9,0c1,0.5,1.9,1,2.8,1.6l-100.5,0c0.9,-0.6,1.8,-1.1,2.8,-1.6m99.4,1.6c-3.2,-2.1,-6.6,-3.9,-10.1,-5.6l55.8,0c8.1,0,11.6,3.6,12.9,5.6Zm60.8,0l-1.2,0c-0.8,-1.5,-2.9,-4.2,-7.4,-5.6l6.6,0c0.4,2,1.1,3.9,2,5.6M289,181.7c0,0.7,0.1,1.5,0.2,2.2l-69.3,0c-0.2,-0.7,-0.8,-1.2,-1.5,-1.2c-0.5,0,-0.9,0.3,-1.2,0.6c-1.4,-0.6,-2.8,-1.1,-4.2,-1.6Zm-110.3,-5c8.4,0,16.5,0.9,24.3,2.9l-48.5,0c7.8,-2,15.9,-2.9,24.2,-2.9m-34.2,5c-1.4,0.5,-2.8,1,-4.2,1.6c-0.3,-0.3,-0.7,-0.6,-1.2,-0.6c-0.8,0,-1.4,0.5,-1.6,1.2l-69.2,0c0.1,-0.7,0.2,-1.5,0.2,-2.2ZM68,184.8l6.7,0c-4.5,1.4,-6.6,4.1,-7.4,5.6l-1.3,0c0.9,-1.7,1.6,-3.6,2,-5.6M43.4,198.9l6.4,-6.4l4.1,0c-3.5,1.5,-6,3.9,-7.7,6.5l-0.1,0l0,0.1C44.9,201,44,203,43.4,204.8Zm0,9.4c0.4,-2.1,1.2,-4.8,2.7,-7.4l0,344.8c-0.3,-0.5,-0.5,-0.9,-0.8,-1.4c-1,-2.1,-1.6,-4.3,-1.9,-6ZM49.8,554l-6.4,-6.4l0,-5.9c0.6,1.8,1.5,3.8,2.7,5.7l0,0.1l0.1,0c1.7,2.6,4.2,5,7.7,6.5Zm168.6,6.4c-0.9,0,-1.6,0.7,-1.6,1.6c0,0.1,0,0.1,0,0.2c-2.1,0.9,-4.3,1.7,-6.6,2.5l-62.9,0c-2.3,-0.7,-4.5,-1.6,-6.6,-2.5c0,-0.1,0,-0.1,0,-0.2c0,-0.9,-0.7,-1.6,-1.6,-1.6c-0.5,0,-1,0.2,-1.2,0.6c-1.7,-0.8,-3.3,-1.6,-5,-2.5l91.7,0c-1.7,0.9,-3.3,1.7,-4.9,2.5c-0.3,-0.4,-0.8,-0.6,-1.3,-0.6m12.1,-4.3l58.5,0c-1.4,2,-4.8,5.4,-12.8,5.4l-55.6,0c3.4,-1.6,6.7,-3.4,9.9,-5.4m-4.3,1.5l-94.9,0c-0.9,-0.5,-1.8,-1,-2.6,-1.5l100.1,0c-0.8,0.5,-1.7,1,-2.6,1.5M127,556.1c3.2,2,6.5,3.8,9.9,5.4l-55.8,0c-7.9,0,-11.4,-3.4,-12.8,-5.4Zm-60.9,0l1.1,0c0.9,1.5,3,4.1,7.4,5.4l-6.6,0c-0.4,-1.9,-1,-3.7,-1.9,-5.4m2.4,8.6c0,-0.8,-0.1,-1.5,-0.2,-2.2l69.3,0c0.2,0.6,0.7,1.1,1.5,1.1c0.5,0,0.9,-0.2,1.2,-0.5c1.4,0.5,2.8,1.1,4.2,1.6Zm110.2,5c-8.3,0,-16.4,-1,-24.2,-2.9l48.5,0c-7.8,1.9,-15.9,2.9,-24.3,2.9m34.3,-5c1.4,-0.5,2.8,-1.1,4.2,-1.6c0.3,0.3,0.7,0.5,1.2,0.5c0.8,0,1.4,-0.5,1.6,-1.1l69.2,0c-0.1,0.7,-0.2,1.4,-0.2,2.2Zm76.5,-3.2l-6.7,0c4.3,-1.3,6.4,-3.9,7.3,-5.4l1.3,0c-0.9,1.7,-1.5,3.5,-1.9,5.4M56.8,554c-4,-1,-7.2,-3.2,-9.6,-6.5l0,-348.4c2.1,-3,5.2,-5.5,9.7,-6.6l243.8,0c4,1,7.2,3.2,9.6,6.5l0,348.4c-2.1,3,-5.2,5.5,-9.7,6.6Zm257.3,-6.4l-6.4,6.4l-4.1,0c3.5,-1.5,6,-3.9,7.7,-6.5l0.1,0l0,-0.1c1.2,-1.9,2.1,-3.9,2.7,-5.7Zm0,-9.4c-0.4,2.2,-1.2,4.8,-2.7,7.4l0,-344.7c0.3,0.4,0.5,0.8,0.8,1.3c1,2.1,1.6,4.3,1.9,6Zm0,-333.4c-0.6,-1.8,-1.5,-3.8,-2.7,-5.7l0,-0.1l-0.1,0c-1.7,-2.6,-4.2,-5,-7.7,-6.5l4.1,0l6.4,6.4Z" class="g6_2" />
<path d="M866.1,223.9c-7.3,-5.3,-10.6,-12.2,-10.6,-12.2l-207.2,0c0,0,-3.4,6.9,-10.6,12.2" class="g3_2" />
<path d="M646.6,214.6l209.1,0m-55.6,0C786,219.3,769.5,222,751.9,222c-17.7,0,-34.2,-2.7,-48.3,-7.4" class="g10_2" />
<path d="M753.8,222c0,1,-0.9,1.9,-1.9,1.9c-1.1,0,-2,-0.9,-2,-1.9c0,-1.1,0.9,-2,2,-2c1,0,1.9,0.9,1.9,2Z" class="g6_2" />
<path d="M637.7,436.6c7.2,5.4,10.6,12.2,10.6,12.2l207.2,0c0,0,3.3,-6.8,10.6,-12.2" class="g3_2" />
<path d="M857.2,446L648,446m55.6,0c14.1,-4.7,30.6,-7.4,48.3,-7.4c17.6,0,34.1,2.7,48.2,7.4" class="g10_2" />
<path d="M749.9,438.6c0,-1.1,0.9,-2,2,-2c1.1,0,1.9,0.9,1.9,2c0,1.1,-0.8,1.9,-1.9,1.9c-1.1,0,-2,-0.8,-2,-1.9Z" class="g6_2" />
<path d="M229.9,71.7c0.5,0,0.5,0.6,0,0.6l-0.6,0l0,-0.6Zm0.4,1.1c1,-0.2,0.8,-1.8,-0.4,-1.8l-1.3,0l0,2.8l0.7,0l0,-0.9l0.3,0l0.6,0.9l0.8,0l0,-0.2Zm-0.6,1.8c1.3,0,2,-1,2,-2.2c0,-1.2,-0.7,-2.1,-2,-2.1c-1.3,0,-2,0.9,-2,2.1c0,1.2,0.7,2.2,2,2.2m2.7,-2.2c0,1.5,-1,2.7,-2.7,2.7C228,75.1,227,73.9,227,72.4c0,-1.5,1,-2.7,2.7,-2.7c1.7,0,2.7,1.2,2.7,2.7Z" class="g6_2" />
<g clip-path="url(#c0_2)">
<path d="M222.3,50c-2,-1,-3.9,-1.5,-6.6,-1.6l-5.4,0c-4.2,0,-6.2,-0.1,-7.7,-0.4c-1.3,-0.3,-2.4,-1,-2.4,-1l-0.4,-0.3l0.1,0.4c0,0.2,0.3,3,3.7,5.5c0.7,0.5,1.1,1,1.1,2.7l0,1.1c0.8,-0.4,1.6,-0.9,2.5,-1.2c-0.3,0.3,-0.7,0.7,-1,1.1c0.6,-0.4,1.3,-0.7,2.6,-1c1.6,-0.2,2.8,-0.1,3.4,0l0,-0.4l3,0c3.9,0,6.2,2.5,6.2,6.9c0,4.3,-2.3,6.8,-6.2,6.8l-1.2,0c1.1,1,1.7,2.3,1.7,3.7c0,1,-0.3,2,-0.9,2.8c3.7,0,6.1,-0.7,8.7,-2.4c1.1,-0.8,2.1,-1.6,2.9,-2.6c1.7,-2.2,2.7,-5.3,2.7,-8.4c0,-5.1,-2.5,-9.4,-6.8,-11.7M206.1,68.7c0.2,-0.2,0.2,-0.5,0.1,-0.8l-0.9,-2.4l2.2,1.3c0.2,0.1,0.4,0.3,0.6,0.4l1.3,-0.1c1,-0.1,1.9,0.1,2.8,0.4l0,-6.7c-0.5,0.1,-0.9,0.3,-1,0.5l-0.6,0.5L210,61.3c-0.4,-0.3,-1,-0.4,-1.6,-0.4c-1,0,-2,0.4,-2.6,1.1c-0.4,0.5,-0.7,0.9,-1.1,1.4l0,5.3c0.6,0.4,1.1,0.4,1.4,0M179.4,68.4l-0.9,1.1l0.3,-3.3c0.3,-2.7,1.9,-4.6,3.1,-5.6c-0.3,0,-0.5,0,-0.8,0.1l-2.9,0.6l2.1,-2.1c0.7,-0.8,1.7,-1.3,2.6,-1.8c0.1,0,0.2,-0.1,0.4,-0.2c-1.1,-3.1,-3.2,-5.6,-6.2,-7.2c-1.9,-1,-3.9,-1.5,-6.6,-1.6l-5.3,0c-4.3,0,-6.3,-0.1,-7.8,-0.4C156.2,47.7,155,47,155,47l-0.3,-0.3l0,0.4c0,0.2,0.3,3,3.8,5.5c0.6,0.5,1.1,1,1.1,2.7l0,15.4c0,1.7,-0.3,2.1,-1.1,2.6c-0.8,0.5,-2.5,1.5,-2.5,1.5l-0.6,0.3l13.9,0c4,0,6.4,-0.6,9,-2.4c0.4,-0.3,0.8,-0.5,1.1,-0.8c-0.2,-1.2,-0.2,-2.4,0,-3.5M212.2,56.3l0,-0.7c-0.5,0.1,-1.2,0.4,-1.5,0.6c0.5,0,1,0,1.5,0.1M170,68.6l-3,0l0,-13.7l3,0c4,0,6.2,2.5,6.2,6.9c0,4.3,-2.2,6.8,-6.2,6.8Z" class="g6_2" />
<path d="M209.3,68.9c0.4,0.1,1.2,0.6,1.2,1.3c0,0.5,-0.2,0.8,-0.6,1.1c-0.2,0.1,-0.4,0.2,-0.7,0.3c0.2,-0.4,0.2,-0.9,0.2,-1.4c0,-0.8,-0.1,-1.3,-0.1,-1.3M208.7,58.8c-4,0.2,-7.4,3.6,-9.2,5.9c0.3,0.1,0.7,0.3,1,0.5c0.3,0.3,0.9,0.8,1.5,1.3c0.4,-1.1,1.5,-3.2,3.1,-5.1c1.5,-1.7,4.1,-1.8,5.5,-0.8c0.8,-0.8,3.8,-1.5,5.4,-1.1c-0.9,-1,-3,-2.4,-5.3,-2.4c-1.8,0,-2.9,0.9,-3.2,0.5c-0.3,-0.6,1.3,-1.3,1.3,-1.3c-2.2,0,-3.8,2.6,-4.5,2.3c-0.4,-0.2,0.6,-1.4,0.6,-1.4c-2,1.1,-3.7,3.6,-4,5.1c1.8,-2.2,5.4,-3.9,7.8,-3.5m-9.2,12.8c-0.8,-0.6,-2,-1.6,-2.9,-2.3c-1,1.7,-3.1,3.9,-5.3,3.9c-4,0,-6,-5.6,-1.5,-10.3c-0.3,-0.1,-0.6,-0.1,-0.6,-0.1c-0.4,0,-0.8,0.1,-1,0.3l-1.8,1.2l0.4,-2.2c0,-0.1,0.1,-0.3,0.1,-0.4c-1,0.5,-2,1.3,-2.4,1.7l-1.7,1.9L183,62.6c0,-0.2,0.1,-0.4,0.1,-0.6c0.1,-0.4,0.2,-1,0.1,-1.2c0,0,0,-0.1,-0.1,-0.1c-0.8,0.6,-3.1,2.7,-3.4,5.6c0,0,0.5,-0.6,0.9,-0.8c0.2,-0.1,0.4,0.1,0.2,0.8c-0.1,0.3,-2.3,6.2,2,10.3c0,0,-0.5,-1.2,-0.2,-1.5c0.2,-0.2,0.3,-0.2,0.6,0.1c0.2,0.2,0.4,0.5,0.6,0.7c0.3,0.4,0.7,0.8,1.2,1.1c1.2,0.9,3,1.6,5,1.6c5.3,0,8.1,-3.6,9.7,-6.7c-0.1,-0.1,-0.1,-0.2,-0.2,-0.3m15.3,0.7c0,-2.6,-2.5,-4.5,-5.3,-4.3c0.8,0.2,1.9,1,1.9,2.2c0,2.1,-2.5,2.7,-3.9,2.4c1.5,-1.1,1.3,-4,-0.5,-5c0.6,1.6,-1.1,3.2,-2.9,1.8c-1,-0.8,-3.2,-2.7,-4.2,-3.5c-1,-0.8,-2.2,-0.3,-2.6,-0.6c-0.6,-0.4,-0.2,-1.6,-0.9,-2c-0.6,-0.3,-1.2,-0.1,-1.9,-0.4c-0.7,-0.2,-1.1,-0.7,-1.1,-1.3c-0.2,0.4,-0.2,1.3,0.2,1.8c0.5,0.6,1.3,0.9,1.6,1.5c0.5,0.8,-0.3,1.9,1.6,3.4c1,0.7,2.4,1.9,3.3,2.7c1.5,1.3,0.7,3,0.9,4.5c0.2,1.7,1.6,2.7,2.5,2.9c-0.8,-0.7,-1.1,-2.5,0.1,-3.6c0,1.4,1.1,3.6,3.4,4.3c2.5,0.6,5.2,-0.8,5.8,-1.8c-1,0.5,-2.8,0,-3.6,-0.7c3,0.4,5.6,-1.7,5.6,-4.3M195.3,60c0,0,-0.4,-1.3,-1.7,-1.7c0.3,0.9,0.6,1.7,1.7,1.7M180.9,59.8c1.3,-1.3,3.9,-2.1,4.1,-2.8c0.1,-0.6,-1.2,-1.8,-1.7,-2c1.8,-0.1,2.8,0.3,2.8,0.3c-0.5,-0.8,-0.7,-1.8,-0.4,-2.7c1,2.4,4.6,2.8,5.5,4.8c-0.1,-0.9,-0.9,-1.8,-1.9,-2.4c-0.5,-1.3,-0.1,-3.7,0.5,-4.4c-0.2,3.5,4.8,5.5,5.8,8c-0.6,-2.2,-2.9,-3.5,-4,-4.8c-0.4,-0.9,-0.1,-2.4,0.3,-2.9c-0.1,2.4,2.4,4.2,3.7,5.5c1.6,1.5,2.1,2.9,1.9,4c0.3,0.1,0.8,0.4,0.7,1c0.5,-0.1,1,-0.7,1.2,-1c0.2,1.7,-0.8,3.5,-2,4.1c0,0,0.4,-0.8,-0.2,-1.5c-0.5,-0.6,-1.9,-0.6,-2.4,-0.6c0,0,0.6,-0.9,0.3,-1.3c-0.3,-0.6,-3.1,-0.3,-4.4,0.1c0.4,0,1.5,0.1,1.8,0.2c-0.2,0.3,-0.7,1.6,-0.3,2c0.3,0.3,0.8,-0.3,0.8,-0.3c0,0,-0.5,1.4,-0.1,1.7c0.3,0.3,1,0.1,1,0.1c-0.5,1.1,-2.1,1.8,-3.3,1.8c0.4,-0.1,1.1,-0.8,1.2,-1.3c-0.3,0.2,-1.1,0.3,-1.4,0.2c0.4,-0.2,1.1,-1.1,0.9,-2.2c-0.3,-1.6,-2.5,-1.8,-3.7,-1c0.4,-1.1,1.5,-2.1,2.3,-2.4c-0.5,-0.2,-1.1,-0.3,-1.7,-0.5c0.7,-0.5,2.5,-1,3.4,-1c-1.4,-0.3,-3.9,0.1,-5,1.5c0.3,0,1.3,0.2,1.6,0.3c-1.5,0.3,-3.7,1.8,-4.3,2.5c0.1,-1,0.4,-1.7,0.2,-2.3c-0.3,-0.8,-1.3,-1.1,-3.2,-0.7m3,-8.2c-0.3,-3,1.1,-4.6,1.8,-5.3c1.4,-1.4,3.3,-2.3,6.1,-2.1c4.5,0.2,6.6,3.2,6.6,6.5c0,1.6,-0.8,3.8,-1.9,5.3c-0.1,-0.1,-0.2,-0.2,-0.2,-0.2c-0.2,-0.3,-0.5,-0.5,-0.8,-0.7c-0.7,-0.7,-1.5,-1.5,-2.1,-2.3c1.2,-2.2,0.5,-5.3,-2,-5.3c-1.5,0,-2.8,1.3,-2.7,3.2c-0.4,0.9,-0.6,2.1,-0.5,3.2c-0.7,-0.4,-1.4,-0.9,-1.7,-1.7L185.6,50l-0.8,2.3c-0.1,0.6,-0.2,1.2,-0.1,1.8c-0.3,-0.5,-0.7,-1.3,-0.8,-2.5Z" class="g6_2" />
</g>
</svg>