<?xml version="1.0" encoding="UTF-8" standalone="no"?>
<!DOCTYPE svg PUBLIC "-//W3C//DTD SVG 1.1//EN"
"http://www.w3.org/Graphics/SVG/1.1/DTD/svg11.dtd">
<svg viewBox="0 0 935 1210" version="1.1" xmlns="http://www.w3.org/2000/svg" xmlns:xlink="http://www.w3.org/1999/xlink">
<defs>
<clipPath id="c0_3"><path d="M278.3,67.7l0,-35.8l77.7,0l0,35.8Z" /></clipPath>
<style type="text/css"><![CDATA[
.g1_3{
fill: #DEDFDF;
}
.g2_3{
fill: #E0E1E1;
}
.g3_3{
fill: #FFFFFF;
}
.g4_3{
fill: none;
stroke: #DEDFDF;
stroke-width: 1.5277778;
stroke-linecap: butt;
stroke-linejoin: miter;
}
.g5_3{
}
.g6_3{
fill: none;
stroke: #000000;
stroke-width: 1.9097222;
stroke-linecap: butt;
stroke-linejoin: miter;
}
.g7_3{
fill: none;
stroke: #000000;
stroke-width: 2.1006944;
stroke-linecap: butt;
stroke-linejoin: miter;
}
.g8_3{
fill: none;
stroke: #000000;
stroke-width: 1.1458334;
stroke-linecap: butt;
stroke-linejoin: miter;
}
.g9_3{
fill: #C3C4C6;
}
.g10_3{
fill: none;
stroke: #000000;
stroke-width: 0.9166667;
stroke-linecap: butt;
stroke-linejoin: miter;
}
.g11_3{
fill: none;
stroke: #000000;
stroke-width: 0.38194445;
stroke-linecap: butt;
stroke-linejoin: miter;
}
]]></style>
</defs>
<path d="M143.2,93.6l35.5,2.7l-35.5,2.6L107.7,96.3Zm212.7,10l35.5,2.6l35.5,-2.6l-35.5,-2.7Zm174.6,-26l34,-2.6l-42,-3.1l64.3,-4.8L529.6,62.8l79.2,-5.9L473.9,46.8l36.2,-2.7l-66.2,-5l-58.8,4.4L358.6,40.1l64.9,-4.8l-52,-3.9l-36.2,2.7L293.2,30.9l-39.4,3l40,3l-44,3.3L205.7,36.9l25.6,-2L200.8,32.7L103.3,40l34.5,2.5L28.3,50.7l64.5,4.9L58.7,58.1l42,3.1L36.5,66l57.2,4.3L14.4,76.2l108.9,8.2L73.5,88.1l52.6,4L139.7,91l39.6,3l58.9,-4.4L264.6,93L196,98.2l94.1,7l20.6,-1.5l-37,-2.8l52.9,-4l37,2.8l24.3,-1.8l34.6,2.6L520,93.2L485.4,90.6L595,82.4Z" class="g1_3" />
<path d="M294,170.4l28.9,2.1L294,174.7l-28.8,-2.2Zm172.8,8.1l28.8,2.1l28.9,-2.1l-28.9,-2.2ZM608.6,157.4l27.7,-2.1l-34.1,-2.5l52.1,-3.9l-46.4,-3.5l64.3,-4.8L562.6,132.4l29.5,-2.2l-53.8,-4l-47.8,3.5L469,126.9L521.7,123l-42.2,-3.2L450,122l-34.1,-2.5l-32,2.4l32.5,2.4L380.6,127l-35.8,-2.7l20.8,-1.6l-24.8,-1.8l-79.2,5.9l28,2.1l-88.9,6.7l52.4,3.9l-27.7,2l34.1,2.6L207.3,148l46.5,3.5l-64.4,4.8l88.5,6.6l-40.5,3l42.7,3.2l11.1,-0.8l32.2,2.4l47.8,-3.6l21.4,2.8l-55.7,4.2l76.5,5.7l16.7,-1.2L400,176.3l43,-3.2l30.1,2.2l19.7,-1.4l28.1,2.1l79.2,-5.9L572,168l89,-6.7Z" class="g1_3" />
<path d="M600,97.8l23.8,1.8L600,101.4L576.2,99.6Zm142.4,6.7l23.8,1.8L790,104.5l-23.8,-1.8Zm117,-17.4l22.8,-1.7L854.1,83.3l43,-3.2L858.8,77.2l53.1,-4L821.5,66.5l24.3,-1.8L801.4,61.3l-39.4,3L744.3,62l43.5,-3.3L752.9,56.1l-24.3,1.8L700.4,55.8l-26.3,2l26.8,2L671.4,62L641.9,59.8L659,58.5L638.5,57l-65.3,4.9l23.1,1.7L523,69.1l43.2,3.2L543.4,74l28.1,2.1l-43,3.3l38.3,2.8l-53.1,4l73,5.5l-33.5,2.5l35.3,2.6l9.1,-0.7l26.6,2l39.4,-3l17.7,2.4l-45.9,3.4l63,4.7l13.8,-1l-24.8,-1.9l35.4,-2.6l24.8,1.8l16.3,-1.2l23.2,1.7l65.3,-4.8L829.2,95.8l73.4,-5.5Z" class="g1_3" />
<path d="M602.5,206.5c-3.2,-4.1,-6.1,-9.4,-6.1,-15.2l0,-1.1l-99.4,0c-9.4,-2.6,-19.3,-4,-29.5,-4c-10.2,0,-20.1,1.4,-29.5,4l-99.9,0l0,1.1c0,5.8,-3,11.1,-6.2,15.2l2.8,0c0.7,-1,1.4,-2,2,-3.1l2.2,0l0.4,0l0.1,-0.3c0.1,-0.3,2.7,-7.3,14.4,-7.3l69.3,0c-4.1,1.9,-8.1,4.2,-12,6.7l0.6,0.8c1.8,-1.2,3.6,-2.3,5.4,-3.3l100.8,0c1.8,1,3.7,2.1,5.5,3.3l0.5,-0.8c-3.8,-2.5,-7.9,-4.7,-12,-6.7l68.9,0c11.6,0,14.3,7,14.4,7.3l0.1,0.3l2.4,0c0.6,1.1,1.3,2.1,2,3.1ZM339.8,195.8l7.1,0c-5.7,1.8,-7.8,5.5,-8.3,6.6l-1.3,0c1.1,-2,1.9,-4.2,2.5,-6.6m91.4,-3.3c-1.5,0.5,-3,1.1,-4.5,1.7c-0.3,-0.4,-0.7,-0.6,-1.3,-0.6c-0.8,0,-1.4,0.5,-1.6,1.2l-83.8,0c0.1,-0.7,0.2,-1.5,0.3,-2.3Zm62,-2.3l-51.4,0c8.2,-2,16.9,-3.1,25.7,-3.1c8.8,0,17.5,1.1,25.7,3.1m7.7,2.3c2.4,0.7,4.7,1.6,7,2.6c0,0.1,-0.1,0.1,-0.1,0.2c0,1,0.8,1.7,1.8,1.7c0.5,0,1,-0.2,1.3,-0.6c1.7,0.8,3.5,1.7,5.2,2.6l-97.2,0c1.7,-0.9,3.5,-1.8,5.2,-2.6c0.3,0.4,0.8,0.6,1.3,0.6c1,0,1.8,-0.7,1.8,-1.7c0,-0.1,-0.1,-0.1,-0.1,-0.2c2.3,-1,4.6,-1.8,7,-2.6Zm93.5,2.3l-83.2,0c-0.2,-0.7,-0.9,-1.2,-1.6,-1.2c-0.6,0,-1,0.2,-1.3,0.6c-1.5,-0.6,-3,-1.2,-4.5,-1.7l90.4,0c0,0.8,0.1,1.6,0.2,2.3m2.8,7.6l-1.2,0c-0.5,-1.1,-2.6,-4.8,-8.3,-6.6l7,0c0.5,2.4,1.4,4.6,2.5,6.6M332,1160.7c3.1,4.1,6.1,9.3,6.1,15.1l0,1.1l99.9,0c9.4,2.7,19.3,4,29.5,4c10.2,0,20.1,-1.3,29.5,-4l99.4,0l0,-1.1c0,-5.8,2.9,-11,6.1,-15.1l-2.9,0c-0.6,1,-1.3,2,-1.9,3l-2.6,0L595,1164c-0.1,0.3,-2.7,7.3,-14.3,7.3l-68.8,0c4.1,-1.9,8.1,-4.2,12,-6.7l-0.6,-0.8c-1.8,1.2,-3.6,2.3,-5.4,3.3l-100.8,0c-1.8,-1,-3.7,-2.1,-5.5,-3.3l-0.5,0.8c3.8,2.5,7.9,4.7,12,6.7l-69.5,0c-11.6,0,-14.2,-7,-14.3,-7.3l-0.2,-0.3l-2.4,0c-0.6,-1,-1.2,-2,-1.9,-3Zm262.7,10.6l-7.1,0c5.6,-1.8,7.7,-5.5,8.2,-6.6l1.4,0c-1.1,2,-2,4.2,-2.5,6.6m-90.9,3.3c1.5,-0.5,3,-1.1,4.5,-1.7c0.3,0.4,0.7,0.6,1.3,0.6c0.8,0,1.4,-0.5,1.6,-1.2l83.2,0c-0.1,0.8,-0.2,1.5,-0.2,2.3Zm-62,2.3l51.4,0c-8.2,2,-16.9,3.1,-25.7,3.1c-8.8,0,-17.5,-1.1,-25.7,-3.1m-7.7,-2.3c-2.4,-0.7,-4.7,-1.6,-7,-2.6c0,-0.1,0.1,-0.1,0.1,-0.2c0,-1,-0.8,-1.7,-1.8,-1.7c-0.5,0,-1,0.2,-1.3,0.6c-1.7,-0.8,-3.5,-1.7,-5.2,-2.6l97.2,0c-1.7,0.9,-3.5,1.8,-5.2,2.6c-0.3,-0.4,-0.8,-0.6,-1.3,-0.6c-1,0,-1.8,0.7,-1.8,1.7c0,0.1,0.1,0.1,0.1,0.2c-2.3,1,-4.6,1.9,-7,2.6ZM340,1172.3l83.8,0c0.2,0.7,0.9,1.2,1.6,1.2c0.6,0,1,-0.2,1.3,-0.6c1.5,0.6,3,1.2,4.5,1.7l-90.9,0c-0.1,-0.8,-0.2,-1.5,-0.3,-2.3m-2.7,-7.6l1.2,0c0.5,1.1,2.5,4.8,8.2,6.6l-6.9,0c-0.6,-2.4,-1.4,-4.6,-2.5,-6.6Z" class="g2_3" />
<path d="M611.7,209.9l-7.3,-7.3l-274.4,0l-7.3,7.3l0,947.3l7.3,7.3l274.4,0l7.3,-7.3Z" class="g3_3" />
<path d="M611.7,209.9l-7.3,-7.3l-274.4,0l-7.3,7.3l0,947.3l7.3,7.3l274.4,0l7.3,-7.3l0,-947.3Z" class="g4_3" />
<path d="M314.1,206.5c-3.2,-4.1,-6.2,-9.4,-6.2,-15.2l0,-1.1l-99.4,0c-9.4,-2.6,-19.3,-4,-29.5,-4c-10.2,0,-20.1,1.4,-29.4,4l-100,0l0,1.1c0,5.8,-3,11.1,-6.2,15.2l2.8,0c0.7,-1,1.4,-2,2.1,-3.1l2.2,0l0.3,0l0.1,-0.3c0.2,-0.3,2.8,-7.3,14.4,-7.3l69.4,0c-4.2,1.9,-8.2,4.2,-12,6.7l0.5,0.8c1.8,-1.2,3.6,-2.3,5.5,-3.3l100.7,0c1.9,1,3.7,2.1,5.5,3.3l0.5,-0.8c-3.8,-2.5,-7.8,-4.7,-12,-6.7l68.9,0c11.7,0,14.3,7,14.4,7.3l0.1,0.3l2.4,0c0.7,1.1,1.4,2.1,2.1,3.1ZM51.3,195.8l7.1,0c-5.7,1.8,-7.7,5.5,-8.2,6.6l-1.4,0c1.1,-2,2,-4.2,2.5,-6.6m91.4,-3.3c-1.5,0.5,-3,1.1,-4.4,1.7c-0.4,-0.4,-0.8,-0.6,-1.3,-0.6c-0.8,0,-1.4,0.5,-1.7,1.2l-83.8,0c0.2,-0.7,0.3,-1.5,0.3,-2.3Zm62,-2.3l-51.4,0c8.3,-2,16.9,-3.1,25.7,-3.1c8.9,0,17.5,1.1,25.7,3.1m7.7,2.3c2.4,0.7,4.7,1.6,7,2.6c0,0.1,0,0.1,0,0.2c0,1,0.7,1.7,1.7,1.7c0.5,0,1,-0.2,1.3,-0.6c1.8,0.8,3.5,1.7,5.2,2.6l-97.1,0c1.7,-0.9,3.4,-1.8,5.2,-2.6c0.3,0.4,0.7,0.6,1.3,0.6c0.9,0,1.7,-0.7,1.7,-1.7c0,-0.1,0,-0.1,-0.1,-0.2c2.3,-1,4.7,-1.8,7,-2.6Zm93.6,2.3l-83.3,0c-0.2,-0.7,-0.8,-1.2,-1.6,-1.2c-0.5,0,-1,0.2,-1.3,0.6c-1.5,-0.6,-2.9,-1.2,-4.4,-1.7l90.3,0c0,0.8,0.1,1.6,0.3,2.3m2.7,7.6l-1.2,0c-0.5,-1.1,-2.6,-4.8,-8.2,-6.6l6.9,0c0.5,2.4,1.4,4.6,2.5,6.6M43.5,1160.7c3.2,4.1,6.1,9.3,6.1,15.1l0,1.1l100,0c9.3,2.7,19.2,4,29.4,4c10.2,0,20.1,-1.3,29.5,-4l99.4,0l0,-1.1c0,-5.8,2.9,-11,6.1,-15.1l-2.8,0c-0.7,1,-1.4,2,-2,3l-2.5,0l-0.1,0.3c-0.2,0.3,-2.8,7.3,-14.4,7.3l-68.8,0c4.2,-1.9,8.2,-4.2,12,-6.7l-0.5,-0.8c-1.8,1.2,-3.7,2.3,-5.5,3.3l-100.7,0c-1.9,-1,-3.7,-2.1,-5.5,-3.3l-0.6,0.8c3.9,2.5,7.9,4.7,12.1,6.7l-69.5,0c-11.7,0,-14.3,-7,-14.4,-7.3l-0.1,-0.3l-2.4,0c-0.6,-1,-1.3,-2,-2,-3Zm262.7,10.6l-7.1,0c5.7,-1.8,7.7,-5.5,8.2,-6.6l1.4,0c-1.1,2,-2,4.2,-2.5,6.6m-90.8,3.3c1.5,-0.5,3,-1.1,4.4,-1.7c0.3,0.4,0.8,0.6,1.3,0.6c0.8,0,1.4,-0.5,1.6,-1.2l83.3,0c-0.2,0.8,-0.3,1.5,-0.3,2.3Zm-62.1,2.3l51.4,0c-8.2,2,-16.8,3.1,-25.7,3.1c-8.8,0,-17.4,-1.1,-25.7,-3.1m-7.7,-2.3c-2.3,-0.7,-4.7,-1.6,-6.9,-2.6c0,-0.1,0,-0.1,0,-0.2c0,-1,-0.8,-1.7,-1.7,-1.7c-0.6,0,-1,0.2,-1.3,0.6c-1.8,-0.8,-3.5,-1.7,-5.2,-2.6l97.1,0c-1.7,0.9,-3.4,1.8,-5.2,2.6c-0.3,-0.4,-0.8,-0.6,-1.3,-0.6c-0.9,0,-1.7,0.7,-1.7,1.7c0,0.1,0,0.1,0,0.2c-2.3,1,-4.6,1.9,-7,2.6Zm-94.1,-2.3l83.9,0c0.2,0.7,0.8,1.2,1.6,1.2c0.5,0,0.9,-0.2,1.3,-0.6c1.4,0.6,2.9,1.2,4.4,1.7l-90.9,0c0,-0.8,-0.1,-1.5,-0.3,-2.3m-2.7,-7.6l1.2,0c0.5,1.1,2.6,4.8,8.2,6.6l-6.9,0c-0.5,-2.4,-1.4,-4.6,-2.5,-6.6Z" class="g2_3" />
<path d="M323.2,209.9l-7.3,-7.3l-274.3,0l-7.3,7.3l0,947.3l7.3,7.3l274.3,0l7.3,-7.3Z" class="g3_3" />
<path d="M323.2,209.9l-7.3,-7.3l-274.3,0l-7.3,7.3l0,947.3l7.3,7.3l274.3,0l7.3,-7.3l0,-947.3Z" class="g4_3" />
<path d="M891.6,206.5c-3.2,-4.1,-6.2,-9.4,-6.2,-15.2l0,-1.1l-99.4,0c-9.4,-2.6,-19.3,-4,-29.5,-4c-10.2,0,-20.1,1.4,-29.4,4l-100,0l0,1.1c0,5.8,-3,11.1,-6.2,15.2l2.8,0c0.7,-1,1.4,-2,2.1,-3.1l2.2,0l0.3,0l0.1,-0.3c0.2,-0.3,2.8,-7.3,14.4,-7.3l69.4,0c-4.2,1.9,-8.2,4.2,-12,6.7l0.5,0.8c1.8,-1.2,3.6,-2.3,5.5,-3.3l100.7,0c1.9,1,3.7,2.1,5.5,3.3l0.5,-0.8c-3.8,-2.5,-7.8,-4.7,-12,-6.7l68.9,0c11.7,0,14.3,7,14.4,7.3l0.1,0.3l2.4,0c0.7,1.1,1.4,2.1,2.1,3.1ZM628.8,195.8l7.1,0c-5.7,1.8,-7.7,5.5,-8.2,6.6l-1.4,0c1.1,-2,2,-4.2,2.5,-6.6m91.4,-3.3c-1.5,0.5,-3,1.1,-4.4,1.7c-0.4,-0.4,-0.8,-0.6,-1.3,-0.6c-0.8,0,-1.4,0.5,-1.7,1.2l-83.8,0c0.2,-0.7,0.3,-1.5,0.3,-2.3Zm62,-2.3l-51.4,0c8.3,-2,16.9,-3.1,25.7,-3.1c8.9,0,17.5,1.1,25.7,3.1m7.7,2.3c2.4,0.7,4.7,1.6,7,2.6c0,0.1,0,0.1,0,0.2c0,1,0.7,1.7,1.7,1.7c0.5,0,1,-0.2,1.3,-0.6c1.8,0.8,3.5,1.7,5.2,2.6L708,199c1.7,-0.9,3.4,-1.8,5.2,-2.6c0.3,0.4,0.7,0.6,1.3,0.6c0.9,0,1.7,-0.7,1.7,-1.7c0,-0.1,0,-0.1,-0.1,-0.2c2.3,-1,4.7,-1.8,7,-2.6Zm93.6,2.3l-83.3,0c-0.2,-0.7,-0.8,-1.2,-1.6,-1.2c-0.5,0,-1,0.2,-1.3,0.6c-1.5,-0.6,-2.9,-1.2,-4.4,-1.7l90.3,0c0,0.8,0.1,1.6,0.3,2.3m2.7,7.6l-1.2,0c-0.5,-1.1,-2.6,-4.8,-8.2,-6.6l6.9,0c0.5,2.4,1.4,4.6,2.5,6.6M621,1160.7c3.2,4.1,6.1,9.3,6.1,15.1l0,1.1l100,0c9.3,2.7,19.2,4,29.4,4c10.2,0,20.1,-1.3,29.5,-4l99.4,0l0,-1.1c0,-5.8,2.9,-11,6.1,-15.1l-2.8,0c-0.7,1,-1.4,2,-2,3l-2.5,0l-0.1,0.3c-0.2,0.3,-2.8,7.3,-14.4,7.3l-68.8,0c4.2,-1.9,8.2,-4.2,12,-6.7l-0.5,-0.8c-1.8,1.2,-3.7,2.3,-5.5,3.3l-100.7,0c-1.9,-1,-3.7,-2.1,-5.5,-3.3l-0.6,0.8c3.9,2.5,7.9,4.7,12.1,6.7l-69.5,0c-11.7,0,-14.3,-7,-14.4,-7.3l-0.1,-0.3l-2.4,0c-0.6,-1,-1.3,-2,-2,-3Zm262.7,10.6l-7.1,0c5.7,-1.8,7.7,-5.5,8.2,-6.6l1.4,0c-1.1,2,-2,4.2,-2.5,6.6m-90.8,3.3c1.5,-0.5,3,-1.1,4.4,-1.7c0.3,0.4,0.8,0.6,1.3,0.6c0.8,0,1.4,-0.5,1.6,-1.2l83.3,0c-0.2,0.8,-0.3,1.5,-0.3,2.3Zm-62.1,2.3l51.4,0c-8.2,2,-16.8,3.1,-25.7,3.1c-8.8,0,-17.4,-1.1,-25.7,-3.1m-7.7,-2.3c-2.3,-0.7,-4.7,-1.6,-6.9,-2.6c0,-0.1,0,-0.1,0,-0.2c0,-1,-0.8,-1.7,-1.7,-1.7c-0.6,0,-1,0.2,-1.3,0.6c-1.8,-0.8,-3.5,-1.7,-5.2,-2.6l97.1,0c-1.7,0.9,-3.4,1.8,-5.2,2.6c-0.3,-0.4,-0.8,-0.6,-1.3,-0.6c-0.9,0,-1.7,0.7,-1.7,1.7c0,0.1,0,0.1,0,0.2c-2.3,1,-4.6,1.9,-7,2.6ZM629,1172.3l83.9,0c0.2,0.7,0.8,1.2,1.6,1.2c0.5,0,0.9,-0.2,1.3,-0.6c1.4,0.6,2.9,1.2,4.4,1.7l-90.9,0c0,-0.8,-0.1,-1.5,-0.3,-2.3m-2.7,-7.6l1.2,0c0.5,1.1,2.6,4.8,8.2,6.6l-6.9,0c-0.5,-2.4,-1.4,-4.6,-2.5,-6.6Z" class="g2_3" />
<path d="M900.7,209.9l-7.3,-7.3l-274.3,0l-7.3,7.3l0,947.3l7.3,7.3l274.3,0l7.3,-7.3Z" class="g3_3" />
<path d="M900.7,209.9l-7.3,-7.3l-274.3,0l-7.3,7.3l0,947.3l7.3,7.3l274.3,0l7.3,-7.3l0,-947.3Z" class="g4_3" />
<path d="M327.8,550.1c0,-0.1,0,-0.2,0,-0.3l8.7,0L335.4,549c-5.8,0,-9.7,-3,-9.7,-3c-0.9,-0.6,-1.9,-0.9,-3,-0.9l0,10.1c1.3,0,2.4,-0.4,3.3,-1.2c1.1,-0.7,4.6,-2.8,9.4,-2.8l1.1,-0.8l-8.7,0c0,-0.1,0,-0.2,0,-0.3Z" class="g2_3" />
<path d="M322.7,546.3c-0.2,0,-0.5,0,-0.7,0.1l0,7.5c0.2,0.1,0.5,0.1,0.7,0.1c2.2,0,3.9,-1.7,3.9,-3.9c0,-2.1,-1.7,-3.8,-3.9,-3.8Z" class="g3_3" />
<path d="M606.6,550.1c0,-0.1,0,-0.2,0,-0.3l-8.7,0l1.2,-0.8c5.7,0,9.7,-3,9.7,-3c0.8,-0.6,1.8,-0.9,2.9,-0.9l0,10.1c-1.3,0,-2.4,-0.4,-3.3,-1.2c-1.1,-0.7,-4.6,-2.8,-9.3,-2.8l-1.2,-0.8l8.7,0c0,-0.1,0,-0.2,0,-0.3Z" class="g2_3" />
<path d="M611.7,546.3c0.2,0,0.5,0,0.7,0.1l0,7.5c-0.2,0.1,-0.5,0.1,-0.7,0.1c-2.1,0,-3.9,-1.7,-3.9,-3.9c0,-2.1,1.8,-3.8,3.9,-3.8Z" class="g3_3" />
<path d="M327.8,894.7c0,-0.1,0,-0.2,0,-0.3l8.7,0l-1.1,-0.8c-5.8,0,-9.7,-3,-9.7,-3c-0.9,-0.6,-1.9,-1,-3,-1l0,10.2c1.3,0,2.4,-0.5,3.3,-1.2c1.1,-0.7,4.6,-2.8,9.4,-2.8l1.1,-0.8l-8.7,0c0,-0.1,0,-0.2,0,-0.3Z" class="g2_3" />
<path d="M322.7,890.9c-0.2,0,-0.5,0,-0.7,0l0,7.6c0.2,0.1,0.5,0.1,0.7,0.1c2.2,0,3.9,-1.7,3.9,-3.9c0,-2.1,-1.7,-3.8,-3.9,-3.8Z" class="g3_3" />
<path d="M606.6,894.7c0,-0.1,0,-0.2,0,-0.3l-8.7,0l1.2,-0.8c5.7,0,9.7,-3,9.7,-3c0.8,-0.6,1.8,-1,2.9,-1l0,10.2c-1.3,0,-2.4,-0.5,-3.3,-1.2c-1.1,-0.7,-4.6,-2.8,-9.3,-2.8L597.9,895l8.7,0c0,-0.1,0,-0.2,0,-0.3Z" class="g2_3" />
<path d="M611.7,890.9c0.2,0,0.5,0,0.7,0l0,7.6c-0.2,0.1,-0.5,0.1,-0.7,0.1c-2.1,0,-3.9,-1.7,-3.9,-3.9c0,-2.1,1.8,-3.8,3.9,-3.8Z" class="g3_3" />
<path d="M39.4,809.7c0,-0.1,-0.1,-0.2,-0.1,-0.3l8.8,0l-1.2,-0.8c-5.8,0,-9.7,-3,-9.7,-3c-0.8,-0.6,-1.8,-0.9,-2.9,-0.9l0,10.1c1.2,0,2.4,-0.5,3.3,-1.2c1,-0.7,4.5,-2.8,9.3,-2.8L48.1,810l-8.8,0c0,-0.1,0.1,-0.2,0.1,-0.3Z" class="g2_3" />
<path d="M34.3,805.9c-0.3,0,-0.5,0,-0.8,0.1l0,7.5c0.3,0.1,0.5,0.1,0.8,0.1c2.1,0,3.8,-1.7,3.8,-3.9c0,-2.1,-1.7,-3.8,-3.8,-3.8Z" class="g3_3" />
<path d="M318.1,809.7c0,-0.1,0.1,-0.2,0.1,-0.3l-8.8,0l1.2,-0.8c5.8,0,9.7,-3,9.7,-3c0.8,-0.6,1.8,-0.9,2.9,-0.9l0,10.1c-1.2,0,-2.4,-0.5,-3.3,-1.2c-1,-0.7,-4.5,-2.8,-9.3,-2.8L309.4,810l8.8,0c0,-0.1,-0.1,-0.2,-0.1,-0.3Z" class="g2_3" />
<path d="M323.2,805.9c0.3,0,0.5,0,0.8,0.1l0,7.5c-0.3,0.1,-0.5,0.1,-0.8,0.1c-2.1,0,-3.8,-1.7,-3.8,-3.9c0,-2.1,1.7,-3.8,3.8,-3.8Z" class="g3_3" />
<path d="M39.4,443.1c0,-0.1,-0.1,-0.2,-0.1,-0.3l8.8,0L46.9,442c-5.8,0,-9.7,-3.1,-9.7,-3.1l0,0.1c-0.8,-0.6,-1.8,-1,-2.9,-1l0,10.2c1.2,0,2.4,-0.5,3.3,-1.2c1,-0.8,4.5,-2.8,9.3,-2.8l1.2,-0.8l-8.8,0c0,-0.1,0.1,-0.2,0.1,-0.3Z" class="g2_3" />
<path d="M34.3,439.2c-0.3,0,-0.5,0.1,-0.8,0.1l0,7.6c0.3,0,0.5,0.1,0.8,0.1c2.1,0,3.8,-1.8,3.8,-3.9c0,-2.1,-1.7,-3.9,-3.8,-3.9Z" class="g3_3" />
<path d="M318.1,443.1c0,-0.1,0.1,-0.2,0.1,-0.3l-8.8,0l1.2,-0.8c5.8,0,9.7,-3.1,9.7,-3.1l0,0.1c0.8,-0.6,1.8,-1,2.9,-1l0,10.2c-1.2,0,-2.4,-0.5,-3.3,-1.2c-1,-0.8,-4.5,-2.8,-9.3,-2.8l-1.2,-0.8l8.8,0c0,-0.1,-0.1,-0.2,-0.1,-0.3Z" class="g2_3" />
<path d="M323.2,439.2c0.3,0,0.5,0.1,0.8,0.1l0,7.6c-0.3,0,-0.5,0.1,-0.8,0.1c-2.1,0,-3.8,-1.8,-3.8,-3.9c0,-2.1,1.7,-3.9,3.8,-3.9Z" class="g3_3" />
<path d="M616.9,463.3c0,-0.2,-0.1,-0.3,-0.1,-0.4l8.8,0l-1.2,-0.7c-5.8,0,-9.7,-3.1,-9.7,-3.1c-0.8,-0.6,-1.8,-0.9,-2.9,-0.9l0,10.1c1.2,0,2.4,-0.4,3.3,-1.2c1,-0.7,4.5,-2.8,9.3,-2.8l1.2,-0.7l-8.8,0c0,-0.1,0.1,-0.2,0.1,-0.3Z" class="g2_3" />
<path d="M611.8,459.4c-0.3,0,-0.5,0,-0.8,0.1l0,7.5c0.3,0.1,0.5,0.1,0.8,0.1c2.1,0,3.8,-1.7,3.8,-3.8c0,-2.2,-1.7,-3.9,-3.8,-3.9Z" class="g3_3" />
<path d="M895.6,463.3c0,-0.2,0.1,-0.3,0.1,-0.4l-8.8,0l1.2,-0.7c5.8,0,9.7,-3.1,9.7,-3.1c0.8,-0.6,1.8,-0.9,2.9,-0.9l0,10.1c-1.2,0,-2.4,-0.4,-3.3,-1.2c-1,-0.7,-4.5,-2.8,-9.3,-2.8l-1.2,-0.7l8.8,0c0,-0.1,-0.1,-0.2,-0.1,-0.3Z" class="g2_3" />
<path d="M900.7,459.4c0.3,0,0.5,0,0.8,0.1l0,7.5c-0.3,0.1,-0.5,0.1,-0.8,0.1c-2.1,0,-3.8,-1.7,-3.8,-3.8c0,-2.2,1.7,-3.9,3.8,-3.9Z" class="g3_3" />
<path d="M616.9,723.1c0,-0.1,-0.1,-0.2,-0.1,-0.4l8.8,0L624.4,722c-5.8,0,-9.7,-3.1,-9.7,-3.1c-0.8,-0.6,-1.8,-0.9,-2.9,-0.9l0,10.2c1.2,0,2.4,-0.5,3.3,-1.3c1,-0.7,4.5,-2.8,9.3,-2.8l1.2,-0.7l-8.8,0c0,-0.1,0.1,-0.2,0.1,-0.3Z" class="g2_3" />
<path d="M611.8,719.2c-0.3,0,-0.5,0.1,-0.8,0.1l0,7.6c0.3,0,0.5,0,0.8,0c2.1,0,3.8,-1.7,3.8,-3.8c0,-2.1,-1.7,-3.9,-3.8,-3.9Z" class="g3_3" />
<path d="M895.6,723.1c0,-0.1,0.1,-0.2,0.1,-0.4l-8.8,0l1.2,-0.7c5.8,0,9.7,-3.1,9.7,-3.1c0.8,-0.6,1.8,-0.9,2.9,-0.9l0,10.2c-1.2,0,-2.4,-0.5,-3.3,-1.3c-1,-0.7,-4.5,-2.8,-9.3,-2.8l-1.2,-0.7l8.8,0c0,-0.1,-0.1,-0.2,-0.1,-0.3Z" class="g2_3" />
<path d="M900.7,719.2c0.3,0,0.5,0.1,0.8,0.1l0,7.6c-0.3,0,-0.5,0,-0.8,0c-2.1,0,-3.8,-1.7,-3.8,-3.8c0,-2.1,1.7,-3.9,3.8,-3.9Z" class="g3_3" />
<path d="M616.9,939.4c0,-0.2,-0.1,-0.3,-0.1,-0.4l8.8,0l-1.2,-0.7c-5.8,0,-9.7,-3.1,-9.7,-3.1c-0.8,-0.6,-1.8,-0.9,-2.9,-0.9l0,10.1c1.2,0,2.4,-0.4,3.3,-1.2c1,-0.7,4.5,-2.8,9.3,-2.8l1.2,-0.7l-8.8,0c0,-0.1,0.1,-0.2,0.1,-0.3Z" class="g2_3" />
<path d="M611.8,935.5c-0.3,0,-0.5,0,-0.8,0.1l0,7.5c0.3,0.1,0.5,0.1,0.8,0.1c2.1,0,3.8,-1.7,3.8,-3.8c0,-2.2,-1.7,-3.9,-3.8,-3.9Z" class="g3_3" />
<path d="M895.6,939.4c0,-0.2,0.1,-0.3,0.1,-0.4l-8.8,0l1.2,-0.7c5.8,0,9.7,-3.1,9.7,-3.1c0.8,-0.6,1.8,-0.9,2.9,-0.9l0,10.1c-1.2,0,-2.4,-0.4,-3.3,-1.2c-1,-0.7,-4.5,-2.8,-9.3,-2.8l-1.2,-0.7l8.8,0c0,-0.1,-0.1,-0.2,-0.1,-0.3Z" class="g2_3" />
<path d="M900.7,935.5c0.3,0,0.5,0,0.8,0.1l0,7.5c-0.3,0.1,-0.5,0.1,-0.8,0.1c-2.1,0,-3.8,-1.7,-3.8,-3.8c0,-2.2,1.7,-3.9,3.8,-3.9Z" class="g3_3" />
<path d="M305.1,258.9l7.3,-8.9l0,-22.2l-7.3,-8.9l-241.7,0l0,40Z" class="g3_3" />
<path d="M305.1,515.1l7.3,-8.9l0,-22.1l-7.3,-8.9l-241.7,0l0,39.9Z" class="g3_3" />
<path d="M305.1,864.3l7.3,-8.9l0,-22.1l-7.3,-8.9l-241.7,0l0,39.9Z" class="g3_3" />
<path d="M593.8,258.9l7.4,-8.9l0,-22.2l-7.4,-8.9l-241.7,0l0,40Z" class="g3_3" />
<path d="M879.7,258.9l7.4,-8.9l0,-22.2l-7.4,-8.9l-241.7,0l0,40Z" class="g3_3" />
<path d="M879.7,518.2l7.4,-8.9l0,-22.1l-7.4,-8.9l-241.7,0l0,39.9Z" class="g3_3" />
<path d="M879.7,777.6l7.4,-8.9l0,-22.1l-7.4,-8.9l-241.7,0l0,39.9Z" class="g3_3" />
<path d="M879.7,992.6l7.4,-8.9l0,-22.1l-7.4,-8.9l-241.7,0l0,39.9Z" class="g3_3" />
<path d="M593.8,603.5l7.4,-8.9l0,-22.1l-7.4,-8.9l-241.7,0l0,39.9Z" class="g3_3" />
<path d="M593.8,949.7l7.4,-8.9l0,-22.2l-7.4,-8.9l-241.7,0l0,40Z" class="g3_3" />
<path d="M52,513.5l0,-36.6L56.1,473l15.6,13.5l0,17.3L56.1,517.3Z" class="g3_3" />
<path d="M52,862.7l0,-36.6l4.1,-3.9l15.6,13.5l0,17.3L56.1,866.5Z" class="g3_3" />
<path d="M340.7,257.2l0,-36.6l4.2,-3.9l15.6,13.6l0,17.3l-15.6,13.5Z" class="g3_3" />
<path d="M626.6,257.2l0,-36.6l4.1,-3.9l15.7,13.6l0,17.3l-15.7,13.5Z" class="g3_3" />
<path d="M626.6,516.5l0,-36.5l4.1,-3.9l15.7,13.5l0,17.3l-15.7,13.5Z" class="g3_3" />
<path d="M626.6,776l0,-36.6l4.1,-3.9L646.4,749l0,17.3l-15.7,13.6Z" class="g3_3" />
<path d="M626.6,991l0,-36.6l4.1,-3.9L646.4,964l0,17.3l-15.7,13.6Z" class="g3_3" />
<path d="M340.7,601.8l0,-36.5l4.2,-3.9l15.6,13.5l0,17.3l-15.6,13.5Z" class="g3_3" />
<path d="M340.7,948l0,-36.6l4.2,-3.9L360.5,921l0,17.3l-15.6,13.6Z" class="g3_3" />
<path d="M56.2,476.1l13.2,11.5l0,15.2L56.2,514.3l-1.9,-1.8l0,-34.6ZM56,469.9l-6.3,6l0,38.6l6.3,5.9L74,504.9l0,-19.4Z" class="g1_3" />
<path d="M56.2,825.3l13.2,11.5l0,15.2L56.2,863.5l-1.9,-1.8l0,-34.6ZM56,819.1l-6.3,6l0,38.6l6.3,5.9L74,854.1l0,-19.4Z" class="g1_3" />
<path d="M344.9,219.8l13.3,11.5l0,15.2L344.9,258L343,256.2l0,-34.6Zm-0.1,-6.2l-6.4,6l0,38.6l6.4,6l18,-15.6l0,-19.4Z" class="g1_3" />
<path d="M630.8,219.8l13.3,11.5l0,15.2L630.8,258l-1.9,-1.8l0,-34.6Zm-0.1,-6.2l-6.4,6l0,38.6l6.4,6l17.9,-15.6l0,-19.4Z" class="g1_3" />
<path d="M630.8,479.2l13.3,11.5l0,15.1l-13.3,11.5l-1.9,-1.7l0,-34.7ZM630.7,473l-6.4,6l0,38.5l6.4,6l17.9,-15.6l0,-19.3Z" class="g1_3" />
<path d="M630.8,738.6l13.3,11.5l0,15.2l-13.3,11.5L628.9,775l0,-34.6Zm-0.1,-6.2l-6.4,6l0,38.6l6.4,5.9l17.9,-15.5l0,-19.4Z" class="g1_3" />
<path d="M630.8,953.6l13.3,11.5l0,15.2l-13.3,11.5L628.9,990l0,-34.6Zm-0.1,-6.2l-6.4,6l0,38.6l6.4,5.9l17.9,-15.5l0,-19.4Z" class="g1_3" />
<path d="M344.9,564.5L358.2,576l0,15.1l-13.3,11.5L343,600.9l0,-34.7Zm-0.1,-6.2l-6.4,6l0,38.5l6.4,6l18,-15.6l0,-19.3Z" class="g1_3" />
<path d="M344.9,910.6l13.3,11.5l0,15.2l-13.3,11.5L343,947l0,-34.6Zm-0.1,-6.2l-6.4,6l0,38.6l6.4,6l18,-15.6l0,-19.4Z" class="g1_3" />
<path d="M52,257.2l0,-36.6l4.1,-3.9l15.6,13.6l0,17.3L56.1,261.1Z" class="g3_3" />
<path d="M56.2,219.8l13.2,11.5l0,15.2L56.2,258l-1.9,-1.8l0,-34.6ZM56,213.6l-6.3,6l0,38.6l6.3,6L74,248.6l0,-19.4Z" class="g1_3" />
<path d="M84,88.7L84,70l11.6,0c0,0,5.8,2.8,14.7,-9.9l19.4,0l7.7,-5.4c0,0,6.6,-9.4,12.6,-9.4c6.1,0,30.2,-11,30.2,-11l25.9,-5.7l30.8,9l16.4,6.6c0,0,25,9.3,21.6,24.4c0,0,3,-12.6,-21.6,-21.1c0,0,13.3,9.7,10.6,15.4c0,0,14.3,9.8,16.5,17.8c0,0,31.9,9.5,44.5,-12.1c0,0,-4.5,10.2,-8.8,12.1c0,0,29.7,17.8,58.3,-12.1c0,0,-20.6,17.9,-19.2,25.4L273.8,91.5c0,0,0.8,-35.9,-49.9,-39.1C173.1,49.3,167.6,74.7,171.8,84.3Z" class="g3_3" />
<path d="M228.7,86.5c0,0,9.3,-34.1,41.2,5c0,0,-22.2,-43.5,-46,-6.1Z" class="g3_3" />
<path d="M288.4,97.1c1.2,5.2,1.8,11,1.7,17.2c0,0,1,-7.4,-1.7,-17.2M138.3,73.4l-0.2,0.5l-0.5,0.2l0.5,0.3l0.3,0.5l0.2,-0.5l0.5,-0.3l-0.5,-0.2ZM107.7,93.9l-0.4,0.9l-0.9,0.5l0.9,0.4l0.5,0.9l0.4,-0.9l0.9,-0.5l-0.9,-0.4ZM141.3,70.1l-0.7,1.2l-1.2,0.6l1.3,0.7l0.6,1.2L142,72.6l1.2,-0.7L142,71.2Zm-4.6,4.8l-0.2,0.5L136,75.7l0.5,0.2l0.2,0.5L137,75.9l0.4,-0.3L137,75.4ZM99.4,94.4L99,95.1l-0.8,0.5L99,96l0.4,0.8L99.9,96l0.7,-0.5L99.8,95.1Zm2.9,1.4L102,96.4l-0.6,0.3L102,97l0.3,0.6L102.6,97l0.6,-0.3l-0.6,-0.4ZM101.8,98l-0.2,0.4l-0.5,0.3l0.5,0.2l0.2,0.4L102,98.9l0.5,-0.2L102,98.4ZM324.5,90.5c0,0.5,0.3,0.9,0.8,0.9c0.5,-0.1,0.8,-0.4,0.8,-0.9c0,-0.5,-0.4,-0.8,-0.8,-0.8c-0.5,0,-0.9,0.4,-0.8,0.8m8.6,-7.1c0.4,0,0.7,-0.3,0.7,-0.7c0,-0.4,-0.3,-0.7,-0.7,-0.7c-0.4,0,-0.7,0.4,-0.7,0.7c0,0.4,0.3,0.7,0.7,0.7M328,86.9c0.8,-0.1,1.4,-0.7,1.4,-1.5c0,-0.7,-0.7,-1.4,-1.4,-1.3c-0.8,0,-1.4,0.6,-1.4,1.4c0,0.7,0.6,1.4,1.4,1.4M372.9,60.8c0.4,-0.1,0.7,-0.4,0.7,-0.8c0,-0.3,-0.3,-0.6,-0.7,-0.6c-0.4,0,-0.7,0.3,-0.7,0.7c0,0.4,0.3,0.7,0.7,0.7m-5.5,5.6c0.9,0,1.5,-0.7,1.5,-1.5c0,-0.9,-0.7,-1.6,-1.5,-1.6c-0.9,0.1,-1.5,0.8,-1.5,1.6c0,0.9,0.7,1.5,1.5,1.5m-5.3,5c0,0.4,0.3,0.7,0.7,0.7c0.4,0,0.7,-0.4,0.7,-0.7c0,-0.4,-0.4,-0.7,-0.7,-0.7c-0.4,0,-0.7,0.3,-0.7,0.7m1,-2.3l0.5,-0.8l0.8,-0.4l-0.8,-0.5l-0.5,-0.8l-0.4,0.8l-0.8,0.5l0.8,0.4Zm4,2.6l0.5,-0.9l0.9,-0.5l-0.9,-0.5L367,68.9l-0.4,0.9l-0.9,0.5l0.9,0.5ZM400.1,47l-0.5,-0.9L399.1,47l-0.9,0.5l0.9,0.5l0.5,0.9L400.1,48L401,47.5ZM393,49.7l-0.9,1.5l-1.5,0.9l1.6,0.8l0.8,1.5l0.8,-1.5L395.4,52l-1.6,-0.8Zm3.4,4.3l-0.3,0.5l-0.5,0.3l0.5,0.3l0.3,0.5l0.3,-0.5l0.5,-0.3l-0.5,-0.3Zm-3.3,1.7l-0.6,1.1l-1.1,0.6l1.1,0.5l0.6,1.1l0.6,-1.1l1,-0.6l-1.1,-0.5ZM343.9,89.8c-9.7,-1.3,-22.5,-2.2,-31.5,-0.1c-2.2,1,-5.9,3.3,-4,6.1c1.7,2.7,25.7,-0.2,35.5,-6M387.3,44.9c0,0,3.5,11.7,1.7,20.1c0,0,0.2,-7.9,-2.9,-5.9c-3,2,-15.4,13.1,-5.8,18.5c0,0,-21.5,0.7,-22.9,14.4c0,0,-4.9,-1.1,-11.7,-2c-0.9,0.6,-2,1.3,-3.4,1.9c-12.7,6.1,-45.1,13,-35.8,-0.1c-4.2,2.4,-6.2,6.3,-3.9,12.5c0,0,-7.4,-13,12,-17c0,0,-4.5,-1.8,-2,-3.5c0,0,18.1,6.5,34.5,3.3c1.7,-2.1,1.4,-4.6,-2.2,-7.2c0,0,5.5,2.9,3.7,6.9c4.5,-1,8.8,-2.8,12.5,-5.8c0,0,-5.8,1.8,-8.6,2.4c0,0,5.2,-2,11.7,-6.6L363.8,76l-2.1,-1.1l2,-1.2l1.2,-2.1l1.1,2.1l1.4,0.6c7.4,-6,15.8,-15.5,19.9,-29.4M272.6,94.5c0,0.1,0,0.1,-0.1,0.2c0.1,-0.1,0.1,-0.1,0.1,-0.2M272.5,94.7c-0.1,0.3,-0.2,0.6,-0.4,0.9c0,0,0.2,-0.4,0.4,-0.9M171.7,87.4l-0.5,0.9l-0.9,0.5l0.9,0.5l0.5,0.9l0.5,-0.9l0.9,-0.5l-0.9,-0.5Zm-4.1,-4.5l-0.4,0.9l-0.8,0.4l0.8,0.4l0.4,0.9l0.5,-0.9l0.8,-0.4l-0.8,-0.5ZM163,84.7L162.3,86L161,86.7l1.3,0.7l0.7,1.3l0.7,-1.3L165,86.7L163.7,86ZM281,70.8l0.5,-1l1,-0.5l-1,-0.6l-0.6,-1l-0.5,1l-1,0.6l1,0.5Zm40.7,5.8l-0.4,0.6l-0.6,0.3l0.7,0.3l0.3,0.6L322,77.8l0.6,-0.3L322,77.2Zm-10,-2.3l0.8,-1.6L314,71.9L312.4,71l-0.8,-1.5l-0.8,1.6l-1.6,0.8l1.6,0.9Zm-8.2,4.5L303.9,78l0.8,-0.4l-0.8,-0.5l-0.4,-0.7l-0.4,0.8l-0.8,0.4l0.8,0.4Zm-4.8,-1.4l0.5,0.3l0.3,0.5l0.3,-0.5l0.5,-0.3l-0.5,-0.3l-0.3,-0.5l-0.3,0.5Zm-1,-1.9l0.6,-1.2l1.2,-0.7L298.3,73l-0.7,-1.1L297,73l-1.1,0.7l1.1,0.6Zm-4.8,2.9l0.8,-1.6l1.5,-0.9l-1.5,-0.8l-0.9,-1.5L292,75.1L290.4,76l1.6,0.8Zm-50,-17.6l0.7,-1.3l1.3,-0.7l-1.3,-0.7l-0.8,-1.3l-0.7,1.3l-1.3,0.7l1.3,0.7Zm-3.3,-5.9l-0.5,1l-0.9,0.5l0.9,0.6l0.6,0.9l0.5,-1l0.9,-0.5l-0.9,-0.5ZM263.8,60C261.4,52.9,250.3,41.8,205.5,37.8c0,0,11.7,1,26.4,5.9c-0.1,0.2,-0.2,0.5,-0.2,0.8c0,1.1,0.9,2,2,2c0.9,0,1.7,-0.7,1.9,-1.5c9.2,3.3,19.2,8.1,28.2,15M238.4,48.9c0,-0.2,-0.1,-0.3,-0.3,-0.3c-0.2,0,-0.3,0.1,-0.3,0.3c0,0.2,0.1,0.3,0.3,0.3c0.2,0,0.3,-0.1,0.3,-0.3m-1.7,-1.3c0,-0.3,-0.2,-0.5,-0.5,-0.5c-0.2,0,-0.5,0.2,-0.5,0.5c0,0.3,0.3,0.5,0.6,0.5c0.2,0,0.4,-0.2,0.4,-0.5m-7.8,-3.2c0,-0.5,-0.4,-0.8,-0.9,-0.8c-0.4,0,-0.8,0.4,-0.8,0.8c0,0.5,0.4,0.8,0.9,0.8c0.4,0,0.8,-0.4,0.8,-0.8m-1.8,1.8c0,-0.4,-0.4,-0.8,-0.9,-0.8c-0.4,0,-0.8,0.4,-0.8,0.9c0,0.4,0.4,0.8,0.9,0.8c0.4,0,0.8,-0.4,0.8,-0.9m-3.9,-2.7c0,-0.5,-0.4,-0.8,-0.8,-0.8c-0.5,0,-0.9,0.3,-0.9,0.8c0,0.5,0.4,0.8,0.9,0.8c0.4,0,0.8,-0.4,0.8,-0.8m-3.9,-0.3l-0.7,-0.4l-0.4,-0.7l-0.4,0.7l-0.7,0.4l0.7,0.4l0.4,0.7l0.4,-0.7Zm-3.7,1l-0.8,-0.4l-0.4,-0.7l-0.3,0.7l-0.8,0.4l0.8,0.4l0.4,0.7l0.3,-0.7Zm15.7,-4c0,0,-16.6,-8.2,-43,-5.8c0,0,-5.9,5.1,-14.6,5.7c0,0,-17.5,6.3,-26.2,15.1c0,0,4,-3.6,7.8,-2.5c0,0,37.1,-28.4,76,-12.5m-82,23.4c1.7,-1.7,12.2,-12,12.2,-12c0,0,-11.6,8.7,-19.1,9.7c-3.4,0.5,-9.8,0.1,-17.6,1c-4.7,2.4,-12,5.8,-12.3,4.9c-0.1,-0.6,0.5,-1.6,1.3,-2.5c-6.9,2.1,-14.2,5.9,-20.9,12.4c0,0,-3.6,2.3,-2.7,2.9c0.9,0.5,1.8,1,1.8,1c0,0,-4.7,3.1,-3.4,5C89.9,87.9,101,79.7,101,79.7c0,0,-5,5.4,-9,8.2c-4.1,2.8,-3.9,7.2,-3.2,9.8c0,0,1.5,6.2,9.1,4.5l-0.5,-0.8l-1.5,-0.8l1.5,-0.8l0.7,-1.5L99,99.8l1.4,0.7L99,101.3L98.6,102c0.5,-0.2,0.9,-0.3,1.4,-0.4c9.4,-3.5,21,-0.8,26,0.3c4.9,1,11.1,-6.2,14.2,-13.5c0,0,1.5,0.2,3.5,-2.3c0,0,-1.6,3.9,-0.6,5.5c1,1.5,3.4,0.4,3.9,-0.7l-1.1,-2.2c0,0,3.7,-1.9,6.1,-6.6c2.3,-4.7,0,-9.5,-1.8,-11.5c0,0,1.8,1.7,2.4,2.6c0,0,1.1,-8.4,5.5,-12.1c0,0,-8.1,5.1,-9.4,5.7c-1.3,0.6,-1,-1.5,0.6,-3.2m-8.7,34.1c-8.8,9.7,-17,5.9,-17,5.9c8.3,7.4,17,-5.9,17,-5.9M137.4,56.5c0,0.4,0.3,0.7,0.7,0.7c0.3,0,0.6,-0.3,0.6,-0.7c0,-0.4,-0.3,-0.7,-0.6,-0.7c-0.4,0,-0.7,0.3,-0.7,0.7M142,52.6c0,0.6,0.5,1,1,1c0.6,0,1,-0.5,1,-1c0,-0.6,-0.5,-1,-1,-1c-0.6,0,-1,0.5,-1,1m2,2c0,0.3,0.3,0.6,0.7,0.6c0.4,0,0.7,-0.3,0.7,-0.6c-0.1,-0.4,-0.4,-0.7,-0.7,-0.7c-0.4,0,-0.7,0.3,-0.7,0.7m3.1,-3.1c-0.5,0,-1,0.5,-1,1c0.1,0.6,0.5,1,1.1,1c0.5,0,1,-0.4,0.9,-1c0,-0.5,-0.4,-1,-1,-1m-1.8,-2.7l1,0.6l0.6,1l0.5,-1l1.1,-0.6l-1.1,-0.6l-0.6,-1l-0.5,1.1ZM289,87.1c-0.4,-0.4,-2.2,-1.2,-4.9,-2.5c1.8,3.9,3.2,8,4.3,12.5C287.2,93,285.5,88.6,282.8,84c-4.9,-2.4,-12,-5.9,-18.6,-10.7c7.5,5.9,19.2,15.8,18.1,19.7c0,0,-0.6,-1.6,-1.7,-1.1c-1,0.5,-4.2,4.4,-7.9,2.3c0,0.1,-0.1,0.2,-0.1,0.3c0,-0.1,0.1,-0.2,0.1,-0.3c-0.5,-0.2,-0.9,-0.6,-1.4,-1c0,0,0.6,0.3,1.5,0.6C273.3,91,272.5,85.4,260.1,79c0,0,-4.2,-0.5,-4.4,2.9c0,0,-13.2,-6.8,-14,-1.7c-0.7,5,6.6,6.8,6.6,6.8l-14,0.5c0,0,-1.2,-6.9,3.4,-12.9c0,0,-0.2,3.1,2.6,2.2c2.8,-0.9,8.8,-7.1,7.1,-11c0,0,6.1,2.2,9.5,5.2c3.2,2.8,18.6,13.6,15.9,22.8c1.8,0.5,4.5,0.7,5.1,-3C278.6,86.3,266.8,75.7,261,70.9c-0.2,-0.1,-0.4,-0.2,-0.5,-0.4c-0.3,-0.2,-0.6,-0.4,-0.8,-0.6c0.1,0.1,0.2,0.2,0.3,0.3c-3.7,-3.1,-7.1,-6.5,-9.7,-10.4c0,0,12,11.8,27.9,17.6C274.7,73.1,270.3,68.9,264.7,65c-0.2,0.5,-0.5,0.9,-0.8,1.3c0,0,0.2,-0.6,0.3,-1.6C251.6,56.2,233,49.4,205.6,47.2c0,0,-24.4,-0.6,-23.1,11.6c0,0,-0.4,3.4,4.8,4.9c0,0,-5.4,-0.2,-8.7,-1c0,0,0.7,-1.6,-0.8,-1.6c-1.5,0,-21.4,12.9,-20.5,22.2c0,0,5.1,0,9.8,-9.4c0,0,-2.3,6.8,-3.6,9.9c0,0,-6.4,2.3,-7.9,7.7c-1.4,5.4,-2.8,7.6,-2.8,7.6c0,0,-23.4,19.7,-43.8,22.1c0,0,-9,1.2,-15.4,-3l3.7,-0.1c0,0,-14.1,-2.3,-20.1,-11C71.1,98.3,64.8,79.4,67,67.4c0,0,1.4,10.9,5.5,16.9c0,0,3.9,-34.9,33.4,-54.9c0,0,-8,9.6,-7.8,13.6c0,0,-3.2,-0.9,-6.9,6.4c-3.7,7.2,-3.4,19.8,6.6,18.5c10,-1.2,12.4,-11.7,10.7,-17.3c0,0,1.8,4.5,5.9,3.2c4,-1.3,7.8,-4.8,7.8,-4.8c0,0,-2.3,8.9,13.2,5.1L131,53.6c0,0,22.5,-17.1,35.5,-22.3c0,0,-11,6.2,-18.1,12.1c0,0,35.3,-20.9,70.8,-13c1,0.2,2,0.5,2.9,0.7l-0.1,0c0,0,0.3,0,0.8,0.2c1,0.2,1.9,0.5,2.8,0.7c6,1.6,18,4.3,24.1,3c0,0,-5.3,1.9,-4.6,3.7c0.7,1.8,11.6,5.6,11.6,5.6c0,0,-3.1,1,-0.2,3.9l-0.1,0c5,4.6,7.9,9.1,8.6,12.7c5.9,4.8,11.3,10.5,15.6,17.3c13,4.1,28.2,3.8,41.4,-10.1c0,0,-6.6,8.9,-6.1,10.8c0.5,1.9,5.1,2.2,5.1,2.2l1.3,2.7c0,0,-11.1,-5.7,-21.5,1c0,0,0.8,2,6.6,0.9c0,0,-0.9,0.6,-4.5,1.2c-3.7,0.6,-6.8,1.2,-2.4,5.6c0,0,-4.8,-0.9,-12.9,-3.7c0,0,3.2,-0.1,1.4,-1.7M258.1,68.7c0.3,0.3,0.9,0.7,1.6,1.2c-1,-0.7,-1.6,-1.2,-1.6,-1.2Z" class="g5_3" />
<path d="M102,69.3c0,0,-10,7.1,-7.2,9.6c2.7,2.4,7,-2.2,7,-2.2c0,0,-1.3,3.3,0,3.7c1.3,0.5,6.1,-4.7,14.1,-2.4c0,0,-7.3,0.3,-5.7,4.8L84.6,84.4l0.3,-6.7c0,0,10,-8.1,17.1,-8.4Z" class="g5_3" />
<path d="M137.9,81.4c0,0,5.6,0.1,7.7,-4c0,0,0.6,1.7,2.3,1.2c1.7,-0.5,3.9,-3.2,2.8,-5.8c0,0,2,3,0.4,6.1c0,0,-2.5,1.3,-2.4,2.9Z" class="g5_3" />
<path d="M94.3,78.2c0,0,-1.4,-3,1.2,-7.7c0,0,-1.6,4.5,0.6,5.5Z" class="g3_3" />
<path d="M124.8,62.3L132,57.7L125.8,63Z" class="g3_3" />
<path d="M396.3,59.5l0,111.9c1.6,-3.8,3.2,-5.4,3.2,-5.4l0,-101.1c0,0,-1.6,-1.6,-3.2,-5.4Z" class="g3_3" />
<path d="M396.3,59.5l0,111.9c1.6,-3.8,3.2,-5.4,3.2,-5.4l0,-101.1c0,0,-1.6,-1.6,-3.2,-5.4Z" class="g6_3" />
<path d="M47.8,99.3l0,57.3L102,149.5l0,-57.3Z" class="g3_3" />
<path d="M47.8,99.3l0,57.3L102,149.5l0,-57.3L47.8,99.3Z" class="g7_3" />
<path d="M49,152.3l53,-7.5M49,103.1l53,-6.7" class="g8_3" />
<path d="M102,92.2L65,86.7L65,144l37,5.5Z" class="g9_3" />
<path d="M102,92.2L65,86.7L65,144l37,5.5l0,-57.3Z" class="g7_3" />
<path d="M399.7,144C305.3,161.2,159.4,126.9,65,144L65,86.7c94.4,-17.1,240.3,17.2,334.7,0Z" class="g3_3" />
<path d="M401,138.5c0,0,-31.3,13.2,-175.2,0.5C124.2,130,73.5,137.9,65.6,139.3M399.7,91.2c0,0,-30.4,12.3,-174.2,-0.4C123.8,81.8,73.1,89.7,65.3,91" class="g8_3" />
<path d="M399.7,144C305.3,161.2,159.4,126.9,65,144L65,86.7c94.4,-17.1,240.3,17.2,334.7,0l0,57.3Z" class="g7_3" />
<path d="M878.7,89.1l0,58.2c22.2,-0.1,25.1,0,28.9,-4.9l0,-57.3c-7.1,3.8,-14.5,3.9,-28.9,4Z" class="g7_3" />
<path d="M877.7,93.4c24.8,-0.1,27.1,-1.8,29.3,-3.5m-28.3,52.7c29.9,3.4,27.4,-5.5,28.7,-5.8" class="g8_3" />
<path d="M879.1,161.8l-479.6,0l0,-92.7l479.6,0l0,92.7Z" class="g2_3" />
<path d="M879.1,161.8l-479.6,0l0,-92.7l479.6,0l0,92.7Z" class="g6_3" />
<path d="M399.5,81.2c0,0,1.7,-15.8,12.9,-15.8l33.6,0c0,0,10.9,3.7,31.3,3.7m-77.8,80.6c0,0,1.7,15.8,12.9,15.8l33.6,0c0,0,10.9,-3.7,31.3,-3.7" class="g6_3" />
<path d="M879.1,81.2c0,0,-1.6,-15.8,-12.8,-15.8l-33.7,0c0,0,-10.9,3.7,-31.3,3.7m77.8,80.6c0,0,-1.6,15.8,-12.8,15.8l-33.6,0c0,0,-11,-3.7,-31.4,-3.7" class="g6_3" />
<path d="M845.6,69.1c-7.9,1.4,-17.5,3,-26.2,3l-360.1,0c-8.8,0,-18.4,-1.6,-26.3,-3m0,92.7c7.9,-1.4,17.5,-3,26.3,-3l360.1,0c8.7,0,18.3,1.6,26.2,3" class="g8_3" />
<path d="M882.3,59.5l0,111.9c-1.6,-3.8,-3.2,-5.4,-3.2,-5.4l0,-101.1c0,0,1.6,-1.6,3.2,-5.4Z" class="g3_3" />
<path d="M882.3,59.5l0,111.9c-1.6,-3.8,-3.2,-5.4,-3.2,-5.4l0,-101.1c0,0,1.6,-1.6,3.2,-5.4Z" class="g6_3" />
<path d="M530.1,79.4l-94,0l-9.7,12.2l0,25.3l9.7,12.2l94,0l9.7,-12.2l0,-25.3Z" class="g3_3" />
<path d="M530.1,79.4l-94,0l-9.7,12.2l0,25.3l9.7,12.2l94,0l9.7,-12.2l0,-25.3L530.1,79.4Z" class="g7_3" />
<path d="M429.3,87.9l0,33.2m0,-4.7l10.3,12.7m0,-49.7L429.3,92.1" class="g10_3" />
<path d="M427.9,104.3c0,0.8,0.6,1.4,1.4,1.4c0.8,0,1.5,-0.6,1.5,-1.4c0,-0.8,-0.7,-1.5,-1.5,-1.5c-0.8,0,-1.4,0.7,-1.4,1.5Z" class="g5_3" />
<path d="M538.3,104.3c0,0.8,-0.6,1.4,-1.4,1.4c-0.8,0,-1.5,-0.6,-1.5,-1.4c0,-0.8,0.7,-1.5,1.5,-1.5c0.8,0,1.4,0.7,1.4,1.5Z" class="g5_3" />
<path d="M536.9,87.9l0,33.2m0,-4.7l-10.3,12.7m0,-49.7l10.3,12.7" class="g10_3" />
<path d="M684,79.4l-94.1,0l-9.6,12.2l0,25.3l9.6,12.2l94.1,0l9.6,-12.2l0,-25.3Z" class="g3_3" />
<path d="M684,79.4l-94.1,0l-9.6,12.2l0,25.3l9.6,12.2l94.1,0l9.6,-12.2l0,-25.3L684,79.4Z" class="g7_3" />
<path d="M583.2,87.9l0,33.2m0,-4.7l10.2,12.7m0,-49.7L583.2,92.1" class="g10_3" />
<path d="M581.7,104.3c0,0.8,0.7,1.4,1.5,1.4c0.8,0,1.4,-0.6,1.4,-1.4c0,-0.8,-0.6,-1.5,-1.4,-1.5c-0.8,0,-1.5,0.7,-1.5,1.5Z" class="g5_3" />
<path d="M692.2,104.3c0,0.8,-0.7,1.4,-1.5,1.4c-0.8,0,-1.4,-0.6,-1.4,-1.4c0,-0.8,0.6,-1.5,1.4,-1.5c0.8,0,1.5,0.7,1.5,1.5Z" class="g5_3" />
<path d="M690.7,87.9l0,33.2m0,-4.7l-10.2,12.7m0,-49.7l10.2,12.7" class="g10_3" />
<path d="M842.5,79.4l-94,0l-9.7,12.2l0,25.3l9.7,12.2l94,0l9.7,-12.2l0,-25.3Z" class="g3_3" />
<path d="M842.5,79.4l-94,0l-9.7,12.2l0,25.3l9.7,12.2l94,0l9.7,-12.2l0,-25.3L842.5,79.4Z" class="g7_3" />
<path d="M741.8,87.9l0,33.2m0,-4.7L752,129.1m0,-49.7L741.8,92.1" class="g10_3" />
<path d="M740.3,104.3c0,0.8,0.7,1.4,1.5,1.4c0.8,0,1.4,-0.6,1.4,-1.4c0,-0.8,-0.6,-1.5,-1.4,-1.5c-0.8,0,-1.5,0.7,-1.5,1.5Z" class="g5_3" />
<path d="M850.8,104.3c0,0.8,-0.7,1.4,-1.5,1.4c-0.8,0,-1.4,-0.6,-1.4,-1.4c0,-0.8,0.6,-1.5,1.4,-1.5c0.8,0,1.5,0.7,1.5,1.5Z" class="g5_3" />
<path d="M849.3,87.9l0,33.2m0,-4.7L839,129.1m0.1,-49.7l10.2,12.7" class="g10_3" />
<path d="M310.7,282L48.9,282" class="g11_3" />
<path d="M310.7,303.3l-261.8,0" class="g11_3" />
<path d="M310.7,324.7l-261.8,0" class="g11_3" />
<path d="M310.7,346.1l-261.8,0" class="g11_3" />
<path d="M310.7,367.5l-261.8,0" class="g11_3" />
<path d="M310.7,388.9l-261.8,0" class="g11_3" />
<path d="M310.7,410.3l-261.8,0" class="g11_3" />
<path d="M310.7,431.7l-261.8,0" class="g11_3" />
<path d="M54,542.9c2.5,0,4.6,-2,4.6,-4.5c0,-2.5,-2.1,-4.5,-4.6,-4.5c-2.5,0,-4.5,2,-4.5,4.5c0,2.5,2,4.5,4.5,4.5Z" class="g3_3" />
<path d="M54,543.5c-2.8,0,-5.1,-2.3,-5.1,-5.1c0,-2.8,2.3,-5.1,5.1,-5.1c2.8,0,5.1,2.3,5.1,5.1c0,2.8,-2.3,5.1,-5.1,5.1m0,-9.1c-2.2,0,-4,1.8,-4,4c0,2.2,1.8,4,4,4c2.2,0,4,-1.8,4,-4c0,-2.2,-1.8,-4,-4,-4Z" class="g5_3" />
<path d="M61.8,543.3l249,0" class="g11_3" />
<path d="M54,564.3c2.5,0,4.6,-2,4.6,-4.5c0,-2.5,-2.1,-4.5,-4.6,-4.5c-2.5,0,-4.5,2,-4.5,4.5c0,2.5,2,4.5,4.5,4.5Z" class="g3_3" />
<path d="M54,564.9c-2.8,0,-5.1,-2.3,-5.1,-5.1c0,-2.8,2.3,-5.1,5.1,-5.1c2.8,0,5.1,2.3,5.1,5.1c0,2.8,-2.3,5.1,-5.1,5.1m0,-9.1c-2.2,0,-4,1.8,-4,4c0,2.2,1.8,4,4,4c2.2,0,4,-1.8,4,-4c0,-2.2,-1.8,-4,-4,-4Z" class="g5_3" />
<path d="M61.8,564.7l249,0" class="g11_3" />
<path d="M54,585.7c2.5,0,4.6,-2,4.6,-4.5c0,-2.5,-2.1,-4.6,-4.6,-4.6c-2.5,0,-4.5,2.1,-4.5,4.6c0,2.5,2,4.5,4.5,4.5Z" class="g3_3" />
<path d="M54,586.3c-2.8,0,-5.1,-2.3,-5.1,-5.1c0,-2.8,2.3,-5.1,5.1,-5.1c2.8,0,5.1,2.3,5.1,5.1c0,2.8,-2.3,5.1,-5.1,5.1m0,-9.1c-2.2,0,-4,1.8,-4,4c0,2.2,1.8,4,4,4c2.2,0,4,-1.8,4,-4c0,-2.2,-1.8,-4,-4,-4Z" class="g5_3" />
<path d="M61.8,586.1l249,0" class="g11_3" />
<path d="M54,607.1c2.5,0,4.6,-2,4.6,-4.5C58.6,600.1,56.5,598,54,598c-2.5,0,-4.5,2.1,-4.5,4.6c0,2.5,2,4.5,4.5,4.5Z" class="g3_3" />
<path d="M54,607.7c-2.8,0,-5.1,-2.3,-5.1,-5.1c0,-2.8,2.3,-5.1,5.1,-5.1c2.8,0,5.1,2.3,5.1,5.1c0,2.8,-2.3,5.1,-5.1,5.1m0,-9.1c-2.2,0,-4,1.8,-4,4c0,2.2,1.8,4,4,4c2.2,0,4,-1.8,4,-4c0,-2.2,-1.8,-4,-4,-4Z" class="g5_3" />
<path d="M61.8,607.5l249,0" class="g11_3" />
<path d="M54,628.5c2.5,0,4.6,-2,4.6,-4.5c0,-2.6,-2.1,-4.6,-4.6,-4.6c-2.5,0,-4.5,2,-4.5,4.6c0,2.5,2,4.5,4.5,4.5Z" class="g3_3" />
<path d="M54,629c-2.8,0,-5.1,-2.2,-5.1,-5c0,-2.8,2.3,-5.1,5.1,-5.1c2.8,0,5.1,2.3,5.1,5.1c0,2.8,-2.3,5,-5.1,5m0,-9c-2.2,0,-4,1.8,-4,4c0,2.2,1.8,3.9,4,3.9c2.2,0,4,-1.7,4,-3.9c0,-2.2,-1.8,-4,-4,-4Z" class="g5_3" />
<path d="M61.8,628.9l249,0" class="g11_3" />
<path d="M54,649.9c2.5,0,4.6,-2,4.6,-4.6c0,-2.5,-2.1,-4.5,-4.6,-4.5c-2.5,0,-4.5,2,-4.5,4.5c0,2.6,2,4.6,4.5,4.6Z" class="g3_3" />
<path d="M54,650.4c-2.8,0,-5.1,-2.2,-5.1,-5.1c0,-2.8,2.3,-5,5.1,-5c2.8,0,5.1,2.2,5.1,5c0,2.9,-2.3,5.1,-5.1,5.1m0,-9c-2.2,0,-4,1.7,-4,3.9c0,2.2,1.8,4,4,4c2.2,0,4,-1.8,4,-4c0,-2.2,-1.8,-3.9,-4,-3.9Z" class="g5_3" />
<path d="M61.8,650.2l249,0" class="g11_3" />
<path d="M54,671.3c2.5,0,4.6,-2.1,4.6,-4.6c0,-2.5,-2.1,-4.5,-4.6,-4.5c-2.5,0,-4.5,2,-4.5,4.5c0,2.5,2,4.6,4.5,4.6Z" class="g3_3" />
<path d="M54,671.8c-2.8,0,-5.1,-2.3,-5.1,-5.1c0,-2.8,2.3,-5.1,5.1,-5.1c2.8,0,5.1,2.3,5.1,5.1c0,2.8,-2.3,5.1,-5.1,5.1m0,-9.1c-2.2,0,-4,1.8,-4,4c0,2.2,1.8,4,4,4c2.2,0,4,-1.8,4,-4c0,-2.2,-1.8,-4,-4,-4Z" class="g5_3" />
<path d="M61.8,671.6l249,0" class="g11_3" />
<path d="M54,692.7c2.5,0,4.6,-2.1,4.6,-4.6c0,-2.5,-2.1,-4.5,-4.6,-4.5c-2.5,0,-4.5,2,-4.5,4.5c0,2.5,2,4.6,4.5,4.6Z" class="g3_3" />
<path d="M54,693.2c-2.8,0,-5.1,-2.3,-5.1,-5.1c0,-2.8,2.3,-5.1,5.1,-5.1c2.8,0,5.1,2.3,5.1,5.1c0,2.8,-2.3,5.1,-5.1,5.1m0,-9.1c-2.2,0,-4,1.8,-4,4c0,2.2,1.8,4,4,4c2.2,0,4,-1.8,4,-4c0,-2.2,-1.8,-4,-4,-4Z" class="g5_3" />
<path d="M61.8,693l249,0" class="g11_3" />
<path d="M54,714.1c2.5,0,4.6,-2.1,4.6,-4.6C58.6,707,56.5,705,54,705c-2.5,0,-4.5,2,-4.5,4.5c0,2.5,2,4.6,4.5,4.6Z" class="g3_3" />
<path d="M54,714.6c-2.8,0,-5.1,-2.3,-5.1,-5.1c0,-2.8,2.3,-5.1,5.1,-5.1c2.8,0,5.1,2.3,5.1,5.1c0,2.8,-2.3,5.1,-5.1,5.1m0,-9.1c-2.2,0,-4,1.8,-4,4c0,2.2,1.8,4,4,4c2.2,0,4,-1.8,4,-4c0,-2.2,-1.8,-4,-4,-4Z" class="g5_3" />
<path d="M61.8,714.4l249,0" class="g11_3" />
<path d="M54,735.4c2.5,0,4.6,-2,4.6,-4.5c0,-2.5,-2.1,-4.5,-4.6,-4.5c-2.5,0,-4.5,2,-4.5,4.5c0,2.5,2,4.5,4.5,4.5Z" class="g3_3" />
<path d="M54,736c-2.8,0,-5.1,-2.3,-5.1,-5.1c0,-2.8,2.3,-5.1,5.1,-5.1c2.8,0,5.1,2.3,5.1,5.1c0,2.8,-2.3,5.1,-5.1,5.1m0,-9.1c-2.2,0,-4,1.8,-4,4c0,2.2,1.8,4,4,4c2.2,0,4,-1.8,4,-4c0,-2.2,-1.8,-4,-4,-4Z" class="g5_3" />
<path d="M61.8,735.8l249,0" class="g11_3" />
<path d="M54,756.8c2.5,0,4.6,-2,4.6,-4.5c0,-2.5,-2.1,-4.5,-4.6,-4.5c-2.5,0,-4.5,2,-4.5,4.5c0,2.5,2,4.5,4.5,4.5Z" class="g3_3" />
<path d="M54,757.4c-2.8,0,-5.1,-2.3,-5.1,-5.1c0,-2.8,2.3,-5.1,5.1,-5.1c2.8,0,5.1,2.3,5.1,5.1c0,2.8,-2.3,5.1,-5.1,5.1m0,-9.1c-2.2,0,-4,1.8,-4,4c0,2.2,1.8,4,4,4c2.2,0,4,-1.8,4,-4c0,-2.2,-1.8,-4,-4,-4Z" class="g5_3" />
<path d="M61.8,757.2l249,0" class="g11_3" />
<path d="M54,778.2c2.5,0,4.6,-2,4.6,-4.5c0,-2.5,-2.1,-4.6,-4.6,-4.6c-2.5,0,-4.5,2.1,-4.5,4.6c0,2.5,2,4.5,4.5,4.5Z" class="g3_3" />
<path d="M54,778.8c-2.8,0,-5.1,-2.3,-5.1,-5.1c0,-2.8,2.3,-5.1,5.1,-5.1c2.8,0,5.1,2.3,5.1,5.1c0,2.8,-2.3,5.1,-5.1,5.1m0,-9.1c-2.2,0,-4,1.8,-4,4c0,2.2,1.8,4,4,4c2.2,0,4,-1.8,4,-4c0,-2.2,-1.8,-4,-4,-4Z" class="g5_3" />
<path d="M61.8,778.6l249,0" class="g11_3" />
<path d="M54,799.6c2.5,0,4.6,-2,4.6,-4.5c0,-2.5,-2.1,-4.6,-4.6,-4.6c-2.5,0,-4.5,2.1,-4.5,4.6c0,2.5,2,4.5,4.5,4.5Z" class="g3_3" />
<path d="M54,800.2c-2.8,0,-5.1,-2.3,-5.1,-5.1c0,-2.8,2.3,-5.1,5.1,-5.1c2.8,0,5.1,2.3,5.1,5.1c0,2.8,-2.3,5.1,-5.1,5.1m0,-9.1c-2.2,0,-4,1.8,-4,4c0,2.2,1.8,4,4,4c2.2,0,4,-1.8,4,-4c0,-2.2,-1.8,-4,-4,-4Z" class="g5_3" />
<path d="M61.8,800l249,0" class="g11_3" />
<path d="M54,889.1c2.5,0,4.6,-2,4.6,-4.6C58.6,882,56.5,880,54,880c-2.5,0,-4.5,2,-4.5,4.5c0,2.6,2,4.6,4.5,4.6Z" class="g3_3" />
<path d="M54,889.6c-2.8,0,-5.1,-2.2,-5.1,-5.1c0,-2.8,2.3,-5,5.1,-5c2.8,0,5.1,2.2,5.1,5c0,2.9,-2.3,5.1,-5.1,5.1m0,-9c-2.2,0,-4,1.7,-4,3.9c0,2.3,1.8,4,4,4c2.2,0,4,-1.7,4,-4c0,-2.2,-1.8,-3.9,-4,-3.9Z" class="g5_3" />
<path d="M61.8,889.4l249,0" class="g11_3" />
<path d="M54,910.5c2.5,0,4.6,-2.1,4.6,-4.6c0,-2.5,-2.1,-4.5,-4.6,-4.5c-2.5,0,-4.5,2,-4.5,4.5c0,2.5,2,4.6,4.5,4.6Z" class="g3_3" />
<path d="M54,911c-2.8,0,-5.1,-2.3,-5.1,-5.1c0,-2.8,2.3,-5,5.1,-5c2.8,0,5.1,2.2,5.1,5c0,2.8,-2.3,5.1,-5.1,5.1m0,-9.1c-2.2,0,-4,1.8,-4,4c0,2.2,1.8,4,4,4c2.2,0,4,-1.8,4,-4c0,-2.2,-1.8,-4,-4,-4Z" class="g5_3" />
<path d="M61.8,910.8l249,0" class="g11_3" />
<path d="M54,931.9c2.5,0,4.6,-2.1,4.6,-4.6c0,-2.5,-2.1,-4.5,-4.6,-4.5c-2.5,0,-4.5,2,-4.5,4.5c0,2.5,2,4.6,4.5,4.6Z" class="g3_3" />
<path d="M54,932.4c-2.8,0,-5.1,-2.3,-5.1,-5.1c0,-2.8,2.3,-5.1,5.1,-5.1c2.8,0,5.1,2.3,5.1,5.1c0,2.8,-2.3,5.1,-5.1,5.1m0,-9.1c-2.2,0,-4,1.8,-4,4c0,2.2,1.8,4,4,4c2.2,0,4,-1.8,4,-4c0,-2.2,-1.8,-4,-4,-4Z" class="g5_3" />
<path d="M61.8,932.2l249,0" class="g11_3" />
<path d="M54,953.3c2.5,0,4.6,-2.1,4.6,-4.6c0,-2.5,-2.1,-4.5,-4.6,-4.5c-2.5,0,-4.5,2,-4.5,4.5c0,2.5,2,4.6,4.5,4.6Z" class="g3_3" />
<path d="M54,953.8c-2.8,0,-5.1,-2.3,-5.1,-5.1c0,-2.8,2.3,-5.1,5.1,-5.1c2.8,0,5.1,2.3,5.1,5.1c0,2.8,-2.3,5.1,-5.1,5.1m0,-9.1c-2.2,0,-4,1.8,-4,4c0,2.2,1.8,4,4,4c2.2,0,4,-1.8,4,-4c0,-2.2,-1.8,-4,-4,-4Z" class="g5_3" />
<path d="M61.8,953.6l249,0" class="g11_3" />
<path d="M54,974.6c2.5,0,4.6,-2,4.6,-4.5c0,-2.5,-2.1,-4.5,-4.6,-4.5c-2.5,0,-4.5,2,-4.5,4.5c0,2.5,2,4.5,4.5,4.5Z" class="g3_3" />
<path d="M54,975.2c-2.8,0,-5.1,-2.3,-5.1,-5.1c0,-2.8,2.3,-5.1,5.1,-5.1c2.8,0,5.1,2.3,5.1,5.1c0,2.8,-2.3,5.1,-5.1,5.1m0,-9.1c-2.2,0,-4,1.8,-4,4c0,2.2,1.8,4,4,4c2.2,0,4,-1.8,4,-4c0,-2.2,-1.8,-4,-4,-4Z" class="g5_3" />
<path d="M61.8,975l249,0" class="g11_3" />
<path d="M54,996c2.5,0,4.6,-2,4.6,-4.5C58.6,989,56.5,987,54,987c-2.5,0,-4.5,2,-4.5,4.5c0,2.5,2,4.5,4.5,4.5Z" class="g3_3" />
<path d="M54,996.6c-2.8,0,-5.1,-2.3,-5.1,-5.1c0,-2.8,2.3,-5.1,5.1,-5.1c2.8,0,5.1,2.3,5.1,5.1c0,2.8,-2.3,5.1,-5.1,5.1m0,-9.1c-2.2,0,-4,1.8,-4,4c0,2.2,1.8,4,4,4c2.2,0,4,-1.8,4,-4c0,-2.2,-1.8,-4,-4,-4Z" class="g5_3" />
<path d="M61.8,996.4l249,0" class="g11_3" />
<path d="M54,1017.4c2.5,0,4.6,-2,4.6,-4.5c0,-2.5,-2.1,-4.6,-4.6,-4.6c-2.5,0,-4.5,2.1,-4.5,4.6c0,2.5,2,4.5,4.5,4.5Z" class="g3_3" />
<path d="M54,1018c-2.8,0,-5.1,-2.3,-5.1,-5.1c0,-2.8,2.3,-5.1,5.1,-5.1c2.8,0,5.1,2.3,5.1,5.1c0,2.8,-2.3,5.1,-5.1,5.1m0,-9.1c-2.2,0,-4,1.8,-4,4c0,2.2,1.8,4,4,4c2.2,0,4,-1.8,4,-4c0,-2.2,-1.8,-4,-4,-4Z" class="g5_3" />
<path d="M61.8,1017.8l249,0" class="g11_3" />
<path d="M54,1038.8c2.5,0,4.6,-2,4.6,-4.5c0,-2.5,-2.1,-4.6,-4.6,-4.6c-2.5,0,-4.5,2.1,-4.5,4.6c0,2.5,2,4.5,4.5,4.5Z" class="g3_3" />
<path d="M54,1039.4c-2.8,0,-5.1,-2.3,-5.1,-5.1c0,-2.8,2.3,-5.1,5.1,-5.1c2.8,0,5.1,2.3,5.1,5.1c0,2.8,-2.3,5.1,-5.1,5.1m0,-9.1c-2.2,0,-4,1.8,-4,4c0,2.2,1.8,4,4,4c2.2,0,4,-1.8,4,-4c0,-2.2,-1.8,-4,-4,-4Z" class="g5_3" />
<path d="M61.8,1039.2l249,0" class="g11_3" />
<path d="M54,1060.2c2.5,0,4.6,-2,4.6,-4.5c0,-2.5,-2.1,-4.6,-4.6,-4.6c-2.5,0,-4.5,2.1,-4.5,4.6c0,2.5,2,4.5,4.5,4.5Z" class="g3_3" />
<path d="M54,1060.7c-2.8,0,-5.1,-2.2,-5.1,-5c0,-2.8,2.3,-5.1,5.1,-5.1c2.8,0,5.1,2.3,5.1,5.1c0,2.8,-2.3,5,-5.1,5m0,-9c-2.2,0,-4,1.8,-4,4c0,2.2,1.8,4,4,4c2.2,0,4,-1.8,4,-4c0,-2.2,-1.8,-4,-4,-4Z" class="g5_3" />
<path d="M61.8,1060.6l249,0" class="g11_3" />
<path d="M54,1081.6c2.5,0,4.6,-2,4.6,-4.6c0,-2.5,-2.1,-4.5,-4.6,-4.5c-2.5,0,-4.5,2,-4.5,4.5c0,2.6,2,4.6,4.5,4.6Z" class="g3_3" />
<path d="M54,1082.1c-2.8,0,-5.1,-2.2,-5.1,-5.1c0,-2.8,2.3,-5,5.1,-5c2.8,0,5.1,2.2,5.1,5c0,2.9,-2.3,5.1,-5.1,5.1m0,-9c-2.2,0,-4,1.7,-4,3.9c0,2.3,1.8,4,4,4c2.2,0,4,-1.7,4,-4c0,-2.2,-1.8,-3.9,-4,-3.9Z" class="g5_3" />
<path d="M61.8,1081.9l249,0" class="g11_3" />
<path d="M54,1103c2.5,0,4.6,-2.1,4.6,-4.6c0,-2.5,-2.1,-4.5,-4.6,-4.5c-2.5,0,-4.5,2,-4.5,4.5c0,2.5,2,4.6,4.5,4.6Z" class="g3_3" />
<path d="M54,1103.5c-2.8,0,-5.1,-2.3,-5.1,-5.1c0,-2.8,2.3,-5,5.1,-5c2.8,0,5.1,2.2,5.1,5c0,2.8,-2.3,5.1,-5.1,5.1m0,-9.1c-2.2,0,-4,1.8,-4,4c0,2.2,1.8,4,4,4c2.2,0,4,-1.8,4,-4c0,-2.2,-1.8,-4,-4,-4Z" class="g5_3" />
<path d="M61.8,1103.3l249,0" class="g11_3" />
<path d="M54,1124.4c2.5,0,4.6,-2.1,4.6,-4.6c0,-2.5,-2.1,-4.5,-4.6,-4.5c-2.5,0,-4.5,2,-4.5,4.5c0,2.5,2,4.6,4.5,4.6Z" class="g3_3" />
<path d="M54,1124.9c-2.8,0,-5.1,-2.3,-5.1,-5.1c0,-2.8,2.3,-5.1,5.1,-5.1c2.8,0,5.1,2.3,5.1,5.1c0,2.8,-2.3,5.1,-5.1,5.1m0,-9.1c-2.2,0,-4,1.8,-4,4c0,2.2,1.8,4,4,4c2.2,0,4,-1.8,4,-4c0,-2.2,-1.8,-4,-4,-4Z" class="g5_3" />
<path d="M61.8,1124.7l249,0" class="g11_3" />
<path d="M54,1145.8c2.5,0,4.6,-2.1,4.6,-4.6c0,-2.5,-2.1,-4.5,-4.6,-4.5c-2.5,0,-4.5,2,-4.5,4.5c0,2.5,2,4.6,4.5,4.6Z" class="g3_3" />
<path d="M54,1146.3c-2.8,0,-5.1,-2.3,-5.1,-5.1c0,-2.8,2.3,-5.1,5.1,-5.1c2.8,0,5.1,2.3,5.1,5.1c0,2.8,-2.3,5.1,-5.1,5.1m0,-9.1c-2.2,0,-4,1.8,-4,4c0,2.2,1.8,4,4,4c2.2,0,4,-1.8,4,-4c0,-2.2,-1.8,-4,-4,-4Z" class="g5_3" />
<path d="M61.8,1146.1l249,0" class="g11_3" />
<path d="M342.8,283.6c2.5,0,4.5,-2,4.5,-4.5c0,-2.5,-2,-4.5,-4.5,-4.5c-2.5,0,-4.6,2,-4.6,4.5c0,2.5,2.1,4.5,4.6,4.5Z" class="g3_3" />
<path d="M342.8,284.2c-2.8,0,-5.1,-2.3,-5.1,-5.1c0,-2.8,2.3,-5.1,5.1,-5.1c2.8,0,5.1,2.3,5.1,5.1c0,2.8,-2.3,5.1,-5.1,5.1m0,-9.1c-2.2,0,-4,1.8,-4,4c0,2.2,1.8,4,4,4c2.2,0,4,-1.8,4,-4c0,-2.2,-1.8,-4,-4,-4Z" class="g5_3" />
<path d="M350.5,284l249.1,0" class="g11_3" />
<path d="M342.8,305c2.5,0,4.5,-2,4.5,-4.5c0,-2.5,-2,-4.6,-4.5,-4.6c-2.5,0,-4.6,2.1,-4.6,4.6c0,2.5,2.1,4.5,4.6,4.5Z" class="g3_3" />
<path d="M342.8,305.6c-2.8,0,-5.1,-2.3,-5.1,-5.1c0,-2.8,2.3,-5.1,5.1,-5.1c2.8,0,5.1,2.3,5.1,5.1c0,2.8,-2.3,5.1,-5.1,5.1m0,-9.1c-2.2,0,-4,1.8,-4,4c0,2.2,1.8,4,4,4c2.2,0,4,-1.8,4,-4c0,-2.2,-1.8,-4,-4,-4Z" class="g5_3" />
<path d="M350.5,305.4l249.1,0" class="g11_3" />
<path d="M342.8,326.4c2.5,0,4.5,-2,4.5,-4.5c0,-2.5,-2,-4.6,-4.5,-4.6c-2.5,0,-4.6,2.1,-4.6,4.6c0,2.5,2.1,4.5,4.6,4.5Z" class="g3_3" />
<path d="M342.8,327c-2.8,0,-5.1,-2.3,-5.1,-5.1c0,-2.8,2.3,-5.1,5.1,-5.1c2.8,0,5.1,2.3,5.1,5.1c0,2.8,-2.3,5.1,-5.1,5.1m0,-9.1c-2.2,0,-4,1.8,-4,4c0,2.2,1.8,4,4,4c2.2,0,4,-1.8,4,-4c0,-2.2,-1.8,-4,-4,-4Z" class="g5_3" />
<path d="M350.5,326.8l249.1,0" class="g11_3" />
<path d="M342.8,347.8c2.5,0,4.5,-2,4.5,-4.5c0,-2.6,-2,-4.6,-4.5,-4.6c-2.5,0,-4.6,2,-4.6,4.6c0,2.5,2.1,4.5,4.6,4.5Z" class="g3_3" />
<path d="M342.8,348.3c-2.8,0,-5.1,-2.2,-5.1,-5c0,-2.8,2.3,-5.1,5.1,-5.1c2.8,0,5.1,2.3,5.1,5.1c0,2.8,-2.3,5,-5.1,5m0,-9c-2.2,0,-4,1.8,-4,4c0,2.2,1.8,3.9,4,3.9c2.2,0,4,-1.7,4,-3.9c0,-2.2,-1.8,-4,-4,-4Z" class="g5_3" />
<path d="M350.5,348.2l249.1,0" class="g11_3" />
<path d="M342.8,369.2c2.5,0,4.5,-2,4.5,-4.6c0,-2.5,-2,-4.5,-4.5,-4.5c-2.5,0,-4.6,2,-4.6,4.5c0,2.6,2.1,4.6,4.6,4.6Z" class="g3_3" />
<path d="M342.8,369.7c-2.8,0,-5.1,-2.3,-5.1,-5.1c0,-2.8,2.3,-5,5.1,-5c2.8,0,5.1,2.2,5.1,5c0,2.8,-2.3,5.1,-5.1,5.1m0,-9c-2.2,0,-4,1.7,-4,3.9c0,2.2,1.8,4,4,4c2.2,0,4,-1.8,4,-4c0,-2.2,-1.8,-3.9,-4,-3.9Z" class="g5_3" />
<path d="M350.5,369.5l249.1,0" class="g11_3" />
<path d="M342.8,390.6c2.5,0,4.5,-2.1,4.5,-4.6c0,-2.5,-2,-4.5,-4.5,-4.5c-2.5,0,-4.6,2,-4.6,4.5c0,2.5,2.1,4.6,4.6,4.6Z" class="g3_3" />
<path d="M342.8,391.1c-2.8,0,-5.1,-2.3,-5.1,-5.1c0,-2.8,2.3,-5.1,5.1,-5.1c2.8,0,5.1,2.3,5.1,5.1c0,2.8,-2.3,5.1,-5.1,5.1m0,-9.1c-2.2,0,-4,1.8,-4,4c0,2.2,1.8,4,4,4c2.2,0,4,-1.8,4,-4c0,-2.2,-1.8,-4,-4,-4Z" class="g5_3" />
<path d="M350.5,390.9l249.1,0" class="g11_3" />
<path d="M342.8,412c2.5,0,4.5,-2.1,4.5,-4.6c0,-2.5,-2,-4.5,-4.5,-4.5c-2.5,0,-4.6,2,-4.6,4.5c0,2.5,2.1,4.6,4.6,4.6Z" class="g3_3" />
<path d="M342.8,412.5c-2.8,0,-5.1,-2.3,-5.1,-5.1c0,-2.8,2.3,-5.1,5.1,-5.1c2.8,0,5.1,2.3,5.1,5.1c0,2.8,-2.3,5.1,-5.1,5.1m0,-9.1c-2.2,0,-4,1.8,-4,4c0,2.2,1.8,4,4,4c2.2,0,4,-1.8,4,-4c0,-2.2,-1.8,-4,-4,-4Z" class="g5_3" />
<path d="M350.5,412.3l249.1,0" class="g11_3" />
<path d="M342.8,433.3c2.5,0,4.5,-2,4.5,-4.5c0,-2.5,-2,-4.5,-4.5,-4.5c-2.5,0,-4.6,2,-4.6,4.5c0,2.5,2.1,4.5,4.6,4.5Z" class="g3_3" />
<path d="M342.8,433.9c-2.8,0,-5.1,-2.3,-5.1,-5.1c0,-2.8,2.3,-5.1,5.1,-5.1c2.8,0,5.1,2.3,5.1,5.1c0,2.8,-2.3,5.1,-5.1,5.1m0,-9.1c-2.2,0,-4,1.8,-4,4c0,2.2,1.8,4,4,4c2.2,0,4,-1.8,4,-4c0,-2.2,-1.8,-4,-4,-4Z" class="g5_3" />
<path d="M350.5,433.7l249.1,0" class="g11_3" />
<path d="M342.8,454.7c2.5,0,4.5,-2,4.5,-4.5c0,-2.5,-2,-4.5,-4.5,-4.5c-2.5,0,-4.6,2,-4.6,4.5c0,2.5,2.1,4.5,4.6,4.5Z" class="g3_3" />
<path d="M342.8,455.3c-2.8,0,-5.1,-2.3,-5.1,-5.1c0,-2.8,2.3,-5.1,5.1,-5.1c2.8,0,5.1,2.3,5.1,5.1c0,2.8,-2.3,5.1,-5.1,5.1m0,-9.1c-2.2,0,-4,1.8,-4,4c0,2.2,1.8,4,4,4c2.2,0,4,-1.8,4,-4c0,-2.2,-1.8,-4,-4,-4Z" class="g5_3" />
<path d="M350.5,455.1l249.1,0" class="g11_3" />
<path d="M342.8,476.1c2.5,0,4.5,-2,4.5,-4.5c0,-2.5,-2,-4.5,-4.5,-4.5c-2.5,0,-4.6,2,-4.6,4.5c0,2.5,2.1,4.5,4.6,4.5Z" class="g3_3" />
<path d="M342.8,476.7c-2.8,0,-5.1,-2.3,-5.1,-5.1c0,-2.8,2.3,-5.1,5.1,-5.1c2.8,0,5.1,2.3,5.1,5.1c0,2.8,-2.3,5.1,-5.1,5.1m0,-9.1c-2.2,0,-4,1.8,-4,4c0,2.2,1.8,4,4,4c2.2,0,4,-1.8,4,-4c0,-2.2,-1.8,-4,-4,-4Z" class="g5_3" />
<path d="M350.5,476.5l249.1,0" class="g11_3" />
<path d="M342.8,497.5c2.5,0,4.5,-2,4.5,-4.5c0,-2.5,-2,-4.6,-4.5,-4.6c-2.5,0,-4.6,2.1,-4.6,4.6c0,2.5,2.1,4.5,4.6,4.5Z" class="g3_3" />
<path d="M342.8,498.1c-2.8,0,-5.1,-2.3,-5.1,-5.1c0,-2.8,2.3,-5.1,5.1,-5.1c2.8,0,5.1,2.3,5.1,5.1c0,2.8,-2.3,5.1,-5.1,5.1m0,-9.1c-2.2,0,-4,1.8,-4,4c0,2.2,1.8,4,4,4c2.2,0,4,-1.8,4,-4c0,-2.2,-1.8,-4,-4,-4Z" class="g5_3" />
<path d="M350.5,497.9l249.1,0" class="g11_3" />
<path d="M342.8,518.9c2.5,0,4.5,-2,4.5,-4.5c0,-2.5,-2,-4.6,-4.5,-4.6c-2.5,0,-4.6,2.1,-4.6,4.6c0,2.5,2.1,4.5,4.6,4.5Z" class="g3_3" />
<path d="M342.8,519.5c-2.8,0,-5.1,-2.3,-5.1,-5.1c0,-2.8,2.3,-5.1,5.1,-5.1c2.8,0,5.1,2.3,5.1,5.1c0,2.8,-2.3,5.1,-5.1,5.1m0,-9.1c-2.2,0,-4,1.8,-4,4c0,2.2,1.8,4,4,4c2.2,0,4,-1.8,4,-4c0,-2.2,-1.8,-4,-4,-4Z" class="g5_3" />
<path d="M350.5,519.3l249.1,0" class="g11_3" />
<path d="M342.8,540.3c2.5,0,4.5,-2,4.5,-4.5c0,-2.6,-2,-4.6,-4.5,-4.6c-2.5,0,-4.6,2,-4.6,4.6c0,2.5,2.1,4.5,4.6,4.5Z" class="g3_3" />
<path d="M342.8,540.8c-2.8,0,-5.1,-2.2,-5.1,-5c0,-2.8,2.3,-5.1,5.1,-5.1c2.8,0,5.1,2.3,5.1,5.1c0,2.8,-2.3,5,-5.1,5m0,-9c-2.2,0,-4,1.8,-4,4c0,2.2,1.8,3.9,4,3.9c2.2,0,4,-1.7,4,-3.9c0,-2.2,-1.8,-4,-4,-4Z" class="g5_3" />
<path d="M350.5,540.7l249.1,0" class="g11_3" />
<path d="M628.6,283.6c2.6,0,4.6,-2,4.6,-4.5c0,-2.5,-2,-4.5,-4.6,-4.5c-2.5,0,-4.5,2,-4.5,4.5c0,2.5,2,4.5,4.5,4.5Z" class="g3_3" />
<path d="M628.6,284.2c-2.8,0,-5,-2.3,-5,-5.1c0,-2.8,2.2,-5.1,5,-5.1c2.9,0,5.1,2.3,5.1,5.1c0,2.8,-2.2,5.1,-5.1,5.1m0,-9.1c-2.2,0,-3.9,1.8,-3.9,4c0,2.2,1.7,4,3.9,4c2.3,0,4,-1.8,4,-4c0,-2.2,-1.7,-4,-4,-4Z" class="g5_3" />
<path d="M636.4,284l249.1,0" class="g11_3" />
<path d="M628.6,305c2.6,0,4.6,-2,4.6,-4.5c0,-2.5,-2,-4.6,-4.6,-4.6c-2.5,0,-4.5,2.1,-4.5,4.6c0,2.5,2,4.5,4.5,4.5Z" class="g3_3" />
<path d="M628.6,305.6c-2.8,0,-5,-2.3,-5,-5.1c0,-2.8,2.2,-5.1,5,-5.1c2.9,0,5.1,2.3,5.1,5.1c0,2.8,-2.2,5.1,-5.1,5.1m0,-9.1c-2.2,0,-3.9,1.8,-3.9,4c0,2.2,1.7,4,3.9,4c2.3,0,4,-1.8,4,-4c0,-2.2,-1.7,-4,-4,-4Z" class="g5_3" />
<path d="M636.4,305.4l249.1,0" class="g11_3" />
<path d="M628.6,326.4c2.6,0,4.6,-2,4.6,-4.5c0,-2.5,-2,-4.6,-4.6,-4.6c-2.5,0,-4.5,2.1,-4.5,4.6c0,2.5,2,4.5,4.5,4.5Z" class="g3_3" />
<path d="M628.6,327c-2.8,0,-5,-2.3,-5,-5.1c0,-2.8,2.2,-5.1,5,-5.1c2.9,0,5.1,2.3,5.1,5.1c0,2.8,-2.2,5.1,-5.1,5.1m0,-9.1c-2.2,0,-3.9,1.8,-3.9,4c0,2.2,1.7,4,3.9,4c2.3,0,4,-1.8,4,-4c0,-2.2,-1.7,-4,-4,-4Z" class="g5_3" />
<path d="M636.4,326.8l249.1,0" class="g11_3" />
<path d="M628.6,347.8c2.6,0,4.6,-2,4.6,-4.5c0,-2.6,-2,-4.6,-4.6,-4.6c-2.5,0,-4.5,2,-4.5,4.6c0,2.5,2,4.5,4.5,4.5Z" class="g3_3" />
<path d="M628.6,348.3c-2.8,0,-5,-2.2,-5,-5c0,-2.8,2.2,-5.1,5,-5.1c2.9,0,5.1,2.3,5.1,5.1c0,2.8,-2.2,5,-5.1,5m0,-9c-2.2,0,-3.9,1.8,-3.9,4c0,2.2,1.7,3.9,3.9,3.9c2.3,0,4,-1.7,4,-3.9c0,-2.2,-1.7,-4,-4,-4Z" class="g5_3" />
<path d="M636.4,348.2l249.1,0" class="g11_3" />
<path d="M628.6,369.2c2.6,0,4.6,-2,4.6,-4.6c0,-2.5,-2,-4.5,-4.6,-4.5c-2.5,0,-4.5,2,-4.5,4.5c0,2.6,2,4.6,4.5,4.6Z" class="g3_3" />
<path d="M628.6,369.7c-2.8,0,-5,-2.3,-5,-5.1c0,-2.8,2.2,-5,5,-5c2.9,0,5.1,2.2,5.1,5c0,2.8,-2.2,5.1,-5.1,5.1m0,-9c-2.2,0,-3.9,1.7,-3.9,3.9c0,2.2,1.7,4,3.9,4c2.3,0,4,-1.8,4,-4c0,-2.2,-1.7,-3.9,-4,-3.9Z" class="g5_3" />
<path d="M636.4,369.5l249.1,0" class="g11_3" />
<path d="M628.6,390.6c2.6,0,4.6,-2.1,4.6,-4.6c0,-2.5,-2,-4.5,-4.6,-4.5c-2.5,0,-4.5,2,-4.5,4.5c0,2.5,2,4.6,4.5,4.6Z" class="g3_3" />
<path d="M628.6,391.1c-2.8,0,-5,-2.3,-5,-5.1c0,-2.8,2.2,-5.1,5,-5.1c2.9,0,5.1,2.3,5.1,5.1c0,2.8,-2.2,5.1,-5.1,5.1m0,-9.1c-2.2,0,-3.9,1.8,-3.9,4c0,2.2,1.7,4,3.9,4c2.3,0,4,-1.8,4,-4c0,-2.2,-1.7,-4,-4,-4Z" class="g5_3" />
<path d="M636.4,390.9l249.1,0" class="g11_3" />
<path d="M628.6,412c2.6,0,4.6,-2.1,4.6,-4.6c0,-2.5,-2,-4.5,-4.6,-4.5c-2.5,0,-4.5,2,-4.5,4.5c0,2.5,2,4.6,4.5,4.6Z" class="g3_3" />
<path d="M628.6,412.5c-2.8,0,-5,-2.3,-5,-5.1c0,-2.8,2.2,-5.1,5,-5.1c2.9,0,5.1,2.3,5.1,5.1c0,2.8,-2.2,5.1,-5.1,5.1m0,-9.1c-2.2,0,-3.9,1.8,-3.9,4c0,2.2,1.7,4,3.9,4c2.3,0,4,-1.8,4,-4c0,-2.2,-1.7,-4,-4,-4Z" class="g5_3" />
<path d="M636.4,412.3l249.1,0" class="g11_3" />
<path d="M628.6,433.3c2.6,0,4.6,-2,4.6,-4.5c0,-2.5,-2,-4.5,-4.6,-4.5c-2.5,0,-4.5,2,-4.5,4.5c0,2.5,2,4.5,4.5,4.5Z" class="g3_3" />
<path d="M628.6,433.9c-2.8,0,-5,-2.3,-5,-5.1c0,-2.8,2.2,-5.1,5,-5.1c2.9,0,5.1,2.3,5.1,5.1c0,2.8,-2.2,5.1,-5.1,5.1m0,-9.1c-2.2,0,-3.9,1.8,-3.9,4c0,2.2,1.7,4,3.9,4c2.3,0,4,-1.8,4,-4c0,-2.2,-1.7,-4,-4,-4Z" class="g5_3" />
<path d="M636.4,433.7l249.1,0" class="g11_3" />
<path d="M628.6,454.7c2.6,0,4.6,-2,4.6,-4.5c0,-2.5,-2,-4.5,-4.6,-4.5c-2.5,0,-4.5,2,-4.5,4.5c0,2.5,2,4.5,4.5,4.5Z" class="g3_3" />
<path d="M628.6,455.3c-2.8,0,-5,-2.3,-5,-5.1c0,-2.8,2.2,-5.1,5,-5.1c2.9,0,5.1,2.3,5.1,5.1c0,2.8,-2.2,5.1,-5.1,5.1m0,-9.1c-2.2,0,-3.9,1.8,-3.9,4c0,2.2,1.7,4,3.9,4c2.3,0,4,-1.8,4,-4c0,-2.2,-1.7,-4,-4,-4Z" class="g5_3" />
<path d="M636.4,455.1l249.1,0" class="g11_3" />
<path d="M628.6,543c2.6,0,4.6,-2.1,4.6,-4.6c0,-2.5,-2,-4.5,-4.6,-4.5c-2.5,0,-4.5,2,-4.5,4.5c0,2.5,2,4.6,4.5,4.6Z" class="g3_3" />
<path d="M628.6,543.5c-2.8,0,-5,-2.3,-5,-5.1c0,-2.8,2.2,-5.1,5,-5.1c2.9,0,5.1,2.3,5.1,5.1c0,2.8,-2.2,5.1,-5.1,5.1m0,-9.1c-2.2,0,-3.9,1.8,-3.9,4c0,2.2,1.7,4,3.9,4c2.3,0,4,-1.8,4,-4c0,-2.2,-1.7,-4,-4,-4Z" class="g5_3" />
<path d="M636.4,543.3l249.1,0" class="g11_3" />
<path d="M628.6,564.4c2.6,0,4.6,-2.1,4.6,-4.6c0,-2.5,-2,-4.5,-4.6,-4.5c-2.5,0,-4.5,2,-4.5,4.5c0,2.5,2,4.6,4.5,4.6Z" class="g3_3" />
<path d="M628.6,564.9c-2.8,0,-5,-2.3,-5,-5.1c0,-2.8,2.2,-5.1,5,-5.1c2.9,0,5.1,2.3,5.1,5.1c0,2.8,-2.2,5.1,-5.1,5.1m0,-9.1c-2.2,0,-3.9,1.8,-3.9,4c0,2.2,1.7,4,3.9,4c2.3,0,4,-1.8,4,-4c0,-2.2,-1.7,-4,-4,-4Z" class="g5_3" />
<path d="M636.4,564.7l249.1,0" class="g11_3" />
<path d="M628.6,585.7c2.6,0,4.6,-2,4.6,-4.5c0,-2.5,-2,-4.5,-4.6,-4.5c-2.5,0,-4.5,2,-4.5,4.5c0,2.5,2,4.5,4.5,4.5Z" class="g3_3" />
<path d="M628.6,586.3c-2.8,0,-5,-2.3,-5,-5.1c0,-2.8,2.2,-5.1,5,-5.1c2.9,0,5.1,2.3,5.1,5.1c0,2.8,-2.2,5.1,-5.1,5.1m0,-9.1c-2.2,0,-3.9,1.8,-3.9,4c0,2.2,1.7,4,3.9,4c2.3,0,4,-1.8,4,-4c0,-2.2,-1.7,-4,-4,-4Z" class="g5_3" />
<path d="M636.4,586.1l249.1,0" class="g11_3" />
<path d="M628.6,607.1c2.6,0,4.6,-2,4.6,-4.5c0,-2.5,-2,-4.5,-4.6,-4.5c-2.5,0,-4.5,2,-4.5,4.5c0,2.5,2,4.5,4.5,4.5Z" class="g3_3" />
<path d="M628.6,607.7c-2.8,0,-5,-2.3,-5,-5.1c0,-2.8,2.2,-5.1,5,-5.1c2.9,0,5.1,2.3,5.1,5.1c0,2.8,-2.2,5.1,-5.1,5.1m0,-9.1c-2.2,0,-3.9,1.8,-3.9,4c0,2.2,1.7,4,3.9,4c2.3,0,4,-1.8,4,-4c0,-2.2,-1.7,-4,-4,-4Z" class="g5_3" />
<path d="M636.4,607.5l249.1,0" class="g11_3" />
<path d="M628.6,628.5c2.6,0,4.6,-2,4.6,-4.5c0,-2.5,-2,-4.5,-4.6,-4.5c-2.5,0,-4.5,2,-4.5,4.5c0,2.5,2,4.5,4.5,4.5Z" class="g3_3" />
<path d="M628.6,629.1c-2.8,0,-5,-2.3,-5,-5.1c0,-2.8,2.2,-5.1,5,-5.1c2.9,0,5.1,2.3,5.1,5.1c0,2.8,-2.2,5.1,-5.1,5.1m0,-9.1c-2.2,0,-3.9,1.8,-3.9,4c0,2.2,1.7,4,3.9,4c2.3,0,4,-1.8,4,-4c0,-2.2,-1.7,-4,-4,-4Z" class="g5_3" />
<path d="M636.4,628.9l249.1,0" class="g11_3" />
<path d="M628.6,649.9c2.6,0,4.6,-2,4.6,-4.5c0,-2.5,-2,-4.6,-4.6,-4.6c-2.5,0,-4.5,2.1,-4.5,4.6c0,2.5,2,4.5,4.5,4.5Z" class="g3_3" />
<path d="M628.6,650.5c-2.8,0,-5,-2.3,-5,-5.1c0,-2.8,2.2,-5.1,5,-5.1c2.9,0,5.1,2.3,5.1,5.1c0,2.8,-2.2,5.1,-5.1,5.1m0,-9.1c-2.2,0,-3.9,1.8,-3.9,4c0,2.2,1.7,4,3.9,4c2.3,0,4,-1.8,4,-4c0,-2.2,-1.7,-4,-4,-4Z" class="g5_3" />
<path d="M636.4,650.3l249.1,0" class="g11_3" />
<path d="M628.6,671.3c2.6,0,4.6,-2,4.6,-4.5c0,-2.5,-2,-4.6,-4.6,-4.6c-2.5,0,-4.5,2.1,-4.5,4.6c0,2.5,2,4.5,4.5,4.5Z" class="g3_3" />
<path d="M628.6,671.9c-2.8,0,-5,-2.3,-5,-5.1c0,-2.8,2.2,-5.1,5,-5.1c2.9,0,5.1,2.3,5.1,5.1c0,2.8,-2.2,5.1,-5.1,5.1m0,-9.1c-2.2,0,-3.9,1.8,-3.9,4c0,2.2,1.7,4,3.9,4c2.3,0,4,-1.8,4,-4c0,-2.2,-1.7,-4,-4,-4Z" class="g5_3" />
<path d="M636.4,671.7l249.1,0" class="g11_3" />
<path d="M628.6,692.7c2.6,0,4.6,-2,4.6,-4.5c0,-2.6,-2,-4.6,-4.6,-4.6c-2.5,0,-4.5,2,-4.5,4.6c0,2.5,2,4.5,4.5,4.5Z" class="g3_3" />
<path d="M628.6,693.2c-2.8,0,-5,-2.2,-5,-5c0,-2.9,2.2,-5.1,5,-5.1c2.9,0,5.1,2.2,5.1,5.1c0,2.8,-2.2,5,-5.1,5m0,-9c-2.2,0,-3.9,1.8,-3.9,4c0,2.2,1.7,3.9,3.9,3.9c2.3,0,4,-1.7,4,-3.9c0,-2.2,-1.7,-4,-4,-4Z" class="g5_3" />
<path d="M636.4,693l249.1,0" class="g11_3" />
<path d="M628.6,714.1c2.6,0,4.6,-2,4.6,-4.6c0,-2.5,-2,-4.5,-4.6,-4.5c-2.5,0,-4.5,2,-4.5,4.5c0,2.6,2,4.6,4.5,4.6Z" class="g3_3" />
<path d="M628.6,714.6c-2.8,0,-5,-2.3,-5,-5.1c0,-2.8,2.2,-5,5,-5c2.9,0,5.1,2.2,5.1,5c0,2.8,-2.2,5.1,-5.1,5.1m0,-9c-2.2,0,-3.9,1.7,-3.9,3.9c0,2.2,1.7,4,3.9,4c2.3,0,4,-1.8,4,-4c0,-2.2,-1.7,-3.9,-4,-3.9Z" class="g5_3" />
<path d="M636.4,714.4l249.1,0" class="g11_3" />
<path d="M628.6,802.4c2.6,0,4.6,-2,4.6,-4.5c0,-2.6,-2,-4.6,-4.6,-4.6c-2.5,0,-4.5,2,-4.5,4.6c0,2.5,2,4.5,4.5,4.5Z" class="g3_3" />
<path d="M628.6,802.9c-2.8,0,-5,-2.2,-5,-5c0,-2.8,2.2,-5.1,5,-5.1c2.9,0,5.1,2.3,5.1,5.1c0,2.8,-2.2,5,-5.1,5m0,-9c-2.2,0,-3.9,1.8,-3.9,4c0,2.2,1.7,3.9,3.9,3.9c2.3,0,4,-1.7,4,-3.9c0,-2.2,-1.7,-4,-4,-4Z" class="g5_3" />
<path d="M636.4,802.8l249.1,0" class="g11_3" />
<path d="M628.6,823.8c2.6,0,4.6,-2,4.6,-4.6c0,-2.5,-2,-4.5,-4.6,-4.5c-2.5,0,-4.5,2,-4.5,4.5c0,2.6,2,4.6,4.5,4.6Z" class="g3_3" />
<path d="M628.6,824.3c-2.8,0,-5,-2.3,-5,-5.1c0,-2.8,2.2,-5,5,-5c2.9,0,5.1,2.2,5.1,5c0,2.8,-2.2,5.1,-5.1,5.1m0,-9c-2.2,0,-3.9,1.7,-3.9,3.9c0,2.2,1.7,4,3.9,4c2.3,0,4,-1.8,4,-4c0,-2.2,-1.7,-3.9,-4,-3.9Z" class="g5_3" />
<path d="M636.4,824.1l249.1,0" class="g11_3" />
<path d="M628.6,845.2c2.6,0,4.6,-2.1,4.6,-4.6c0,-2.5,-2,-4.5,-4.6,-4.5c-2.5,0,-4.5,2,-4.5,4.5c0,2.5,2,4.6,4.5,4.6Z" class="g3_3" />
<path d="M628.6,845.7c-2.8,0,-5,-2.3,-5,-5.1c0,-2.8,2.2,-5.1,5,-5.1c2.9,0,5.1,2.3,5.1,5.1c0,2.8,-2.2,5.1,-5.1,5.1m0,-9.1c-2.2,0,-3.9,1.8,-3.9,4c0,2.2,1.7,4,3.9,4c2.3,0,4,-1.8,4,-4c0,-2.2,-1.7,-4,-4,-4Z" class="g5_3" />
<path d="M636.4,845.5l249.1,0" class="g11_3" />
<path d="M628.6,866.6c2.6,0,4.6,-2.1,4.6,-4.6c0,-2.5,-2,-4.5,-4.6,-4.5c-2.5,0,-4.5,2,-4.5,4.5c0,2.5,2,4.6,4.5,4.6Z" class="g3_3" />
<path d="M628.6,867.1c-2.8,0,-5,-2.3,-5,-5.1c0,-2.8,2.2,-5.1,5,-5.1c2.9,0,5.1,2.3,5.1,5.1c0,2.8,-2.2,5.1,-5.1,5.1m0,-9.1c-2.2,0,-3.9,1.8,-3.9,4c0,2.2,1.7,4,3.9,4c2.3,0,4,-1.8,4,-4c0,-2.2,-1.7,-4,-4,-4Z" class="g5_3" />
<path d="M636.4,866.9l249.1,0" class="g11_3" />
<path d="M628.6,887.9c2.6,0,4.6,-2,4.6,-4.5c0,-2.5,-2,-4.5,-4.6,-4.5c-2.5,0,-4.5,2,-4.5,4.5c0,2.5,2,4.5,4.5,4.5Z" class="g3_3" />
<path d="M628.6,888.5c-2.8,0,-5,-2.3,-5,-5.1c0,-2.8,2.2,-5.1,5,-5.1c2.9,0,5.1,2.3,5.1,5.1c0,2.8,-2.2,5.1,-5.1,5.1m0,-9.1c-2.2,0,-3.9,1.8,-3.9,4c0,2.2,1.7,4,3.9,4c2.3,0,4,-1.8,4,-4c0,-2.2,-1.7,-4,-4,-4Z" class="g5_3" />
<path d="M636.4,888.3l249.1,0" class="g11_3" />
<path d="M628.6,909.3c2.6,0,4.6,-2,4.6,-4.5c0,-2.5,-2,-4.5,-4.6,-4.5c-2.5,0,-4.5,2,-4.5,4.5c0,2.5,2,4.5,4.5,4.5Z" class="g3_3" />
<path d="M628.6,909.9c-2.8,0,-5,-2.3,-5,-5.1c0,-2.8,2.2,-5.1,5,-5.1c2.9,0,5.1,2.3,5.1,5.1c0,2.8,-2.2,5.1,-5.1,5.1m0,-9.1c-2.2,0,-3.9,1.8,-3.9,4c0,2.2,1.7,4,3.9,4c2.3,0,4,-1.8,4,-4c0,-2.2,-1.7,-4,-4,-4Z" class="g5_3" />
<path d="M636.4,909.7l249.1,0" class="g11_3" />
<path d="M628.6,930.7c2.6,0,4.6,-2,4.6,-4.5c0,-2.5,-2,-4.5,-4.6,-4.5c-2.5,0,-4.5,2,-4.5,4.5c0,2.5,2,4.5,4.5,4.5Z" class="g3_3" />
<path d="M628.6,931.3c-2.8,0,-5,-2.3,-5,-5.1c0,-2.8,2.2,-5.1,5,-5.1c2.9,0,5.1,2.3,5.1,5.1c0,2.8,-2.2,5.1,-5.1,5.1m0,-9.1c-2.2,0,-3.9,1.8,-3.9,4c0,2.2,1.7,4,3.9,4c2.3,0,4,-1.8,4,-4c0,-2.2,-1.7,-4,-4,-4Z" class="g5_3" />
<path d="M636.4,931.1l249.1,0" class="g11_3" />
<path d="M628.6,1017.4c2.6,0,4.6,-2,4.6,-4.6c0,-2.5,-2,-4.5,-4.6,-4.5c-2.5,0,-4.5,2,-4.5,4.5c0,2.6,2,4.6,4.5,4.6Z" class="g3_3" />
<path d="M628.6,1017.9c-2.8,0,-5,-2.2,-5,-5c0,-2.9,2.2,-5.1,5,-5.1c2.9,0,5.1,2.2,5.1,5.1c0,2.8,-2.2,5,-5.1,5m0,-9c-2.2,0,-3.9,1.7,-3.9,4c0,2.2,1.7,3.9,3.9,3.9c2.3,0,4,-1.7,4,-3.9c0,-2.3,-1.7,-4,-4,-4Z" class="g5_3" />
<path d="M636.4,1017.7l249.1,0" class="g11_3" />
<path d="M628.6,1038.8c2.6,0,4.6,-2.1,4.6,-4.6c0,-2.5,-2,-4.5,-4.6,-4.5c-2.5,0,-4.5,2,-4.5,4.5c0,2.5,2,4.6,4.5,4.6Z" class="g3_3" />
<path d="M628.6,1039.3c-2.8,0,-5,-2.3,-5,-5.1c0,-2.8,2.2,-5,5,-5c2.9,0,5.1,2.2,5.1,5c0,2.8,-2.2,5.1,-5.1,5.1m0,-9.1c-2.2,0,-3.9,1.8,-3.9,4c0,2.2,1.7,4,3.9,4c2.3,0,4,-1.8,4,-4c0,-2.2,-1.7,-4,-4,-4Z" class="g5_3" />
<path d="M636.4,1039.1l249.1,0" class="g11_3" />
<path d="M628.6,1060.2c2.6,0,4.6,-2.1,4.6,-4.6c0,-2.5,-2,-4.5,-4.6,-4.5c-2.5,0,-4.5,2,-4.5,4.5c0,2.5,2,4.6,4.5,4.6Z" class="g3_3" />
<path d="M628.6,1060.7c-2.8,0,-5,-2.3,-5,-5.1c0,-2.8,2.2,-5.1,5,-5.1c2.9,0,5.1,2.3,5.1,5.1c0,2.8,-2.2,5.1,-5.1,5.1m0,-9.1c-2.2,0,-3.9,1.8,-3.9,4c0,2.2,1.7,4,3.9,4c2.3,0,4,-1.8,4,-4c0,-2.2,-1.7,-4,-4,-4Z" class="g5_3" />
<path d="M636.4,1060.5l249.1,0" class="g11_3" />
<path d="M628.6,1081.6c2.6,0,4.6,-2.1,4.6,-4.6c0,-2.5,-2,-4.5,-4.6,-4.5c-2.5,0,-4.5,2,-4.5,4.5c0,2.5,2,4.6,4.5,4.6Z" class="g3_3" />
<path d="M628.6,1082.1c-2.8,0,-5,-2.3,-5,-5.1c0,-2.8,2.2,-5.1,5,-5.1c2.9,0,5.1,2.3,5.1,5.1c0,2.8,-2.2,5.1,-5.1,5.1m0,-9.1c-2.2,0,-3.9,1.8,-3.9,4c0,2.2,1.7,4,3.9,4c2.3,0,4,-1.8,4,-4c0,-2.2,-1.7,-4,-4,-4Z" class="g5_3" />
<path d="M636.4,1081.9l249.1,0" class="g11_3" />
<path d="M628.6,1102.9c2.6,0,4.6,-2,4.6,-4.5c0,-2.5,-2,-4.5,-4.6,-4.5c-2.5,0,-4.5,2,-4.5,4.5c0,2.5,2,4.5,4.5,4.5Z" class="g3_3" />
<path d="M628.6,1103.5c-2.8,0,-5,-2.3,-5,-5.1c0,-2.8,2.2,-5.1,5,-5.1c2.9,0,5.1,2.3,5.1,5.1c0,2.8,-2.2,5.1,-5.1,5.1m0,-9.1c-2.2,0,-3.9,1.8,-3.9,4c0,2.2,1.7,4,3.9,4c2.3,0,4,-1.8,4,-4c0,-2.2,-1.7,-4,-4,-4Z" class="g5_3" />
<path d="M636.4,1103.3l249.1,0" class="g11_3" />
<path d="M628.6,1124.3c2.6,0,4.6,-2,4.6,-4.5c0,-2.5,-2,-4.5,-4.6,-4.5c-2.5,0,-4.5,2,-4.5,4.5c0,2.5,2,4.5,4.5,4.5Z" class="g3_3" />
<path d="M628.6,1124.9c-2.8,0,-5,-2.3,-5,-5.1c0,-2.8,2.2,-5.1,5,-5.1c2.9,0,5.1,2.3,5.1,5.1c0,2.8,-2.2,5.1,-5.1,5.1m0,-9.1c-2.2,0,-3.9,1.8,-3.9,4c0,2.2,1.7,4,3.9,4c2.3,0,4,-1.8,4,-4c0,-2.2,-1.7,-4,-4,-4Z" class="g5_3" />
<path d="M636.4,1124.7l249.1,0" class="g11_3" />
<path d="M628.6,1145.7c2.6,0,4.6,-2,4.6,-4.5c0,-2.5,-2,-4.6,-4.6,-4.6c-2.5,0,-4.5,2.1,-4.5,4.6c0,2.5,2,4.5,4.5,4.5Z" class="g3_3" />
<path d="M628.6,1146.3c-2.8,0,-5,-2.3,-5,-5.1c0,-2.8,2.2,-5.1,5,-5.1c2.9,0,5.1,2.3,5.1,5.1c0,2.8,-2.2,5.1,-5.1,5.1m0,-9.1c-2.2,0,-3.9,1.8,-3.9,4c0,2.2,1.7,4,3.9,4c2.3,0,4,-1.8,4,-4c0,-2.2,-1.7,-4,-4,-4Z" class="g5_3" />
<path d="M636.4,1146.1l249.1,0" class="g11_3" />
<path d="M342.8,628.3c2.5,0,4.5,-2.1,4.5,-4.6c0,-2.5,-2,-4.5,-4.5,-4.5c-2.5,0,-4.6,2,-4.6,4.5c0,2.5,2.1,4.6,4.6,4.6Z" class="g3_3" />
<path d="M342.8,628.8c-2.8,0,-5.1,-2.3,-5.1,-5.1c0,-2.8,2.3,-5.1,5.1,-5.1c2.8,0,5.1,2.3,5.1,5.1c0,2.8,-2.3,5.1,-5.1,5.1m0,-9.1c-2.2,0,-4,1.8,-4,4c0,2.2,1.8,4,4,4c2.2,0,4,-1.8,4,-4c0,-2.2,-1.8,-4,-4,-4Z" class="g5_3" />
<path d="M350.5,628.6l249.1,0" class="g11_3" />
<path d="M342.8,649.7c2.5,0,4.5,-2.1,4.5,-4.6c0,-2.5,-2,-4.5,-4.5,-4.5c-2.5,0,-4.6,2,-4.6,4.5c0,2.5,2.1,4.6,4.6,4.6Z" class="g3_3" />
<path d="M342.8,650.2c-2.8,0,-5.1,-2.3,-5.1,-5.1c0,-2.8,2.3,-5.1,5.1,-5.1c2.8,0,5.1,2.3,5.1,5.1c0,2.8,-2.3,5.1,-5.1,5.1m0,-9.1c-2.2,0,-4,1.8,-4,4c0,2.2,1.8,4,4,4c2.2,0,4,-1.8,4,-4c0,-2.2,-1.8,-4,-4,-4Z" class="g5_3" />
<path d="M350.5,650l249.1,0" class="g11_3" />
<path d="M342.8,671c2.5,0,4.5,-2,4.5,-4.5c0,-2.5,-2,-4.5,-4.5,-4.5c-2.5,0,-4.6,2,-4.6,4.5c0,2.5,2.1,4.5,4.6,4.5Z" class="g3_3" />
<path d="M342.8,671.6c-2.8,0,-5.1,-2.3,-5.1,-5.1c0,-2.8,2.3,-5.1,5.1,-5.1c2.8,0,5.1,2.3,5.1,5.1c0,2.8,-2.3,5.1,-5.1,5.1m0,-9.1c-2.2,0,-4,1.8,-4,4c0,2.2,1.8,4,4,4c2.2,0,4,-1.8,4,-4c0,-2.2,-1.8,-4,-4,-4Z" class="g5_3" />
<path d="M350.5,671.4l249.1,0" class="g11_3" />
<path d="M342.8,692.4c2.5,0,4.5,-2,4.5,-4.5c0,-2.5,-2,-4.5,-4.5,-4.5c-2.5,0,-4.6,2,-4.6,4.5c0,2.5,2.1,4.5,4.6,4.5Z" class="g3_3" />
<path d="M342.8,693c-2.8,0,-5.1,-2.3,-5.1,-5.1c0,-2.8,2.3,-5.1,5.1,-5.1c2.8,0,5.1,2.3,5.1,5.1c0,2.8,-2.3,5.1,-5.1,5.1m0,-9.1c-2.2,0,-4,1.8,-4,4c0,2.2,1.8,4,4,4c2.2,0,4,-1.8,4,-4c0,-2.2,-1.8,-4,-4,-4Z" class="g5_3" />
<path d="M350.5,692.8l249.1,0" class="g11_3" />
<path d="M342.8,713.8c2.5,0,4.5,-2,4.5,-4.5c0,-2.5,-2,-4.5,-4.5,-4.5c-2.5,0,-4.6,2,-4.6,4.5c0,2.5,2.1,4.5,4.6,4.5Z" class="g3_3" />
<path d="M342.8,714.4c-2.8,0,-5.1,-2.3,-5.1,-5.1c0,-2.8,2.3,-5.1,5.1,-5.1c2.8,0,5.1,2.3,5.1,5.1c0,2.8,-2.3,5.1,-5.1,5.1m0,-9.1c-2.2,0,-4,1.8,-4,4c0,2.2,1.8,4,4,4c2.2,0,4,-1.8,4,-4c0,-2.2,-1.8,-4,-4,-4Z" class="g5_3" />
<path d="M350.5,714.2l249.1,0" class="g11_3" />
<path d="M342.8,735.2c2.5,0,4.5,-2,4.5,-4.5c0,-2.5,-2,-4.6,-4.5,-4.6c-2.5,0,-4.6,2.1,-4.6,4.6c0,2.5,2.1,4.5,4.6,4.5Z" class="g3_3" />
<path d="M342.8,735.8c-2.8,0,-5.1,-2.3,-5.1,-5.1c0,-2.8,2.3,-5.1,5.1,-5.1c2.8,0,5.1,2.3,5.1,5.1c0,2.8,-2.3,5.1,-5.1,5.1m0,-9.1c-2.2,0,-4,1.8,-4,4c0,2.2,1.8,4,4,4c2.2,0,4,-1.8,4,-4c0,-2.2,-1.8,-4,-4,-4Z" class="g5_3" />
<path d="M350.5,735.6l249.1,0" class="g11_3" />
<path d="M342.8,756.6c2.5,0,4.5,-2,4.5,-4.5c0,-2.5,-2,-4.6,-4.5,-4.6c-2.5,0,-4.6,2.1,-4.6,4.6c0,2.5,2.1,4.5,4.6,4.5Z" class="g3_3" />
<path d="M342.8,757.2c-2.8,0,-5.1,-2.3,-5.1,-5.1c0,-2.8,2.3,-5.1,5.1,-5.1c2.8,0,5.1,2.3,5.1,5.1c0,2.8,-2.3,5.1,-5.1,5.1m0,-9.1c-2.2,0,-4,1.8,-4,4c0,2.2,1.8,4,4,4c2.2,0,4,-1.8,4,-4c0,-2.2,-1.8,-4,-4,-4Z" class="g5_3" />
<path d="M350.5,757l249.1,0" class="g11_3" />
<path d="M342.8,778c2.5,0,4.5,-2,4.5,-4.5c0,-2.6,-2,-4.6,-4.5,-4.6c-2.5,0,-4.6,2,-4.6,4.6c0,2.5,2.1,4.5,4.6,4.5Z" class="g3_3" />
<path d="M342.8,778.5c-2.8,0,-5.1,-2.2,-5.1,-5c0,-2.8,2.3,-5.1,5.1,-5.1c2.8,0,5.1,2.3,5.1,5.1c0,2.8,-2.3,5,-5.1,5m0,-9c-2.2,0,-4,1.8,-4,4c0,2.2,1.8,3.9,4,3.9c2.2,0,4,-1.7,4,-3.9c0,-2.2,-1.8,-4,-4,-4Z" class="g5_3" />
<path d="M350.5,778.4l249.1,0" class="g11_3" />
<path d="M342.8,799.4c2.5,0,4.5,-2,4.5,-4.6c0,-2.5,-2,-4.5,-4.5,-4.5c-2.5,0,-4.6,2,-4.6,4.5c0,2.6,2.1,4.6,4.6,4.6Z" class="g3_3" />
<path d="M342.8,799.9c-2.8,0,-5.1,-2.3,-5.1,-5.1c0,-2.8,2.3,-5,5.1,-5c2.8,0,5.1,2.2,5.1,5c0,2.8,-2.3,5.1,-5.1,5.1m0,-9c-2.2,0,-4,1.7,-4,3.9c0,2.2,1.8,4,4,4c2.2,0,4,-1.8,4,-4c0,-2.2,-1.8,-3.9,-4,-3.9Z" class="g5_3" />
<path d="M350.5,799.7l249.1,0" class="g11_3" />
<path d="M342.8,820.8c2.5,0,4.5,-2.1,4.5,-4.6c0,-2.5,-2,-4.5,-4.5,-4.5c-2.5,0,-4.6,2,-4.6,4.5c0,2.5,2.1,4.6,4.6,4.6Z" class="g3_3" />
<path d="M342.8,821.3c-2.8,0,-5.1,-2.3,-5.1,-5.1c0,-2.8,2.3,-5.1,5.1,-5.1c2.8,0,5.1,2.3,5.1,5.1c0,2.8,-2.3,5.1,-5.1,5.1m0,-9.1c-2.2,0,-4,1.8,-4,4c0,2.2,1.8,4,4,4c2.2,0,4,-1.8,4,-4c0,-2.2,-1.8,-4,-4,-4Z" class="g5_3" />
<path d="M350.5,821.1l249.1,0" class="g11_3" />
<path d="M342.8,842.2c2.5,0,4.5,-2.1,4.5,-4.6c0,-2.5,-2,-4.5,-4.5,-4.5c-2.5,0,-4.6,2,-4.6,4.5c0,2.5,2.1,4.6,4.6,4.6Z" class="g3_3" />
<path d="M342.8,842.7c-2.8,0,-5.1,-2.3,-5.1,-5.1c0,-2.8,2.3,-5.1,5.1,-5.1c2.8,0,5.1,2.3,5.1,5.1c0,2.8,-2.3,5.1,-5.1,5.1m0,-9.1c-2.2,0,-4,1.8,-4,4c0,2.2,1.8,4,4,4c2.2,0,4,-1.8,4,-4c0,-2.2,-1.8,-4,-4,-4Z" class="g5_3" />
<path d="M350.5,842.5l249.1,0" class="g11_3" />
<path d="M342.8,863.5c2.5,0,4.5,-2,4.5,-4.5c0,-2.5,-2,-4.5,-4.5,-4.5c-2.5,0,-4.6,2,-4.6,4.5c0,2.5,2.1,4.5,4.6,4.5Z" class="g3_3" />
<path d="M342.8,864.1c-2.8,0,-5.1,-2.3,-5.1,-5.1c0,-2.8,2.3,-5.1,5.1,-5.1c2.8,0,5.1,2.3,5.1,5.1c0,2.8,-2.3,5.1,-5.1,5.1m0,-9.1c-2.2,0,-4,1.8,-4,4c0,2.2,1.8,4,4,4c2.2,0,4,-1.8,4,-4c0,-2.2,-1.8,-4,-4,-4Z" class="g5_3" />
<path d="M350.5,863.9l249.1,0" class="g11_3" />
<path d="M342.8,884.9c2.5,0,4.5,-2,4.5,-4.5c0,-2.5,-2,-4.5,-4.5,-4.5c-2.5,0,-4.6,2,-4.6,4.5c0,2.5,2.1,4.5,4.6,4.5Z" class="g3_3" />
<path d="M342.8,885.5c-2.8,0,-5.1,-2.3,-5.1,-5.1c0,-2.8,2.3,-5.1,5.1,-5.1c2.8,0,5.1,2.3,5.1,5.1c0,2.8,-2.3,5.1,-5.1,5.1m0,-9.1c-2.2,0,-4,1.8,-4,4c0,2.2,1.8,4,4,4c2.2,0,4,-1.8,4,-4c0,-2.2,-1.8,-4,-4,-4Z" class="g5_3" />
<path d="M350.5,885.3l249.1,0" class="g11_3" />
<path d="M342.8,974.4c2.5,0,4.5,-2,4.5,-4.5c0,-2.5,-2,-4.6,-4.5,-4.6c-2.5,0,-4.6,2.1,-4.6,4.6c0,2.5,2.1,4.5,4.6,4.5Z" class="g3_3" />
<path d="M342.8,975c-2.8,0,-5.1,-2.3,-5.1,-5.1c0,-2.8,2.3,-5.1,5.1,-5.1c2.8,0,5.1,2.3,5.1,5.1c0,2.8,-2.3,5.1,-5.1,5.1m0,-9.1c-2.2,0,-4,1.8,-4,4c0,2.2,1.8,4,4,4c2.2,0,4,-1.8,4,-4c0,-2.2,-1.8,-4,-4,-4Z" class="g5_3" />
<path d="M350.5,974.8l249.1,0" class="g11_3" />
<path d="M342.8,995.8c2.5,0,4.5,-2,4.5,-4.5c0,-2.5,-2,-4.6,-4.5,-4.6c-2.5,0,-4.6,2.1,-4.6,4.6c0,2.5,2.1,4.5,4.6,4.5Z" class="g3_3" />
<path d="M342.8,996.3c-2.8,0,-5.1,-2.2,-5.1,-5c0,-2.8,2.3,-5.1,5.1,-5.1c2.8,0,5.1,2.3,5.1,5.1c0,2.8,-2.3,5,-5.1,5m0,-9c-2.2,0,-4,1.8,-4,4c0,2.2,1.8,4,4,4c2.2,0,4,-1.8,4,-4c0,-2.2,-1.8,-4,-4,-4Z" class="g5_3" />
<path d="M350.5,996.2l249.1,0" class="g11_3" />
<path d="M342.8,1017.2c2.5,0,4.5,-2,4.5,-4.6c0,-2.5,-2,-4.5,-4.5,-4.5c-2.5,0,-4.6,2,-4.6,4.5c0,2.6,2.1,4.6,4.6,4.6Z" class="g3_3" />
<path d="M342.8,1017.7c-2.8,0,-5.1,-2.2,-5.1,-5.1c0,-2.8,2.3,-5,5.1,-5c2.8,0,5.1,2.2,5.1,5c0,2.9,-2.3,5.1,-5.1,5.1m0,-9c-2.2,0,-4,1.7,-4,3.9c0,2.3,1.8,4,4,4c2.2,0,4,-1.7,4,-4c0,-2.2,-1.8,-3.9,-4,-3.9Z" class="g5_3" />
<path d="M350.5,1017.5l249.1,0" class="g11_3" />
<path d="M342.8,1038.6c2.5,0,4.5,-2.1,4.5,-4.6c0,-2.5,-2,-4.5,-4.5,-4.5c-2.5,0,-4.6,2,-4.6,4.5c0,2.5,2.1,4.6,4.6,4.6Z" class="g3_3" />
<path d="M342.8,1039.1c-2.8,0,-5.1,-2.3,-5.1,-5.1c0,-2.8,2.3,-5,5.1,-5c2.8,0,5.1,2.2,5.1,5c0,2.8,-2.3,5.1,-5.1,5.1m0,-9.1c-2.2,0,-4,1.8,-4,4c0,2.2,1.8,4,4,4c2.2,0,4,-1.8,4,-4c0,-2.2,-1.8,-4,-4,-4Z" class="g5_3" />
<path d="M350.5,1038.9l249.1,0" class="g11_3" />
<path d="M342.8,1060c2.5,0,4.5,-2.1,4.5,-4.6c0,-2.5,-2,-4.5,-4.5,-4.5c-2.5,0,-4.6,2,-4.6,4.5c0,2.5,2.1,4.6,4.6,4.6Z" class="g3_3" />
<path d="M342.8,1060.5c-2.8,0,-5.1,-2.3,-5.1,-5.1c0,-2.8,2.3,-5.1,5.1,-5.1c2.8,0,5.1,2.3,5.1,5.1c0,2.8,-2.3,5.1,-5.1,5.1m0,-9.1c-2.2,0,-4,1.8,-4,4c0,2.2,1.8,4,4,4c2.2,0,4,-1.8,4,-4c0,-2.2,-1.8,-4,-4,-4Z" class="g5_3" />
<path d="M350.5,1060.3l249.1,0" class="g11_3" />
<path d="M342.8,1081.4c2.5,0,4.5,-2.1,4.5,-4.6c0,-2.5,-2,-4.5,-4.5,-4.5c-2.5,0,-4.6,2,-4.6,4.5c0,2.5,2.1,4.6,4.6,4.6Z" class="g3_3" />
<path d="M342.8,1081.9c-2.8,0,-5.1,-2.3,-5.1,-5.1c0,-2.8,2.3,-5.1,5.1,-5.1c2.8,0,5.1,2.3,5.1,5.1c0,2.8,-2.3,5.1,-5.1,5.1m0,-9.1c-2.2,0,-4,1.8,-4,4c0,2.2,1.8,4,4,4c2.2,0,4,-1.8,4,-4c0,-2.2,-1.8,-4,-4,-4Z" class="g5_3" />
<path d="M350.5,1081.7l249.1,0" class="g11_3" />
<path d="M342.8,1102.7c2.5,0,4.5,-2,4.5,-4.5c0,-2.5,-2,-4.5,-4.5,-4.5c-2.5,0,-4.6,2,-4.6,4.5c0,2.5,2.1,4.5,4.6,4.5Z" class="g3_3" />
<path d="M342.8,1103.3c-2.8,0,-5.1,-2.3,-5.1,-5.1c0,-2.8,2.3,-5.1,5.1,-5.1c2.8,0,5.1,2.3,5.1,5.1c0,2.8,-2.3,5.1,-5.1,5.1m0,-9.1c-2.2,0,-4,1.8,-4,4c0,2.2,1.8,4,4,4c2.2,0,4,-1.8,4,-4c0,-2.2,-1.8,-4,-4,-4Z" class="g5_3" />
<path d="M350.5,1103.1l249.1,0" class="g11_3" />
<path d="M342.8,1124.1c2.5,0,4.5,-2,4.5,-4.5c0,-2.5,-2,-4.5,-4.5,-4.5c-2.5,0,-4.6,2,-4.6,4.5c0,2.5,2.1,4.5,4.6,4.5Z" class="g3_3" />
<path d="M342.8,1124.7c-2.8,0,-5.1,-2.3,-5.1,-5.1c0,-2.8,2.3,-5.1,5.1,-5.1c2.8,0,5.1,2.3,5.1,5.1c0,2.8,-2.3,5.1,-5.1,5.1m0,-9.1c-2.2,0,-4,1.8,-4,4c0,2.2,1.8,4,4,4c2.2,0,4,-1.8,4,-4c0,-2.2,-1.8,-4,-4,-4Z" class="g5_3" />
<path d="M350.5,1124.5l249.1,0" class="g11_3" />
<path d="M342.8,1145.5c2.5,0,4.5,-2,4.5,-4.5c0,-2.5,-2,-4.6,-4.5,-4.6c-2.5,0,-4.6,2.1,-4.6,4.6c0,2.5,2.1,4.5,4.6,4.5Z" class="g3_3" />
<path d="M342.8,1146.1c-2.8,0,-5.1,-2.3,-5.1,-5.1c0,-2.8,2.3,-5.1,5.1,-5.1c2.8,0,5.1,2.3,5.1,5.1c0,2.8,-2.3,5.1,-5.1,5.1m0,-9.1c-2.2,0,-4,1.8,-4,4c0,2.2,1.8,4,4,4c2.2,0,4,-1.8,4,-4c0,-2.2,-1.8,-4,-4,-4Z" class="g5_3" />
<path d="M350.5,1146.1l249.1,0" class="g11_3" />
<path d="M313.5,250.4l0,-23L304,217.9l-161,0l-82.1,0l2.5,2.1L74,220l10.7,13.1c-0.3,1.2,-0.6,2.5,-0.7,4c-0.8,0.2,-1.5,0.9,-1.5,1.8c0,0.9,0.7,1.6,1.5,1.8c0.1,1.5,0.4,2.8,0.7,4L74,257.8l-10.6,0l-2.5,2.1l82.1,0l161,0ZM80.3,257.8l2.5,-3.1l216.8,0c-3.3,1.8,-6.7,2.7,-9.2,3.1Zm9,-23.1l0,8.4l-2.9,3.6c-0.7,-1.6,-1.3,-3.6,-1.5,-6.1c0.7,-0.2,1.3,-0.9,1.3,-1.7c0,-0.8,-0.6,-1.5,-1.3,-1.7c0.2,-2.5,0.8,-4.5,1.5,-6.1ZM83.5,224l8.5,0c-1.4,0.8,-3.4,2.2,-5,4.4ZM87,249.4c1.6,2.2,3.6,3.6,5,4.4l-8.5,0Zm-1.9,-3.7c0.2,0.7,0.5,1.2,0.7,1.8l-8.2,10.3l-2.4,0ZM77.6,220l8.2,10.3c-0.2,0.6,-0.5,1.2,-0.7,1.8L75.2,220Zm211.8,0c2.6,0.4,6.2,1.2,9.9,3.1l-216.5,0L80.3,220Zm22,13.5C307.3,225.4,300.3,221.7,294.6,220l8.5,0l8.3,8.3Zm0,8.2c-2.4,5.9,-6.2,9.7,-10.3,12.1l-206.9,0c-0.4,-0.1,-4,-1.3,-6.6,-5.1l3.8,-4.9l0,-9.8l-3.8,-4.9c2.6,-3.8,6.2,-4.9,6.6,-5.1L301,224c4.1,2.5,8,6.3,10.4,12.3Zm0,7.8l-8.3,8.3l-8,0c5.6,-1.8,12.3,-5.5,16.3,-13.3Z" class="g5_3" />
<path d="M56,213.6l18,15.6l0,19.4L56,264.2l-6.3,-6l0,-38.6Zm0,-3L54.5,212l-6.4,5.9l-0.7,0.7l0,1l0,38.6l0,1l0.7,0.7l6.4,5.9l1.5,1.5l1.5,-1.4l18,-15.6l0.8,-0.7l0,-1l0,-19.4l0,-1l-0.8,-0.7l-18,-15.6Z" class="g5_3" />
<path d="M313.5,506.7l0,-23L304,474.1l-161,0l-81.6,0l2.5,2.1l74.4,0l10.8,13.1c-0.4,1.3,-0.6,2.6,-0.8,4.1c-0.8,0.2,-1.4,0.9,-1.4,1.8c0,0.8,0.6,1.5,1.4,1.7c0.2,1.5,0.4,2.9,0.8,4.1l-10.8,13.1l-74.4,0l-2.5,2.1l81.6,0l161,0Zm-168.8,7.4l2.4,-3.1l152.5,0c-3.3,1.7,-6.7,2.6,-9.2,3.1Zm9,-23.1l0,8.4l-2.9,3.6c-0.8,-1.7,-1.4,-3.7,-1.6,-6.1c0.8,-0.2,1.3,-0.9,1.3,-1.7c0,-0.9,-0.5,-1.5,-1.3,-1.8c0.2,-2.4,0.8,-4.4,1.6,-6Zm-5.8,-10.7l8.5,0c-1.5,0.8,-3.4,2.1,-5.1,4.4Zm3.5,25.4c1.6,2.2,3.5,3.6,5,4.3l-8.5,0Zm-2,-3.7c0.3,0.6,0.5,1.2,0.8,1.7L142,514.1l-2.5,0Zm0.8,-15.4c-0.3,0.5,-0.5,1.1,-0.8,1.7l-9.9,-12.1l2.5,0ZM289.4,476.2c2.6,0.4,6.2,1.3,9.9,3.2l-152.2,0l-2.5,-3.2Zm22,13.5c-4.1,-8,-11.1,-11.7,-16.8,-13.5l8.5,0l8.3,8.3Zm0,8.2c-2.4,5.9,-6.2,9.7,-10.3,12.2l0,-0.1l-142.5,0c-0.5,-0.1,-4.1,-1.3,-6.7,-5.1l3.9,-4.8l0,-9.9l-3.9,-4.8c2.6,-3.8,6.2,-5,6.7,-5.1l142.4,0c4.1,2.4,8,6.3,10.4,12.3Zm0,7.9l-8.3,8.3l-8,0c5.6,-1.8,12.3,-5.5,16.3,-13.3Z" class="g5_3" />
<path d="M313.5,855.9l0,-23L304,823.3l-161,0l-81.6,0l2.5,2.1l74.4,0l10.8,13.1c-0.4,1.3,-0.6,2.6,-0.8,4.1c-0.8,0.2,-1.4,0.9,-1.4,1.8c0,0.8,0.6,1.6,1.4,1.7c0.2,1.5,0.4,2.9,0.8,4.1l-10.8,13.1l-74.4,0l-2.5,2.1l81.6,0l161,0Zm-168.8,7.4l2.4,-3.1l152.5,0c-3.3,1.7,-6.7,2.6,-9.2,3.1Zm9,-23.1l0,8.4l-2.9,3.6c-0.8,-1.7,-1.4,-3.7,-1.6,-6.1c0.8,-0.2,1.3,-0.9,1.3,-1.7c0,-0.9,-0.5,-1.5,-1.3,-1.8c0.2,-2.4,0.8,-4.4,1.6,-6Zm-5.8,-10.7l8.5,0c-1.5,0.8,-3.4,2.1,-5.1,4.4Zm3.5,25.4c1.6,2.2,3.5,3.6,5,4.3l-8.5,0Zm-2,-3.7c0.3,0.6,0.5,1.2,0.8,1.7L142,863.3l-2.5,0Zm0.8,-15.4c-0.3,0.5,-0.5,1.1,-0.8,1.7l-9.9,-12.1l2.5,0ZM289.4,825.4c2.6,0.4,6.2,1.3,9.9,3.2l-152.2,0l-2.5,-3.2Zm22,13.5c-4.1,-8,-11.1,-11.7,-16.8,-13.5l8.5,0l8.3,8.3Zm0,8.2c-2.4,5.9,-6.2,9.8,-10.3,12.2l0,-0.1l-142.5,0c-0.5,-0.1,-4.1,-1.3,-6.7,-5.1l3.9,-4.8l0,-9.9l-3.9,-4.8c2.6,-3.8,6.2,-5,6.7,-5.1l142.4,0c4.1,2.4,8,6.3,10.4,12.3Zm0,7.9l-8.3,8.3l-8,0c5.6,-1.8,12.3,-5.5,16.3,-13.3Z" class="g5_3" />
<path d="M602.2,250.4l0,-23l-9.5,-9.5l-161,0l-81.5,0l2.4,2.1l74.5,0l10.7,13.1c-0.3,1.2,-0.6,2.5,-0.7,4c-0.8,0.2,-1.5,0.9,-1.5,1.8c0,0.9,0.7,1.6,1.5,1.8c0.1,1.5,0.4,2.8,0.7,4l-10.7,13.1l-74.5,0l-2.4,2.1l81.5,0l161,0Zm-168.8,7.4l2.5,-3.1l152.5,0c-3.4,1.8,-6.7,2.7,-9.3,3.1Zm9,-23.1l0,8.4l-2.9,3.6c-0.7,-1.6,-1.3,-3.6,-1.5,-6.1c0.7,-0.2,1.3,-0.9,1.3,-1.7c0,-0.8,-0.6,-1.5,-1.3,-1.7c0.2,-2.5,0.8,-4.5,1.5,-6.1ZM436.6,224l8.5,0c-1.4,0.8,-3.4,2.2,-5,4.4Zm3.5,25.4c1.6,2.2,3.6,3.6,5,4.4l-8.5,0Zm-1.9,-3.7c0.2,0.7,0.5,1.2,0.7,1.8l-8.2,10.3l-2.4,0Zm0.7,-15.4c-0.2,0.6,-0.5,1.2,-0.7,1.8L428.3,220l2.4,0ZM578.2,220c2.6,0.4,6.2,1.2,9.9,3.1l-152.2,0L433.4,220Zm21.9,13.5C596,225.4,589,221.7,583.4,220l8.4,0l8.3,8.3Zm0,8.2c-2.3,5.9,-6.2,9.7,-10.2,12.1l-142.6,0c-0.4,-0.1,-4,-1.3,-6.6,-5.1l3.8,-4.9l0,-9.8l-3.8,-4.9c2.6,-3.8,6.2,-4.9,6.6,-5.1l142.4,0c4.1,2.5,8.1,6.3,10.4,12.3Zm0,7.8l-8.3,8.3l-7.9,0c5.5,-1.8,12.2,-5.5,16.2,-13.3Z" class="g5_3" />
<path d="M888.1,250.4l0,-23l-9.5,-9.5l-161,0l-81.5,0l2.4,2.1l74.5,0l10.7,13.1c-0.4,1.2,-0.6,2.5,-0.7,4c-0.9,0.2,-1.5,0.9,-1.5,1.8c0,0.9,0.6,1.6,1.5,1.8c0.1,1.5,0.3,2.8,0.7,4L713,257.8l-74.5,0l-2.4,2.1l81.5,0l161,0Zm-168.8,7.4l2.5,-3.1l152.4,0c-3.3,1.8,-6.7,2.7,-9.2,3.1Zm9,-23.1l0,8.4l-2.9,3.6c-0.8,-1.6,-1.3,-3.6,-1.5,-6.1c0.7,-0.2,1.3,-0.9,1.3,-1.7c0,-0.8,-0.6,-1.5,-1.3,-1.7c0.2,-2.5,0.7,-4.5,1.5,-6.1ZM722.5,224l8.5,0c-1.4,0.8,-3.4,2.2,-5,4.4Zm3.5,25.4c1.6,2.2,3.6,3.6,5,4.4l-8.5,0Zm-1.9,-3.7c0.2,0.7,0.4,1.2,0.7,1.8l-8.2,10.3l-2.5,0Zm0.7,-15.4c-0.3,0.6,-0.5,1.2,-0.7,1.8L714.1,220l2.5,0ZM864.1,220c2.5,0.4,6.2,1.2,9.9,3.1l-152.2,0L719.3,220ZM886,233.5C881.9,225.4,874.9,221.7,869.3,220l8.4,0l8.3,8.3Zm0,8.2c-2.3,5.9,-6.2,9.7,-10.2,12.1l-142.6,0c-0.4,-0.1,-4,-1.3,-6.6,-5.1l3.8,-4.9l0,-9.8l-3.8,-4.9c2.6,-3.8,6.2,-4.9,6.6,-5.1l142.4,0c4.1,2.5,8,6.3,10.4,12.3Zm0,7.8l-8.3,8.3l-8,0C875.3,256,882,252.3,886,244.5Z" class="g5_3" />
<path d="M888.1,509.7l0,-22.9l-9.5,-9.6l-161,0l-81.5,0l2.4,2.1l74.5,0l10.7,13.1c-0.4,1.2,-0.6,2.6,-0.7,4.1c-0.9,0.2,-1.5,0.9,-1.5,1.8c0,0.8,0.6,1.5,1.5,1.7c0.1,1.5,0.3,2.9,0.7,4.1L713,517.2l-74.5,0l-2.4,2.1l81.5,0l161,0Zm-168.8,7.5l2.5,-3.2l152.4,0c-3.3,1.8,-6.7,2.7,-9.2,3.2Zm9,-23.1l0,8.3l-2.9,3.7c-0.8,-1.7,-1.3,-3.7,-1.5,-6.1c0.7,-0.3,1.3,-0.9,1.3,-1.7c0,-0.9,-0.6,-1.5,-1.3,-1.8c0.2,-2.4,0.7,-4.4,1.5,-6.1Zm-5.8,-10.7l8.5,0c-1.4,0.8,-3.4,2.1,-5,4.4Zm3.5,25.3c1.6,2.3,3.6,3.7,5,4.4l-8.5,0Zm-1.9,-3.6c0.2,0.6,0.4,1.2,0.7,1.7l-8.2,10.4l-2.5,0Zm0.7,-15.4c-0.3,0.5,-0.5,1.1,-0.7,1.7l-10,-12.1l2.5,0ZM864.1,479.3c2.5,0.4,6.2,1.3,9.9,3.2l-152.2,0l-2.5,-3.2ZM886,492.8c-4.1,-8,-11.1,-11.7,-16.7,-13.5l8.4,0l8.3,8.3Zm0,8.2c-2.3,5.9,-6.2,9.7,-10.2,12.2l0,-0.1l-142.6,0c-0.4,-0.1,-4,-1.3,-6.6,-5.1l3.8,-4.8l0,-9.9l-3.8,-4.8c2.6,-3.8,6.2,-5,6.6,-5.1l142.4,0c4.1,2.4,8,6.3,10.4,12.3Zm0,7.9l-8.3,8.3l-8,0c5.6,-1.8,12.3,-5.5,16.3,-13.4Z" class="g5_3" />
<path d="M888.1,769.2l0,-23l-9.5,-9.5l-161,0l-81.5,0l2.4,2.1l74.5,0l10.7,13.1c-0.4,1.2,-0.6,2.5,-0.7,4c-0.9,0.2,-1.5,0.9,-1.5,1.8c0,0.9,0.6,1.6,1.5,1.7c0.1,1.5,0.3,2.9,0.7,4.1L713,776.6l-74.5,0l-2.4,2.1l81.5,0l161,0Zm-168.8,7.4l2.5,-3.1l152.4,0c-3.3,1.7,-6.7,2.6,-9.2,3.1Zm9,-23.1l0,8.4l-2.9,3.6c-0.8,-1.7,-1.3,-3.7,-1.5,-6.1c0.7,-0.2,1.3,-0.9,1.3,-1.7c0,-0.8,-0.6,-1.5,-1.3,-1.8c0.2,-2.4,0.7,-4.4,1.5,-6Zm-5.8,-10.7l8.5,0c-1.4,0.8,-3.4,2.1,-5,4.4Zm3.5,25.4c1.6,2.2,3.6,3.6,5,4.4l-8.5,0Zm-1.9,-3.7c0.2,0.6,0.4,1.2,0.7,1.7l-8.2,10.4l-2.5,0Zm0.7,-15.4c-0.3,0.5,-0.5,1.1,-0.7,1.7l-10,-12l2.5,0ZM864.1,738.8c2.5,0.3,6.2,1.2,9.9,3.1l-152.2,0l-2.5,-3.1ZM886,752.2c-4.1,-8,-11.1,-11.7,-16.7,-13.4l8.4,0L886,747Zm0,8.2c-2.3,5.9,-6.2,9.8,-10.2,12.2l-142.6,0c-0.4,-0.2,-4,-1.4,-6.6,-5.2l3.8,-4.8l0,-9.8l-3.8,-4.9c2.6,-3.8,6.2,-5,6.6,-5.1l142.4,0c4.1,2.4,8,6.3,10.4,12.3Zm0,7.9l-8.3,8.3l-8,0c5.6,-1.8,12.3,-5.5,16.3,-13.3Z" class="g5_3" />
<path d="M888.1,984.2l0,-23l-9.5,-9.5l-161,0l-81.5,0l2.4,2.1l74.5,0l10.7,13c-0.4,1.3,-0.6,2.6,-0.7,4.1c-0.9,0.2,-1.5,0.9,-1.5,1.8c0,0.9,0.6,1.6,1.5,1.7c0.1,1.5,0.3,2.9,0.7,4.1L713,991.6l-74.5,0l-2.4,2.1l81.5,0l161,0Zm-168.8,7.4l2.5,-3.1l152.4,0c-3.3,1.7,-6.7,2.6,-9.2,3.1Zm9,-23.1l0,8.4l-2.9,3.6c-0.8,-1.7,-1.3,-3.7,-1.5,-6.1c0.7,-0.2,1.3,-0.9,1.3,-1.7c0,-0.9,-0.6,-1.5,-1.3,-1.8c0.2,-2.4,0.7,-4.4,1.5,-6Zm-5.8,-10.7l8.5,0c-1.4,0.8,-3.4,2.1,-5,4.4Zm3.5,25.4c1.6,2.2,3.6,3.6,5,4.4l-8.5,0Zm-1.9,-3.7c0.2,0.6,0.4,1.2,0.7,1.7l-8.2,10.4l-2.5,0Zm0.7,-15.4c-0.3,0.5,-0.5,1.1,-0.7,1.7l-10,-12l2.5,0ZM864.1,953.8c2.5,0.3,6.2,1.2,9.9,3.1l-152.2,0l-2.5,-3.1ZM886,967.2c-4.1,-8,-11.1,-11.7,-16.7,-13.4l8.4,0L886,962Zm0,8.2c-2.3,5.9,-6.2,9.8,-10.2,12.2l-142.6,0c-0.4,-0.2,-4,-1.4,-6.6,-5.2l3.8,-4.8l0,-9.9l-3.8,-4.8c2.6,-3.8,6.2,-5,6.6,-5.1l142.4,0c4.1,2.4,8,6.3,10.4,12.3Zm0,7.9l-8.3,8.3l-8,0c5.6,-1.8,12.3,-5.5,16.3,-13.3Z" class="g5_3" />
<path d="M602.2,595.1l0,-23l-9.5,-9.6l-161,0l-81.5,0l2.4,2.1l74.5,0l10.7,13.1c-0.3,1.2,-0.6,2.6,-0.7,4.1c-0.8,0.2,-1.5,0.9,-1.5,1.8c0,0.8,0.7,1.5,1.5,1.7c0.1,1.5,0.4,2.9,0.7,4.1l-10.7,13.1l-74.5,0l-2.4,2.1l81.5,0l161,0Zm-168.8,7.4l2.5,-3.2l152.5,0c-3.4,1.8,-6.7,2.7,-9.3,3.2Zm9,-23.1l0,8.3l-2.9,3.7c-0.7,-1.7,-1.3,-3.7,-1.5,-6.1c0.7,-0.3,1.3,-0.9,1.3,-1.7c0,-0.9,-0.6,-1.5,-1.3,-1.8c0.2,-2.4,0.8,-4.4,1.5,-6.1Zm-5.8,-10.7l8.5,0c-1.4,0.8,-3.4,2.1,-5,4.4Zm3.5,25.3c1.6,2.3,3.6,3.7,5,4.4l-8.5,0Zm-1.9,-3.6c0.2,0.6,0.5,1.2,0.7,1.7l-8.2,10.4l-2.4,0ZM438.9,575c-0.2,0.5,-0.5,1.1,-0.7,1.7l-9.9,-12.1l2.4,0ZM578.2,564.6c2.6,0.4,6.2,1.3,9.9,3.2l-152.2,0l-2.5,-3.2Zm21.9,13.5C596,570.1,589,566.4,583.4,564.6l8.4,0l8.3,8.3Zm0,8.2c-2.3,5.9,-6.2,9.7,-10.2,12.2l0,-0.1l-142.6,0c-0.4,-0.1,-4,-1.3,-6.6,-5.1l3.8,-4.8l0,-9.9l-3.8,-4.8c2.6,-3.8,6.2,-5,6.6,-5.1l142.4,0c4.1,2.4,8.1,6.3,10.4,12.3Zm0,7.9l-8.3,8.3l-7.9,0c5.5,-1.8,12.2,-5.5,16.2,-13.4Z" class="g5_3" />
<path d="M602.2,941.2l0,-23l-9.5,-9.5l-161,0l-81.5,0l2.4,2.1l74.5,0l10.7,13.1c-0.3,1.2,-0.6,2.5,-0.7,4c-0.8,0.2,-1.5,0.9,-1.5,1.8c0,0.9,0.7,1.6,1.5,1.8c0.1,1.4,0.4,2.8,0.7,4l-10.7,13.1l-74.5,0l-2.4,2.1l81.5,0l161,0Zm-168.8,7.4l2.5,-3.1l152.5,0c-3.4,1.8,-6.7,2.7,-9.3,3.1Zm9,-23.1l0,8.4l-2.9,3.6c-0.7,-1.6,-1.3,-3.6,-1.5,-6.1c0.7,-0.2,1.3,-0.9,1.3,-1.7c0,-0.8,-0.6,-1.5,-1.3,-1.7c0.2,-2.5,0.8,-4.5,1.5,-6.1Zm-5.8,-10.7l8.5,0c-1.4,0.8,-3.4,2.2,-5,4.4Zm3.5,25.4c1.6,2.2,3.6,3.6,5,4.4l-8.5,0Zm-1.9,-3.7c0.2,0.6,0.5,1.2,0.7,1.8l-8.2,10.3l-2.4,0Zm0.7,-15.4c-0.2,0.6,-0.5,1.1,-0.7,1.8l-9.9,-12.1l2.4,0ZM578.2,910.8c2.6,0.4,6.2,1.2,9.9,3.1l-152.2,0l-2.5,-3.1Zm21.9,13.5C596,916.2,589,912.5,583.4,910.8l8.4,0l8.3,8.3Zm0,8.1c-2.3,6,-6.2,9.8,-10.2,12.2l-142.6,0c-0.4,-0.2,-4,-1.3,-6.6,-5.1l3.8,-4.9l0,-9.8l-3.8,-4.9c2.6,-3.8,6.2,-5,6.6,-5.1l142.4,0c4.1,2.5,8.1,6.3,10.4,12.3Zm0,7.9l-8.3,8.3l-7.9,0c5.5,-1.8,12.2,-5.5,16.2,-13.3Z" class="g5_3" />
<path d="M56,469.9l18,15.6l0,19.4L56,520.4l-6.3,-5.9l0,-38.6Zm0,-3.1l-1.5,1.4l-6.4,6l-0.7,0.7l0,1l0,38.6l0,0.9l0.7,0.7l6.4,6l1.5,1.4l1.5,-1.3l18,-15.6l0.8,-0.7l0,-1l0,-19.4l0,-1.1l-0.8,-0.7l-18,-15.5Z" class="g5_3" />
<path d="M56,819.1l18,15.6l0,19.4L56,869.6l-6.3,-5.9l0,-38.6ZM56,816l-1.5,1.4l-6.4,6l-0.7,0.7l0,1l0,38.6l0,0.9l0.7,0.7l6.4,6l1.5,1.4l1.5,-1.3l18,-15.6l0.8,-0.7l0,-1l0,-19.4l0,-1.1l-0.8,-0.7l-18,-15.5Z" class="g5_3" />
<path d="M344.8,213.6l18,15.6l0,19.4l-18,15.6l-6.4,-6l0,-38.6Zm-0.1,-3l-1.5,1.4l-6.3,5.9l-0.7,0.7l0,1l0,38.6l0,1l0.7,0.7l6.3,5.9l1.5,1.5l1.6,-1.4l18,-15.6l0.7,-0.7l0,-1l0,-19.4l0,-1l-0.7,-0.7l-18,-15.6Z" class="g5_3" />
<path d="M630.7,213.6l17.9,15.6l0,19.4l-17.9,15.6l-6.4,-6l0,-38.6Zm-0.1,-3l-1.5,1.4l-6.3,5.9l-0.8,0.7l0,1l0,38.6l0,1l0.8,0.7l6.3,5.9l1.5,1.5l1.6,-1.4l17.9,-15.6l0.8,-0.7l0,-1l0,-19.4l0,-1l-0.8,-0.7L632.2,211.9Z" class="g5_3" />
<path d="M630.7,473l17.9,15.6l0,19.3l-17.9,15.6l-6.4,-6l0,-38.5Zm-0.1,-3.1l-1.5,1.4l-6.3,6L622,478l0,1l0,38.5l0,1l0.8,0.7l6.3,6l1.5,1.4l1.6,-1.3l17.9,-15.6l0.8,-0.7l0,-1.1l0,-19.3l0,-1.1l-0.8,-0.7L632.2,471.3Z" class="g5_3" />
<path d="M630.7,732.4L648.6,748l0,19.4l-17.9,15.5L624.3,777l0,-38.6Zm-0.1,-3.1l-1.5,1.4l-6.3,6l-0.8,0.7l0,1l0,38.6l0,1l0.8,0.6l6.3,6l1.5,1.4l1.6,-1.3l17.9,-15.6l0.8,-0.7l0,-1l0,-19.4l0,-1.1l-0.8,-0.6L632.2,730.7Z" class="g5_3" />
<path d="M630.7,947.4L648.6,963l0,19.4l-17.9,15.5L624.3,992l0,-38.6Zm-0.1,-3.1l-1.5,1.4l-6.3,6l-0.8,0.7l0,1l0,38.6l0,0.9l0.8,0.7l6.3,6l1.5,1.4l1.6,-1.3l17.9,-15.6l0.8,-0.7l0,-1l0,-19.4l0,-1.1l-0.8,-0.6L632.2,945.7Z" class="g5_3" />
<path d="M344.8,558.3l18,15.6l0,19.3l-18,15.6l-6.4,-6l0,-38.5Zm-0.1,-3.1l-1.5,1.4l-6.3,6l-0.7,0.7l0,1l0,38.5l0,1l0.7,0.7l6.3,6l1.5,1.4l1.6,-1.3l18,-15.6l0.7,-0.7l0,-1.1l0,-19.3l0,-1.1l-0.7,-0.7l-18,-15.5Z" class="g5_3" />
<path d="M344.8,904.4l18,15.6l0,19.4l-18,15.6l-6.4,-6l0,-38.6Zm-0.1,-3.1l-1.5,1.5l-6.3,5.9l-0.7,0.7l0,1l0,38.6l0,1l0.7,0.6l6.3,6l1.5,1.4l1.6,-1.3l18,-15.6l0.7,-0.7l0,-1L365,920l0,-1l-0.7,-0.7l-18,-15.6Z" class="g5_3" />
<path d="M353.5,59.6c0.5,0,0.5,0.6,0,0.6l-0.5,0l0,-0.6Zm0.5,1.1c1,-0.2,0.8,-1.8,-0.5,-1.8l-1.3,0l0,2.8l0.8,0l0,-0.9l0.2,0l0.7,0.9l0.7,0l0,-0.2Zm-0.7,1.8c1.3,0,2,-1,2,-2.2c0,-1.2,-0.7,-2.1,-2,-2.1c-1.3,0,-2,0.9,-2,2.1c0,1.2,0.7,2.2,2,2.2M356,60.3c0,1.5,-1,2.7,-2.7,2.7c-1.7,0,-2.7,-1.2,-2.7,-2.7c0,-1.5,1,-2.7,2.7,-2.7c1.7,0,2.7,1.2,2.7,2.7Z" class="g5_3" />
<g clip-path="url(#c0_3)">
<path d="M345.9,37.9c-2,-1,-3.9,-1.5,-6.6,-1.6l-5.4,0c-4.2,0,-6.2,-0.1,-7.7,-0.4c-1.3,-0.3,-2.4,-1,-2.4,-1l-0.4,-0.3l0.1,0.4c0,0.2,0.3,3,3.7,5.5c0.7,0.5,1.2,1,1.2,2.7l0,1.1c0.7,-0.5,1.5,-0.9,2.4,-1.2c-0.3,0.3,-0.7,0.7,-1,1.1c0.6,-0.4,1.4,-0.7,2.6,-1c1.6,-0.2,2.8,-0.1,3.4,0l0,-0.4l3,0c3.9,0,6.2,2.5,6.2,6.9c0,4.3,-2.3,6.8,-6.2,6.8l-1.2,0c1.1,1,1.7,2.3,1.7,3.7c0,1,-0.3,2,-0.9,2.8c3.7,0,6.1,-0.7,8.7,-2.4C348.2,59.8,349.2,59,350,58c1.7,-2.2,2.8,-5.3,2.8,-8.4c0,-5.1,-2.6,-9.4,-6.9,-11.7M329.7,56.6c0.2,-0.2,0.2,-0.5,0.1,-0.8L329,53.4l2.1,1.3c0.2,0.1,0.4,0.3,0.6,0.4L333,55c1,-0.1,1.9,0.1,2.8,0.4l0,-6.7c-0.5,0.1,-0.9,0.3,-1,0.5l-0.6,0.5l-0.6,-0.5c-0.4,-0.3,-0.9,-0.4,-1.6,-0.4c-1,0,-1.9,0.4,-2.6,1.1c-0.4,0.5,-0.7,0.9,-1,1.4l0,5.3c0.5,0.4,1,0.4,1.3,0M303,56.3l-0.9,1.1l0.3,-3.3c0.3,-2.7,1.9,-4.6,3.1,-5.6c-0.2,0,-0.5,0,-0.8,0.1l-2.9,0.6l2.1,-2.1c0.7,-0.8,1.8,-1.3,2.6,-1.8c0.1,0,0.3,-0.1,0.4,-0.2c-1.1,-3.1,-3.2,-5.6,-6.2,-7.2c-1.9,-1,-3.9,-1.5,-6.5,-1.6l-5.4,0c-4.3,0,-6.3,-0.1,-7.8,-0.4c-1.2,-0.3,-2.4,-1,-2.4,-1l-0.3,-0.3l0,0.4c0,0.2,0.3,3,3.8,5.5c0.6,0.5,1.1,1,1.1,2.7l0,15.4c0,1.7,-0.3,2.1,-1.1,2.6c-0.8,0.5,-2.5,1.5,-2.5,1.5L279,63l14,0c3.9,0,6.3,-0.6,9,-2.4c0.3,-0.3,0.7,-0.5,1,-0.8c-0.2,-1.2,-0.2,-2.4,0,-3.5M335.8,44.2l0,-0.7c-0.5,0.1,-1.2,0.4,-1.5,0.6c0.5,0,1,0,1.5,0.1M293.7,56.5l-3,0l0,-13.7l3,0c3.9,0,6.1,2.5,6.1,6.9c0,4.3,-2.2,6.8,-6.1,6.8Z" class="g5_3" />
<path d="M332.9,56.8c0.5,0.1,1.2,0.6,1.2,1.3c0,0.5,-0.2,0.8,-0.6,1.1c-0.2,0.1,-0.4,0.2,-0.6,0.3C333,59.1,333,58.6,333,58.1c0,-0.8,-0.1,-1.3,-0.1,-1.3M332.3,46.7c-4,0.2,-7.4,3.6,-9.2,5.9c0.3,0.1,0.7,0.3,1,0.5c0.3,0.3,0.9,0.8,1.5,1.3c0.4,-1.1,1.5,-3.2,3.1,-5.1c1.5,-1.7,4.1,-1.8,5.5,-0.8c0.8,-0.8,3.9,-1.5,5.4,-1.1c-0.9,-1,-3,-2.4,-5.3,-2.4c-1.8,0,-2.9,0.9,-3.1,0.5c-0.4,-0.6,1.2,-1.3,1.2,-1.3c-2.2,0,-3.8,2.6,-4.5,2.3c-0.4,-0.2,0.6,-1.4,0.6,-1.4c-2,1.1,-3.7,3.6,-4,5.1c1.8,-2.2,5.4,-3.9,7.8,-3.5m-9.2,12.8c-0.8,-0.6,-2,-1.6,-2.9,-2.3c-1,1.7,-3.1,3.9,-5.3,3.9c-4,0,-6,-5.6,-1.5,-10.3c-0.3,-0.1,-0.5,-0.1,-0.6,-0.1c-0.4,0,-0.8,0.1,-1,0.3L310,52.2L310.4,50c0,-0.1,0.1,-0.3,0.1,-0.4c-1,0.5,-2,1.3,-2.4,1.7l-1.7,1.9l0.2,-2.7c0,-0.2,0.1,-0.4,0.1,-0.6c0.1,-0.4,0.2,-1,0.1,-1.2c0,0,0,-0.1,-0.1,-0.1c-0.8,0.6,-3.1,2.7,-3.4,5.6c0,0,0.5,-0.6,0.9,-0.8c0.2,-0.1,0.4,0.1,0.2,0.8c-0.1,0.3,-2.3,6.2,2,10.3c0,0,-0.5,-1.2,-0.2,-1.5c0.2,-0.2,0.4,-0.2,0.6,0.1c0.2,0.2,0.4,0.5,0.6,0.7c0.3,0.4,0.7,0.8,1.2,1.1c1.3,0.9,3,1.6,5,1.6c5.3,0,8.2,-3.6,9.7,-6.7c0,-0.1,-0.1,-0.2,-0.2,-0.3m15.3,0.7c0,-2.6,-2.5,-4.5,-5.3,-4.3c0.8,0.2,1.9,1,1.9,2.2c0,2.1,-2.5,2.7,-3.8,2.4c1.4,-1.1,1.2,-4,-0.5,-5c0.6,1.6,-1.2,3.2,-3,1.8c-0.9,-0.8,-3.2,-2.7,-4.2,-3.5c-1,-0.8,-2.2,-0.3,-2.6,-0.6c-0.5,-0.4,-0.2,-1.6,-0.9,-2c-0.6,-0.3,-1.2,-0.1,-1.9,-0.4c-0.7,-0.2,-1.1,-0.7,-1,-1.3c-0.3,0.4,-0.3,1.3,0.1,1.8c0.5,0.6,1.3,0.9,1.6,1.5c0.5,0.8,-0.2,1.9,1.7,3.4c0.9,0.7,2.3,1.9,3.2,2.7c1.5,1.3,0.7,3,0.9,4.5c0.2,1.7,1.6,2.7,2.6,2.9c-0.8,-0.7,-1.1,-2.5,0,-3.6c0,1.4,1.1,3.6,3.4,4.3c2.6,0.6,5.2,-0.8,5.8,-1.8c-1,0.5,-2.8,0,-3.6,-0.7c3,0.4,5.6,-1.7,5.6,-4.3M318.9,47.9c0,0,-0.4,-1.3,-1.7,-1.7c0.3,0.9,0.6,1.7,1.7,1.7M304.5,47.7c1.3,-1.3,3.9,-2.1,4.1,-2.8c0.2,-0.6,-1.2,-1.8,-1.7,-2c1.9,-0.1,2.8,0.3,2.8,0.3c-0.5,-0.8,-0.7,-1.8,-0.4,-2.7c1,2.4,4.6,2.8,5.5,4.8c-0.1,-0.9,-0.9,-1.8,-1.9,-2.4c-0.5,-1.3,-0.1,-3.7,0.5,-4.4c-0.2,3.5,4.8,5.5,5.8,8c-0.6,-2.2,-2.9,-3.5,-4,-4.8c-0.4,-0.9,-0.1,-2.4,0.3,-2.9c-0.1,2.4,2.4,4.2,3.8,5.5c1.5,1.5,2,2.9,1.8,4c0.3,0.1,0.8,0.4,0.7,1c0.5,-0.1,1.1,-0.7,1.2,-1c0.2,1.7,-0.8,3.5,-1.9,4.1c0,0,0.3,-0.8,-0.3,-1.5c-0.5,-0.6,-1.9,-0.6,-2.4,-0.6c0,0,0.6,-0.9,0.3,-1.3c-0.3,-0.6,-3.1,-0.3,-4.4,0.1c0.5,0,1.5,0.1,1.8,0.2c-0.2,0.3,-0.7,1.6,-0.3,2c0.3,0.3,0.8,-0.3,0.8,-0.3c0,0,-0.5,1.4,-0.1,1.7c0.3,0.3,1,0.1,1,0.1c-0.5,1.1,-2.1,1.8,-3.3,1.8c0.4,-0.1,1.1,-0.8,1.2,-1.3c-0.3,0.2,-1.1,0.2,-1.4,0.2c0.4,-0.2,1.2,-1.1,0.9,-2.2c-0.3,-1.6,-2.5,-1.8,-3.6,-1c0.3,-1.1,1.4,-2.1,2.2,-2.4c-0.5,-0.2,-1,-0.3,-1.7,-0.5c0.7,-0.5,2.5,-1,3.4,-1c-1.4,-0.3,-3.9,0.1,-5,1.5c0.3,0,1.3,0.2,1.7,0.3c-1.6,0.3,-3.8,1.8,-4.4,2.5c0.1,-1,0.4,-1.7,0.2,-2.3c-0.3,-0.8,-1.3,-1.1,-3.2,-0.7m3,-8.2c-0.3,-3,1.1,-4.6,1.8,-5.3c1.4,-1.4,3.3,-2.3,6.1,-2.1c4.5,0.2,6.6,3.2,6.6,6.5c0,1.6,-0.8,3.8,-1.9,5.3C320,43.8,320,43.7,319.9,43.7c-0.2,-0.3,-0.5,-0.5,-0.8,-0.7c-0.7,-0.7,-1.5,-1.4,-2.1,-2.3c1.3,-2.2,0.6,-5.3,-2,-5.3c-1.5,0,-2.8,1.3,-2.7,3.2c-0.4,0.9,-0.6,2.1,-0.5,3.2c-0.7,-0.4,-1.4,-0.9,-1.6,-1.7l-1,-2.2l-0.7,2.3c-0.2,0.6,-0.3,1.2,-0.2,1.8c-0.3,-0.5,-0.7,-1.3,-0.8,-2.5Z" class="g5_3" />
</g>
</svg>